<svg width="16" height="16" viewBox="0 0 16 16" fill="none" xmlns="http://www.w3.org/2000/svg">
<g clip-path="url(#clip0_525_2)">
<path d="M1.30687 1.30665L14.6935 14.6933C14.7625 14.7729 14.8546 14.8289 14.9569 14.8537C15.0592 14.8786 15.1667 14.8709 15.2645 14.8318C15.3622 14.7927 15.4454 14.7241 15.5024 14.6356C15.5593 14.547 15.5873 14.4429 15.5824 14.3378V0.951095C15.5825 0.882254 15.5686 0.814115 15.5415 0.750838C15.5144 0.687561 15.4746 0.630474 15.4247 0.583059C15.3748 0.535645 15.3158 0.498899 15.2512 0.475064C15.1866 0.451229 15.1178 0.440805 15.0491 0.444428H1.66242C1.563 0.445483 1.46608 0.475768 1.38375 0.531511C1.30142 0.587253 1.2373 0.665989 1.1994 0.75791C1.16149 0.849831 1.15147 0.950873 1.17058 1.04845C1.18969 1.14602 1.23709 1.23582 1.30687 1.30665Z" fill="url(#paint0_linear_525_2)"/>
<path d="M4.91553 4.91557L11.0844 11.0845L15.5289 6.64001V0.951125C15.529 0.821244 15.4793 0.696253 15.39 0.601965C15.3007 0.507677 15.1786 0.451294 15.0489 0.444458H9.38664L4.91553 4.91557Z" fill="#50E6FF"/>
<path d="M6.06443 8.87136L0.514432 14.4214C0.420706 14.5151 0.420706 14.667 0.514432 14.7608L1.24354 15.4899C1.33726 15.5836 1.48922 15.5836 1.58295 15.4899L7.13295 9.93987C7.22668 9.84615 7.22668 9.69419 7.13295 9.60046L6.40385 8.87136C6.31012 8.77763 6.15816 8.77763 6.06443 8.87136Z" fill="url(#paint1_linear_525_2)"/>
<path d="M3.94339 6.70847L0.51785 10.134C0.424124 10.2277 0.424125 10.3797 0.51785 10.4734L1.24696 11.2025C1.34068 11.2962 1.49264 11.2962 1.58637 11.2025L5.01191 7.77698C5.10563 7.68326 5.10563 7.5313 5.01191 7.43757L4.2828 6.70847C4.18908 6.61474 4.03712 6.61474 3.94339 6.70847Z" fill="url(#paint2_linear_525_2)"/>
<path d="M8.18704 10.9825L4.7615 14.4081C4.66778 14.5018 4.66778 14.6537 4.7615 14.7475L5.49061 15.4766C5.58433 15.5703 5.73629 15.5703 5.83002 15.4766L9.25556 12.051C9.34928 11.9573 9.34929 11.8053 9.25556 11.7116L8.52645 10.9825C8.43273 10.8888 8.28077 10.8888 8.18704 10.9825Z" fill="url(#paint3_linear_525_2)"/>
<path d="M8.68514 4.14848L8.09431 4.7393C7.9624 4.87121 7.9624 5.08508 8.09431 5.21699L8.68514 5.80782C8.81705 5.93973 9.03092 5.93973 9.16283 5.80782L9.75366 5.21699C9.88557 5.08508 9.88557 4.87121 9.75366 4.7393L9.16283 4.14848C9.03092 4.01657 8.81705 4.01657 8.68514 4.14848Z" fill="white"/>
<path d="M10.8184 2.01151L10.2276 2.60234C10.0957 2.73425 10.0957 2.94812 10.2276 3.08003L10.8184 3.67086C10.9504 3.80277 11.1642 3.80277 11.2961 3.67086L11.887 3.08003C12.0189 2.94812 12.0189 2.73425 11.887 2.60234L11.2961 2.01151C11.1642 1.8796 10.9504 1.8796 10.8184 2.01151Z" fill="white"/>
<path d="M10.8219 6.28178L10.231 6.87261C10.0991 7.00452 10.0991 7.21838 10.231 7.3503L10.8219 7.94112C10.9538 8.07303 11.1676 8.07303 11.2995 7.94112L11.8904 7.3503C12.0223 7.21839 12.0223 7.00452 11.8904 6.87261L11.2995 6.28178C11.1676 6.14987 10.9538 6.14987 10.8219 6.28178Z" fill="white"/>
<path d="M12.3647 4.73779L12.9514 4.15112C12.9828 4.11941 13.0202 4.09423 13.0614 4.07705C13.1026 4.05987 13.1468 4.05103 13.1914 4.05103C13.236 4.05103 13.2802 4.05987 13.3214 4.07705C13.3626 4.09423 13.4 4.11941 13.4314 4.15112L14.0181 4.73779C14.0498 4.76919 14.075 4.80657 14.0921 4.84777C14.1093 4.88896 14.1182 4.93315 14.1182 4.97779C14.1182 5.02242 14.1093 5.06661 14.0921 5.1078C14.075 5.149 14.0498 5.18638 14.0181 5.21779L13.4314 5.80445C13.4 5.83617 13.3626 5.86134 13.3214 5.87852C13.2802 5.8957 13.236 5.90455 13.1914 5.90455C13.1468 5.90455 13.1026 5.8957 13.0614 5.87852C13.0202 5.86134 12.9828 5.83617 12.9514 5.80445L12.3647 5.21779C12.333 5.18638 12.3079 5.149 12.2907 5.1078C12.2735 5.06661 12.2646 5.02242 12.2646 4.97779C12.2646 4.93315 12.2735 4.88896 12.2907 4.84777C12.3079 4.80657 12.333 4.76919 12.3647 4.73779Z" fill="white"/>
</g>
<defs>
<linearGradient id="paint0_linear_525_2" x1="1.15576" y1="7.64443" x2="15.5558" y2="7.64443" gradientUnits="userSpaceOnUse">
<stop offset="0.1" stop-color="#54AEF0"/>
<stop offset="1" stop-color="#1988D9"/>
</linearGradient>
<linearGradient id="paint1_linear_525_2" x1="0.443474" y1="12.1804" x2="7.20792" y2="12.1804" gradientUnits="userSpaceOnUse">
<stop stop-color="#B3B2B3"/>
<stop offset="1" stop-color="#979797"/>
</linearGradient>
<linearGradient id="paint2_linear_525_2" x1="0.440607" y1="8.95567" x2="5.08061" y2="8.95566" gradientUnits="userSpaceOnUse">
<stop stop-color="#B3B2B3"/>
<stop offset="1" stop-color="#979797"/>
</linearGradient>
<linearGradient id="paint3_linear_525_2" x1="4.69679" y1="13.2312" x2="9.3279" y2="13.2312" gradientUnits="userSpaceOnUse">
<stop stop-color="#B3B2B3"/>
<stop offset="1" stop-color="#979797"/>
</linearGradient>
<clipPath id="clip0_525_2">
<rect width="16" height="16" fill="white"/>
</clipPath>
</defs>
</svg>
