<svg viewBox="0 0 18 18" fill="none" xmlns="http://www.w3.org/2000/svg">
<g clip-path="url(#clip0_1062_3465)">
<path d="M12.74 8.66723C13.3806 8.66723 13.9 8.14788 13.9 7.50723C13.9 6.86658 13.3806 6.34723 12.74 6.34723C12.0993 6.34723 11.58 6.86658 11.58 7.50723C11.58 8.14788 12.0993 8.66723 12.74 8.66723Z" fill="url(#paint0_linear_1062_3465)"/>
<path d="M9.04 8.67724C9.68066 8.67724 10.2 8.15789 10.2 7.51724C10.2 6.87659 9.68066 6.35724 9.04 6.35724C8.39935 6.35724 7.88 6.87659 7.88 7.51724C7.88 8.15789 8.39935 8.67724 9.04 8.67724Z" fill="url(#paint1_linear_1062_3465)"/>
<path d="M5.33999 8.67724C5.98064 8.67724 6.49999 8.15789 6.49999 7.51724C6.49999 6.87659 5.98064 6.35724 5.33999 6.35724C4.69934 6.35724 4.17999 6.87659 4.17999 7.51724C4.17999 8.15789 4.69934 8.67724 5.33999 8.67724Z" fill="url(#paint2_linear_1062_3465)"/>
<path d="M6.18212 12.1548L5.51836 12.8204C5.46218 12.8768 5.38592 12.9085 5.30636 12.9086C5.22679 12.9087 5.15044 12.8772 5.0941 12.821L0.179932 7.92055C0.0672533 7.80818 0.00382626 7.65566 0.00360407 7.49653C0.00338188 7.3374 0.0663831 7.1847 0.178748 7.07202L0.842499 6.40641L6.18152 11.7305C6.23786 11.7867 6.26958 11.863 6.26969 11.9426C6.2698 12.0221 6.2383 12.0985 6.18212 12.1548Z" fill="#50E6FF"/>
<path d="M5.4179 2.22545L6.08351 2.8892C6.13985 2.94538 6.17156 3.02164 6.17167 3.10121C6.17179 3.18077 6.14029 3.25712 6.0841 3.31346L0.83764 8.5746L0.172032 7.91084C0.0593536 7.79848 -0.00407308 7.64596 -0.00429527 7.48683C-0.00451747 7.3277 0.0584834 7.175 0.170848 7.06232L4.99364 2.22604C5.04982 2.1697 5.12608 2.13799 5.20565 2.13787C5.28521 2.13776 5.36156 2.16926 5.4179 2.22545Z" fill="#1490DF"/>
<path d="M17.1566 6.39728L17.8204 7.06289C17.9327 7.17556 17.9957 7.32827 17.9955 7.48739C17.9953 7.64652 17.9319 7.79905 17.8192 7.91141L12.905 12.8119C12.8487 12.8681 12.7723 12.8996 12.6928 12.8994C12.6132 12.8993 12.5369 12.8676 12.4808 12.8113L11.817 12.1457C11.7608 12.0893 11.7293 12.013 11.7294 11.9334C11.7295 11.8539 11.7613 11.7776 11.8176 11.7214L17.1566 6.39728Z" fill="#50E6FF"/>
<path d="M17.8183 7.9043L17.1527 8.56806L11.9062 3.30692C11.8501 3.25058 11.8186 3.17423 11.8187 3.09467C11.8188 3.0151 11.8505 2.93884 11.9068 2.88266L12.5795 2.21185C12.6359 2.15566 12.7122 2.12416 12.7918 2.12427C12.8713 2.12438 12.9476 2.1561 13.0038 2.21244L17.8266 7.04872C17.9389 7.16139 18.0019 7.3141 18.0017 7.47323C18.0015 7.63235 17.9381 7.78488 17.8254 7.89724L17.8183 7.9043Z" fill="#1490DF"/>
<circle cx="13.5" cy="13.0172" r="3.5" fill="#0078D4"/>
<path d="M14.9381 12.3897H13.6805C13.4202 12.4027 13.1732 12.4977 12.9829 12.6581C12.7925 12.8185 12.6709 13.0342 12.6394 13.2672H13.0336C13.0639 13.1308 13.144 13.0074 13.2613 12.9167C13.3785 12.8261 13.5261 12.7735 13.6805 12.7672H14.9381C15.1273 12.7769 15.3047 12.8535 15.4316 12.9804C15.5585 13.1073 15.6245 13.2742 15.6154 13.4447C15.6245 13.6155 15.5586 13.7827 15.4318 13.9099C15.305 14.0372 15.1276 14.1144 14.9381 14.1247H13.6805C13.5261 14.1185 13.3785 14.0658 13.2613 13.9752C13.144 13.8846 13.0639 13.7612 13.0336 13.6247H12.6394C12.6673 13.8605 12.7873 14.0796 12.9779 14.2431C13.1686 14.4066 13.4176 14.5037 13.6805 14.5172H14.9381C15.2351 14.5017 15.5134 14.3811 15.712 14.1815C15.9107 13.982 16.0137 13.7198 15.9985 13.4522C16.0129 13.185 15.9096 12.9235 15.711 12.7245C15.5124 12.5255 15.2346 12.4052 14.9381 12.3897Z" fill="white"/>
<path d="M13.3196 13.2672H12.062C11.9675 13.2624 11.875 13.2409 11.7898 13.2039C11.7045 13.1668 11.6283 13.115 11.5654 13.0513C11.5024 12.9877 11.4541 12.9135 11.423 12.833C11.392 12.7525 11.3789 12.6673 11.3846 12.5822C11.3755 12.4114 11.4415 12.2443 11.5682 12.117C11.695 11.9897 11.8724 11.9125 12.062 11.9022H13.3196C13.4739 11.9085 13.6215 11.9611 13.7387 12.0517C13.856 12.1424 13.9361 12.2658 13.9664 12.4022H14.3606C14.3309 12.1678 14.2101 11.9504 14.0196 11.7885C13.8291 11.6265 13.5811 11.5304 13.3196 11.5172H12.062C11.7649 11.5327 11.4866 11.6534 11.288 11.8529C11.0893 12.0524 10.9863 12.3146 11.0015 12.5822C10.9871 12.8494 11.0904 13.111 11.289 13.3099C11.4876 13.5089 11.7654 13.6292 12.062 13.6447H13.3196C13.5799 13.6318 13.8268 13.5368 14.0171 13.3763C14.2075 13.2159 14.3291 13.0003 14.3606 12.7672H13.9664C13.9361 12.9037 13.856 13.0271 13.7387 13.1177C13.6215 13.2083 13.4739 13.261 13.3196 13.2672Z" fill="white"/>
</g>
<defs>
<linearGradient id="paint0_linear_1062_3465" x1="12.7458" y1="8.67228" x2="12.7425" y2="6.35228" gradientUnits="userSpaceOnUse">
<stop stop-color="#0078D4"/>
<stop offset="0.82" stop-color="#5EA0EF"/>
</linearGradient>
<linearGradient id="paint1_linear_1062_3465" x1="6.99001" y1="9.83724" x2="7.00001" y2="7.51724" gradientUnits="userSpaceOnUse">
<stop stop-color="#0078D4"/>
<stop offset="0.82" stop-color="#5EA0EF"/>
</linearGradient>
<linearGradient id="paint2_linear_1062_3465" x1="3.28999" y1="9.83724" x2="3.29999" y2="7.51724" gradientUnits="userSpaceOnUse">
<stop stop-color="#0078D4"/>
<stop offset="0.82" stop-color="#5EA0EF"/>
</linearGradient>
<clipPath id="clip0_1062_3465">
<rect width="18" height="18" fill="white"/>
</clipPath>
</defs>
</svg>
