<svg viewBox="0 0 800 800" fill="none" xmlns="http://www.w3.org/2000/svg">
<g clip-path="url(#clip0_103_41828)">
<path d="M742.73 327.37C751.675 300.433 754.768 271.897 751.804 243.668C748.84 215.439 739.885 188.168 725.54 163.677C704.272 126.658 671.798 97.3487 632.799 79.9754C593.8 62.6022 550.292 58.0622 508.546 67.0102C484.83 40.6289 454.589 20.9525 420.862 9.95722C387.134 -1.03808 351.107 -2.96519 316.399 4.36944C281.691 11.7041 249.524 28.0422 223.129 51.7429C196.733 75.4437 177.039 105.673 166.023 139.393C138.212 145.096 111.938 156.67 88.9583 173.34C65.9782 190.01 46.8208 211.393 32.7665 236.06C11.2676 273.018 2.07919 315.855 6.52951 358.378C10.9798 400.902 28.8383 440.908 57.5232 472.613C48.5453 499.538 45.4206 528.069 48.3581 556.298C51.2956 584.528 60.2276 611.804 74.5565 636.303C95.8512 673.336 128.354 702.652 167.38 720.025C206.406 737.398 249.941 741.932 291.71 732.973C310.552 754.192 333.704 771.146 359.62 782.705C385.536 794.263 413.62 800.16 441.996 800C484.784 800.039 526.478 786.481 561.059 761.283C595.64 736.085 621.319 700.549 634.39 659.807C662.198 654.094 688.467 642.516 711.446 625.846C734.425 609.177 753.585 587.798 767.646 563.137C788.891 526.234 797.922 483.557 793.446 441.212C788.971 398.866 771.219 359.017 742.73 327.37ZM441.996 747.64C406.954 747.696 373.01 735.413 346.116 712.947L350.846 710.267L510.123 618.327C514.087 616.002 517.379 612.686 519.674 608.704C521.969 604.723 523.188 600.212 523.213 595.617V371.053L590.546 410.007C590.879 410.175 591.168 410.42 591.388 410.722C591.608 411.023 591.754 411.372 591.813 411.74V597.827C591.729 637.534 575.917 675.591 547.839 703.669C519.761 731.746 481.704 747.556 441.996 747.64ZM119.973 610.127C102.399 579.781 96.0889 544.209 102.153 509.67L106.886 512.51L266.32 604.45C270.265 606.765 274.756 607.985 279.33 607.985C283.904 607.985 288.395 606.765 292.34 604.45L487.1 492.167V569.913C487.082 570.316 486.972 570.71 486.781 571.065C486.589 571.42 486.32 571.727 485.993 571.963L324.666 665.007C290.237 684.84 249.345 690.201 210.967 679.912C172.589 669.622 139.863 644.524 119.973 610.127ZM78.0265 263.187C95.7226 232.646 123.654 209.351 156.876 197.427V386.667C156.817 391.239 157.985 395.743 160.259 399.709C162.533 403.676 165.831 406.959 169.806 409.217L363.62 521.027L296.283 559.977C295.919 560.17 295.512 560.271 295.1 560.271C294.687 560.271 294.281 560.17 293.916 559.977L132.906 467.093C98.5419 447.174 73.4714 414.448 63.1854 376.083C52.8993 337.717 58.2359 296.839 78.0265 262.4V263.187ZM631.236 391.713L436.793 278.8L503.973 240C504.338 239.807 504.744 239.705 505.156 239.705C505.569 239.705 505.975 239.807 506.34 240L667.35 333.043C691.968 347.249 712.038 368.164 725.215 393.347C738.393 418.53 744.134 446.943 741.77 475.267C739.406 503.591 729.033 530.658 711.862 553.308C694.692 575.958 671.433 593.257 644.8 603.183V413.943C644.66 409.379 643.336 404.93 640.958 401.032C638.579 397.134 635.231 393.925 631.236 391.713ZM698.26 290.943L693.526 288.103L534.41 195.377C530.441 193.048 525.922 191.82 521.32 191.82C516.718 191.82 512.199 193.048 508.23 195.377L313.633 307.657V229.913C313.592 229.518 313.658 229.119 313.824 228.758C313.991 228.397 314.252 228.088 314.58 227.863L475.59 134.977C500.267 120.761 528.482 113.865 556.934 115.095C585.386 116.326 612.9 125.632 636.258 141.926C659.615 158.22 677.85 180.827 688.831 207.105C699.811 233.382 703.083 262.242 698.263 290.31L698.26 290.943ZM276.883 428.767L209.55 389.973C209.213 389.771 208.925 389.496 208.706 389.17C208.487 388.843 208.343 388.472 208.283 388.083V202.473C208.32 173.999 216.463 146.124 231.758 122.107C247.054 98.0896 268.871 78.9231 294.658 66.8481C320.445 54.7732 349.137 50.2888 377.379 53.9194C405.621 57.55 432.245 69.1455 454.14 87.3502L449.406 90.0335L290.133 181.967C286.169 184.292 282.878 187.608 280.583 191.59C278.288 195.571 277.068 200.081 277.043 204.677L276.883 428.767ZM313.47 349.92L400.203 299.927L487.1 349.92V449.9L400.52 499.89L313.63 449.9L313.47 349.92Z" fill="white"/>
</g>
<defs>
<clipPath id="clip0_103_41828">
<rect width="800" height="800" fill="white"/>
</clipPath>
</defs>
</svg>
