<svg width="17" height="16" viewBox="0 0 17 16" fill="none" xmlns="http://www.w3.org/2000/svg">
<g clip-path="url(#clip0_869_9886)">
<path d="M15.8156 0.773331H0.882226C0.587674 0.773331 0.348892 1.01211 0.348892 1.30666V10.9067C0.348892 11.2012 0.587674 11.44 0.882226 11.44H15.8156C16.1101 11.44 16.3489 11.2012 16.3489 10.9067V1.30666C16.3489 1.01211 16.1101 0.773331 15.8156 0.773331Z" fill="url(#paint0_linear_869_9886)"/>
<path d="M15.1667 1.66222H1.53111C1.36911 1.66222 1.23778 1.79355 1.23778 1.95556V10.2578C1.23778 10.4198 1.36911 10.5511 1.53111 10.5511H15.1667C15.3287 10.5511 15.46 10.4198 15.46 10.2578V1.95556C15.46 1.79355 15.3287 1.66222 15.1667 1.66222Z" fill="white"/>
<path d="M11.0156 4.55111V7.65333L8.34889 9.21778V6.10666L11.0156 4.55111Z" fill="#0078D4"/>
<path d="M11.0156 4.55111L8.34889 6.11555L5.68222 4.55111L8.34889 2.99555L11.0156 4.55111Z" fill="#83B9F9"/>
<path d="M8.34889 6.11555V9.21778L5.68222 7.65333V4.55111L8.34889 6.11555Z" fill="#5EA0EF"/>
<path opacity="0.2" d="M5.68222 7.65333L8.34889 6.10667V9.21778L5.68222 7.65333Z" fill="#83B9F9"/>
<path opacity="0.2" d="M11.0156 7.65333L8.34889 6.10667V9.21778L11.0156 7.65333Z" fill="#5EA0EF"/>
<path d="M11.5578 14.6667C9.97556 14.4178 9.91334 13.28 9.91334 11.44H6.77556C6.77556 13.28 6.72223 14.4178 5.14 14.6667C4.92159 14.6908 4.71986 14.7951 4.57377 14.9592C4.42767 15.1234 4.34756 15.3358 4.34889 15.5556H12.3489C12.3502 15.3358 12.2701 15.1234 12.124 14.9592C11.9779 14.7951 11.7762 14.6908 11.5578 14.6667Z" fill="url(#paint1_linear_869_9886)"/>
<path d="M5.03334 2.28445H2.8289C2.75928 2.28327 2.69013 2.29596 2.62547 2.32179C2.56081 2.34761 2.50194 2.38606 2.4523 2.43487C2.40265 2.48369 2.36323 2.5419 2.33632 2.60612C2.30941 2.67033 2.29555 2.73926 2.29556 2.80889V5.01333C2.29556 5.08406 2.32366 5.15189 2.37367 5.2019C2.42368 5.25191 2.4915 5.28 2.56223 5.28H2.74001C2.81073 5.28 2.87856 5.25191 2.92857 5.2019C2.97858 5.15189 3.00667 5.08406 3.00667 5.01333V2.97778H5.03334C5.10406 2.97778 5.17189 2.94968 5.2219 2.89967C5.27191 2.84966 5.30001 2.78184 5.30001 2.71111V2.54222C5.2977 2.47305 5.26859 2.40749 5.21883 2.35938C5.16907 2.31128 5.10255 2.28441 5.03334 2.28445Z" fill="#5EA0EF"/>
<path d="M5.03334 9.21778H2.99778V7.19111C2.99778 7.12039 2.96969 7.05256 2.91968 7.00255C2.86967 6.95254 2.80184 6.92445 2.73112 6.92445H2.56223C2.4915 6.92445 2.42368 6.95254 2.37367 7.00255C2.32366 7.05256 2.29556 7.12039 2.29556 7.19111V9.39556C2.29555 9.46518 2.30941 9.53411 2.33632 9.59833C2.36323 9.66254 2.40265 9.72076 2.4523 9.76957C2.50194 9.81839 2.56081 9.85683 2.62547 9.88266C2.69013 9.90849 2.75928 9.92118 2.8289 9.92H5.03334C5.10255 9.92004 5.16907 9.89317 5.21883 9.84507C5.26859 9.79696 5.2977 9.7314 5.30001 9.66222V9.48445C5.30001 9.44943 5.29311 9.41475 5.27971 9.3824C5.26631 9.35004 5.24666 9.32065 5.2219 9.29588C5.19714 9.27112 5.16774 9.25148 5.13539 9.23808C5.10304 9.22468 5.06836 9.21778 5.03334 9.21778Z" fill="#5EA0EF"/>
<path d="M13.8333 2.30222H11.6644C11.6291 2.30098 11.5939 2.30703 11.5609 2.31999C11.528 2.33295 11.4981 2.35255 11.4731 2.37757C11.4481 2.40258 11.4285 2.43248 11.4155 2.46539C11.4026 2.49831 11.3965 2.53354 11.3978 2.56889V2.73778C11.3978 2.77239 11.4047 2.80665 11.4182 2.83852C11.4317 2.87039 11.4515 2.89921 11.4764 2.92327C11.5013 2.94733 11.5308 2.96613 11.5631 2.97855C11.5954 2.99097 11.6298 2.99675 11.6644 2.99556H13.6911V5.04C13.6911 5.07461 13.698 5.10888 13.7115 5.14075C13.725 5.17261 13.7448 5.20144 13.7697 5.22549C13.7946 5.24955 13.8241 5.26835 13.8564 5.28077C13.8887 5.29319 13.9232 5.29897 13.9578 5.29778H14.1356C14.2039 5.29778 14.2695 5.27062 14.3178 5.22228C14.3662 5.17394 14.3933 5.10837 14.3933 5.04V2.83556C14.3947 2.76285 14.381 2.69064 14.353 2.62352C14.325 2.5564 14.2833 2.49584 14.2307 2.44568C14.178 2.39553 14.1155 2.35687 14.0471 2.33218C13.9787 2.30748 13.9059 2.29728 13.8333 2.30222Z" fill="#5EA0EF"/>
<path d="M14.1356 6.94222H13.9667C13.8959 6.94222 13.8281 6.97032 13.7781 7.02033C13.7281 7.07034 13.7 7.13816 13.7 7.20889V9.23556H11.6644C11.6291 9.23431 11.5939 9.24036 11.5609 9.25332C11.528 9.26629 11.4981 9.28588 11.4731 9.3109C11.4481 9.33591 11.4285 9.36581 11.4155 9.39872C11.4026 9.43164 11.3965 9.46687 11.3978 9.50222V9.68C11.3978 9.75073 11.4259 9.81855 11.4759 9.86856C11.5259 9.91857 11.5937 9.94667 11.6644 9.94667H13.8333C13.903 9.94668 13.9719 9.93282 14.0361 9.90591C14.1003 9.879 14.1585 9.83958 14.2073 9.78993C14.2562 9.74029 14.2946 9.68142 14.3204 9.61676C14.3463 9.5521 14.359 9.48295 14.3578 9.41333V7.20889C14.3587 7.14523 14.3367 7.08336 14.296 7.03445C14.2552 6.98554 14.1983 6.95283 14.1356 6.94222Z" fill="#5EA0EF"/>
</g>
<defs>
<linearGradient id="paint0_linear_869_9886" x1="8.34889" y1="11.44" x2="8.34889" y2="0.773331" gradientUnits="userSpaceOnUse">
<stop stop-color="#0078D4"/>
<stop offset="0.82" stop-color="#5EA0EF"/>
</linearGradient>
<linearGradient id="paint1_linear_869_9886" x1="8.34889" y1="15.5556" x2="8.34889" y2="11.44" gradientUnits="userSpaceOnUse">
<stop stop-color="#1490DF"/>
<stop offset="0.98" stop-color="#1F56A3"/>
</linearGradient>
<clipPath id="clip0_869_9886">
<rect width="16" height="16" fill="white" transform="translate(0.5)"/>
</clipPath>
</defs>
</svg>
