<svg width="16" height="16" viewBox="0 0 16 16" fill="none" xmlns="http://www.w3.org/2000/svg">
<path d="M8.00002 4.56894C4.85336 4.56894 2.30225 3.68005 2.30225 2.50671V13.4934C2.30225 14.6223 4.80891 15.5378 7.92002 15.5556H8.00002C11.1467 15.5556 13.6978 14.6667 13.6978 13.4934V2.50671C13.6978 3.64449 11.1467 4.56894 8.00002 4.56894Z" fill="url(#paint0_linear_526_14)"/>
<path d="M13.6978 2.50668C13.6978 3.64446 11.1467 4.5689 8.00002 4.5689C4.85336 4.5689 2.30225 3.68001 2.30225 2.50668C2.30225 1.33335 4.85336 0.444458 8.00002 0.444458C11.1467 0.444458 13.6978 1.33335 13.6978 2.50668Z" fill="#E8E8E8"/>
<path d="M12.3642 2.33779C12.3642 3.06668 10.4087 3.65335 7.9998 3.65335C5.59091 3.65335 3.62646 3.06668 3.62646 2.34668C3.62646 1.62668 5.58202 1.03113 7.9998 1.03113C10.4176 1.03113 12.3642 1.61779 12.3642 2.33779Z" fill="#50E6FF"/>
<path d="M7.99987 2.66672C6.82392 2.63749 5.6516 2.80883 4.5332 3.17339C5.65269 3.53096 6.82534 3.69333 7.99987 3.65339C9.17355 3.6819 10.3433 3.50748 11.4576 3.13783C10.339 2.79092 9.17057 2.63173 7.99987 2.66672Z" fill="#198AB3"/>
<path d="M10.6666 8.00001C10.6666 8.07112 10.6666 8.21334 10.6666 8.37334C10.6314 8.55835 10.6076 8.74538 10.5955 8.93334C10.5955 9.04001 10.5955 9.20001 10.64 9.34223C10.6844 9.48445 10.64 9.58223 10.64 9.66223C10.6364 9.93246 10.5596 10.1967 10.4177 10.4267C10.4161 10.4474 10.4161 10.4682 10.4177 10.4889L10.5066 10.5956C10.9069 9.93201 11.2234 9.22141 11.4489 8.48001C11.6977 7.63556 11.7244 7.03112 11.5289 6.77334C11.2484 6.42893 10.8741 6.17336 10.4512 6.03765C10.0283 5.90195 9.57509 5.89196 9.14664 6.00889C9.4486 6.15927 9.72226 6.36076 9.95552 6.60445C10.1607 6.77826 10.3293 6.99116 10.4513 7.23075C10.5734 7.47035 10.6466 7.73184 10.6666 8.00001ZM10.3911 8.07112C10.1549 8.01344 9.90597 8.0418 9.68886 8.15112C9.43108 8.31112 9.51108 8.64001 9.68886 9.04001C9.77756 9.29778 9.88145 9.55007 9.99997 9.79556L10.08 9.93778C10.1244 10.0089 10.1511 10.0711 10.1777 10.1156L10.2489 10.2311C10.3529 10.0563 10.4081 9.85677 10.4089 9.65334C10.4145 9.55564 10.4145 9.4577 10.4089 9.36C10.4089 9.20889 10.4089 9.04001 10.3644 8.92445C10.3764 8.71882 10.4002 8.51404 10.4355 8.31112C10.4089 8.21334 10.4177 8.11556 10.4266 8.04445L10.3911 8.07112ZM10.1244 8.43556C10.0798 8.47865 10.0246 8.50929 9.96441 8.52445C9.92341 8.53335 9.88097 8.53335 9.83997 8.52445C9.8174 8.50291 9.80006 8.47649 9.78927 8.44722C9.77849 8.41795 9.77455 8.38659 9.77775 8.35556C9.77775 8.29334 9.87552 8.24001 9.99108 8.22223H10.16C10.16 8.22223 10.24 8.22223 10.24 8.29334C10.2352 8.31703 10.2256 8.33949 10.2119 8.35936C10.1981 8.37923 10.1805 8.39608 10.16 8.40889L10.1244 8.43556ZM5.95552 9.22667C5.95552 9.16445 5.95552 9.11112 5.95552 9.07556C5.95981 9.02528 5.95981 8.97473 5.95552 8.92445C5.92878 8.62876 5.92878 8.33125 5.95552 8.03556C6.00844 7.70088 6.09787 7.37299 6.22219 7.05778C6.32704 6.74311 6.50353 6.45708 6.73775 6.22223C6.34831 6.10588 5.94419 6.04601 5.53775 6.04445C5.19201 6.02939 4.85019 6.12261 4.55997 6.31112C4.33801 6.51184 4.17031 6.76536 4.07241 7.04816C3.97452 7.33096 3.9496 7.6339 3.99997 7.92889C4.08558 8.60503 4.23438 9.27164 4.44441 9.92C4.74664 10.9333 5.0933 11.5556 5.39552 11.6533C5.52886 11.6978 5.67108 11.6533 5.8133 11.4667C6.06219 11.1644 6.2933 10.9067 6.42664 10.7556C6.22847 10.5542 6.08458 10.3059 6.00841 10.0339C5.93224 9.76187 5.92628 9.47497 5.99108 9.20001L5.95552 9.22667ZM6.18664 9.58223C6.18282 9.74976 6.20074 9.91708 6.23997 10.08C6.29407 10.2226 6.37224 10.3549 6.47108 10.4711C6.55867 10.5655 6.66452 10.6411 6.78219 10.6933C6.8924 10.7381 7.00992 10.7622 7.12886 10.7644C7.12886 10.6133 7.2533 10.4267 7.3333 10.2311C7.40804 10.061 7.47043 9.88574 7.51997 9.70667C7.54763 9.37836 7.54763 9.04831 7.51997 8.72001C7.51997 8.64001 7.51997 8.55112 7.46664 8.45334C7.45911 8.36361 7.42152 8.27905 7.35997 8.21334C7.29004 8.14608 7.20453 8.09721 7.11108 8.07112H6.9333C6.78531 8.08939 6.64124 8.13141 6.50664 8.19556C6.40678 8.24289 6.31155 8.29943 6.22219 8.36445V8.46223C6.22219 8.64001 6.22219 8.82667 6.22219 9.00445C6.22607 9.04881 6.22607 9.09342 6.22219 9.13778V9.48445L6.18664 9.58223ZM6.7733 8.39112C6.85425 8.36525 6.94124 8.36525 7.02219 8.39112C7.08107 8.39936 7.13815 8.41738 7.19108 8.44445C7.27108 8.44445 7.27997 8.54223 7.27108 8.56889C7.24539 8.61547 7.20879 8.65512 7.16441 8.68445C7.14527 8.67479 7.12736 8.66285 7.11108 8.64889C7.0488 8.6386 6.9913 8.60906 6.94666 8.56442C6.90203 8.51978 6.87249 8.46229 6.86219 8.4L6.7733 8.39112ZM7.43108 11.0578C7.38787 11.0628 7.34739 11.0815 7.31552 11.1111L7.19108 11.2622C7.03997 11.4489 6.97775 11.5111 6.54219 11.6C6.4585 11.6081 6.3786 11.6388 6.31108 11.6889C6.37373 11.7375 6.44673 11.7709 6.52441 11.7867C6.73254 11.8533 6.95629 11.8533 7.16441 11.7867C7.29009 11.726 7.40675 11.6482 7.51108 11.5556C7.59736 11.4843 7.65946 11.388 7.68886 11.28C7.69262 11.2346 7.68664 11.1889 7.67131 11.146C7.65598 11.103 7.63166 11.0639 7.59997 11.0311C7.58132 11.0166 7.55914 11.0073 7.53571 11.0042C7.51228 11.0011 7.48844 11.0042 7.46664 11.0133L7.43108 11.0578ZM11.5289 11.0578C11.2048 11.1776 10.8485 11.1776 10.5244 11.0578C10.484 11.0442 10.4403 11.0442 10.4 11.0578C10.3356 11.0786 10.2816 11.1231 10.2489 11.1822C10.2357 11.2736 10.2357 11.3664 10.2489 11.4578C10.576 11.5314 10.9181 11.5003 11.2266 11.3689C11.3892 11.3005 11.5348 11.1973 11.6533 11.0667L11.5289 11.0578ZM9.39552 9.15556C9.27108 8.79112 9.0933 8.26667 9.55552 7.94667C9.79612 7.81278 10.0754 7.76571 10.3466 7.81334C10.2304 7.43666 10.0366 7.08846 9.77775 6.79112L9.68886 6.70223L9.63552 6.64889C9.62004 6.62896 9.60213 6.61104 9.58219 6.59556C9.40629 6.43823 9.2049 6.31199 8.98664 6.22223C8.67583 6.08622 8.33915 6.01949 7.99997 6.02667C7.78775 6.00979 7.57456 6.04329 7.37775 6.12445C7.28609 6.14894 7.19684 6.18166 7.11108 6.22223C6.80708 6.44529 6.57775 6.75519 6.4533 7.11112C6.36523 7.40139 6.30277 7.69882 6.26664 8.00001C6.53391 7.83969 6.84507 7.76813 7.15552 7.79556C7.2537 7.8034 7.34936 7.83058 7.43699 7.87555C7.52461 7.92051 7.60248 7.98237 7.6661 8.05756C7.72972 8.13274 7.77783 8.21977 7.80767 8.31363C7.83751 8.40749 7.84849 8.50633 7.83997 8.60445C7.87294 8.98002 7.87294 9.35776 7.83997 9.73334C7.78815 9.92557 7.71975 10.1129 7.63552 10.2933C7.58219 10.4444 7.51108 10.6044 7.47552 10.7289C7.53739 10.7249 7.5994 10.734 7.65758 10.7554C7.71575 10.7768 7.76879 10.8102 7.8133 10.8533C7.87445 10.9146 7.92131 10.9885 7.9505 11.07C7.9797 11.1514 7.99052 11.2383 7.98219 11.3244H7.99997C7.99997 11.3956 7.99997 11.4667 7.99997 11.5378C7.93393 12.2677 8.00631 13.0036 8.2133 13.7067C8.264 13.789 8.33835 13.854 8.42664 13.8933C8.50853 13.9478 8.6039 13.9786 8.70219 13.9822C8.86325 13.9969 9.02559 13.9775 9.17871 13.9255C9.33183 13.8734 9.47231 13.7898 9.59108 13.68C9.74355 13.521 9.83486 13.3132 9.84886 13.0933C9.91108 12.6933 10.0444 11.5822 10.0622 11.3156C10.0465 11.18 10.0745 11.043 10.1422 10.9244C10.1997 10.8314 10.2831 10.7573 10.3822 10.7111C9.96204 10.2429 9.63879 9.69606 9.43108 9.10223L9.39552 9.15556Z" fill="#F2F2F2"/>
<defs>
<linearGradient id="paint0_linear_526_14" x1="2.29501" y1="9.03967" x2="13.6995" y2="9.03768" gradientUnits="userSpaceOnUse">
<stop stop-color="#005BA1"/>
<stop offset="0.07" stop-color="#0060A9"/>
<stop offset="0.36" stop-color="#0071C8"/>
<stop offset="0.52" stop-color="#0078D4"/>
<stop offset="0.64" stop-color="#0074CD"/>
<stop offset="0.82" stop-color="#006ABB"/>
<stop offset="1" stop-color="#005BA1"/>
</linearGradient>
</defs>
</svg>
