<svg width="1386" height="229" viewBox="0 0 1386 229" fill="none" xmlns="http://www.w3.org/2000/svg">
	<g clip-path="url(#clip0_2_3706)">
		<path d="M21.2298 193.53L13.5898 201.17L17.9398 205.52C18.9998 206.57 20.3798 207.1 21.7598 207.1C23.1398 207.1 24.5298 206.57 25.5798 205.52C27.6898 203.41 27.6898 199.99 25.5798 197.88L21.2298 193.53Z" fill="url(#paint0_linear_2_3706)" />
		<path d="M32.6898 182.06L25.0498 189.7L40.8598 205.51C41.9198 206.56 43.2998 207.09 44.6798 207.09C46.0598 207.09 47.4498 206.56 48.4998 205.51C50.6098 203.4 50.6098 199.98 48.4998 197.87L32.6898 182.06Z" fill="url(#paint1_linear_2_3706)" />
		<path d="M44.1498 170.6L36.5098 178.24L63.7898 205.52C64.8498 206.57 66.2298 207.1 67.6098 207.1C68.9898 207.1 70.3798 206.57 71.4298 205.52C73.5398 203.41 73.5398 199.99 71.4298 197.88L44.1498 170.6Z" fill="url(#paint2_linear_2_3706)" />
		<path d="M55.62 159.14L47.98 166.78L86.72 205.52C87.78 206.57 89.16 207.1 90.54 207.1C91.92 207.1 93.3 206.57 94.36 205.52C96.47 203.41 96.47 199.99 94.36 197.88L55.62 159.14Z" fill="url(#paint3_linear_2_3706)" />
		<path d="M117.28 197.88L67.0799 147.68L59.4399 155.32L109.64 205.52C110.7 206.57 112.08 207.1 113.46 207.1C114.84 207.1 116.23 206.57 117.28 205.52C119.39 203.41 119.39 199.99 117.28 197.88Z" fill="url(#paint4_linear_2_3706)" />
		<path d="M140.21 197.88L78.5399 136.21L70.8999 143.85L132.57 205.52C133.63 206.57 135.01 207.1 136.39 207.1C137.77 207.1 139.16 206.57 140.21 205.52C142.32 203.41 142.32 199.99 140.21 197.88Z" fill="url(#paint5_linear_2_3706)" />
		<g opacity="0.25">
			<path d="M21.76 207.1C20.38 207.1 18.99 206.57 17.94 205.52L9.77 197.35C7.66 195.24 7.66 191.82 9.77 189.71C11.88 187.6 15.3 187.6 17.41 189.71L25.58 197.88C27.69 199.99 27.69 203.41 25.58 205.52C24.52 206.57 23.14 207.1 21.76 207.1Z" fill="#00D8FF" />
			<path d="M33.22 195.64C31.84 195.64 30.45 195.11 29.4 194.06L21.23 185.89C19.12 183.78 19.12 180.36 21.23 178.25C23.34 176.14 26.76 176.14 28.87 178.25L37.04 186.42C39.15 188.53 39.15 191.95 37.04 194.06C35.98 195.11 34.6 195.64 33.22 195.64Z" fill="#00D8FF" />
			<path d="M44.6799 184.17C43.2999 184.17 41.9099 183.64 40.8599 182.59L32.6899 174.42C30.5799 172.31 30.5799 168.89 32.6899 166.78C34.7999 164.67 38.2199 164.67 40.3299 166.78L48.4999 174.95C50.6099 177.06 50.6099 180.48 48.4999 182.59C47.4399 183.64 46.0599 184.17 44.6799 184.17Z" fill="#00D8FF" />
			<path d="M56.1501 172.71C54.7701 172.71 53.3801 172.18 52.3301 171.13L44.1601 162.96C42.0501 160.85 42.0501 157.43 44.1601 155.32C46.2701 153.21 49.6901 153.21 51.8001 155.32L59.9701 163.49C62.0801 165.6 62.0801 169.02 59.9701 171.13C58.9101 172.18 57.5301 172.71 56.1501 172.71Z" fill="#00D8FF" />
			<path d="M67.6101 161.25C66.2301 161.25 64.8401 160.72 63.7901 159.67L55.6201 151.5C53.5101 149.39 53.5101 145.97 55.6201 143.86C57.7301 141.75 61.1501 141.75 63.2601 143.86L71.4301 152.03C73.5401 154.14 73.5401 157.56 71.4301 159.67C70.3701 160.72 68.9901 161.25 67.6101 161.25Z" fill="#00D8FF" />
			<path d="M79.0701 149.78C77.6901 149.78 76.3001 149.25 75.2501 148.2L67.0801 140.03C64.9701 137.92 64.9701 134.5 67.0801 132.39C69.1901 130.28 72.6101 130.28 74.7201 132.39L82.8901 140.56C85.0001 142.67 85.0001 146.09 82.8901 148.2C81.8301 149.25 80.4501 149.78 79.0701 149.78Z" fill="#00D8FF" />
		</g>
		<path d="M5.42008 69.5501C4.04008 69.5501 2.65008 69.0201 1.60008 67.9701C-0.509922 65.8601 -0.509922 62.4401 1.60008 60.3301L40.3401 21.5801C42.4501 19.4701 45.8701 19.4701 47.9801 21.5801C50.0901 23.6901 50.0901 27.1101 47.9801 29.2201L9.24008 67.9701C8.18008 69.0201 6.80008 69.5501 5.42008 69.5501Z" fill="url(#paint6_linear_2_3706)" />
		<path d="M5.42008 46.6201C4.04008 46.6201 2.65008 46.0901 1.60008 45.0401C-0.509922 42.9301 -0.509922 39.5101 1.60008 37.4001L17.4201 21.5801C19.5301 19.4701 22.9501 19.4701 25.0601 21.5801C27.1701 23.6901 27.1701 27.1101 25.0601 29.2201L9.24008 45.0401C8.18008 46.0901 6.80008 46.6201 5.42008 46.6201Z" fill="url(#paint7_linear_2_3706)" />
		<path d="M5.42008 92.4701C4.04008 92.4701 2.65008 91.9401 1.60008 90.8901C-0.509922 88.7801 -0.509922 85.3601 1.60008 83.2501L63.2601 21.5801C65.3701 19.4701 68.7901 19.4701 70.9001 21.5801C73.0101 23.6901 73.0101 27.1101 70.9001 29.2201L9.24008 90.8901C8.19008 91.9401 6.80008 92.4701 5.42008 92.4701Z" fill="url(#paint8_linear_2_3706)" />
		<path d="M5.42984 115.38C4.04984 115.38 2.65984 114.85 1.60984 113.8C-0.500156 111.69 -0.500156 108.27 1.60984 106.16L80.6098 27.1499C82.7198 25.0399 86.1398 25.0399 88.2498 27.1499C90.3598 29.2599 90.3598 32.6799 88.2498 34.7899L9.24984 113.8C8.19984 114.86 6.80984 115.38 5.42984 115.38Z" fill="url(#paint9_linear_2_3706)" />
		<path d="M5.42008 138.32C4.04008 138.32 2.65008 137.79 1.60008 136.74C-0.509922 134.63 -0.509922 131.21 1.60008 129.1L93.8301 36.8701C95.9401 34.7601 99.3601 34.7601 101.47 36.8701C103.58 38.9801 103.58 42.4001 101.47 44.5101L9.24008 136.74C8.18008 137.79 6.80008 138.32 5.42008 138.32Z" fill="url(#paint10_linear_2_3706)" />
		<path d="M5.40006 161.26C4.02006 161.26 2.63006 160.73 1.58006 159.68C-0.529941 157.57 -0.529941 154.15 1.58006 152.04L103.54 50.0801C105.65 47.9701 109.07 47.9701 111.18 50.0801C113.29 52.1901 113.29 55.6101 111.18 57.7201L9.22006 159.68C8.17006 160.73 6.78006 161.26 5.40006 161.26Z" fill="url(#paint11_linear_2_3706)" />
		<path d="M5.42008 184.17C4.04008 184.17 2.65008 183.64 1.60008 182.59C-0.509922 180.48 -0.509922 177.06 1.60008 174.95L109.11 67.4399C111.22 65.3299 114.64 65.3299 116.75 67.4399C118.86 69.5499 118.86 72.9699 116.75 75.0799L9.24008 182.59C8.19008 183.64 6.80008 184.17 5.42008 184.17Z" fill="url(#paint12_linear_2_3706)" />
		<path d="M5.42008 207.1C4.04008 207.1 2.65008 206.57 1.60008 205.52C-0.509922 203.41 -0.509922 199.99 1.60008 197.88L106.67 92.81C108.78 90.7 112.2 90.7 114.31 92.81C116.42 94.92 116.42 98.34 114.31 100.45L9.24008 205.52C8.19008 206.58 6.80008 207.1 5.42008 207.1Z" fill="url(#paint13_linear_2_3706)" />
	</g>
	<path d="M181.103 113.887C181.103 97.3196 184.688 82.584 191.856 69.6804C199.025 56.6174 208.982 46.5016 221.726 39.3329C234.63 32.0049 249.206 28.3409 265.455 28.3409C285.368 28.3409 302.414 33.5979 316.592 44.112C330.77 54.6261 340.248 68.9635 345.028 87.1242H300.104C296.758 80.1148 291.979 74.7781 285.766 71.1141C279.713 67.4501 272.783 65.6181 264.977 65.6181C252.392 65.6181 242.197 69.999 234.391 78.7607C226.585 87.5224 222.682 99.2313 222.682 113.887C222.682 128.543 226.585 140.252 234.391 149.014C242.197 157.776 252.392 162.157 264.977 162.157C272.783 162.157 279.713 160.325 285.766 156.661C291.979 152.997 296.758 147.66 300.104 140.65H345.028C340.248 158.811 330.77 173.149 316.592 183.663C302.414 194.017 285.368 199.195 265.455 199.195C249.206 199.195 234.63 195.61 221.726 188.442C208.982 181.114 199.025 170.998 191.856 158.094C184.688 145.191 181.103 130.455 181.103 113.887ZM398.965 21.1722V198H358.103V21.1722H398.965ZM477.324 199.912C464.261 199.912 452.472 197.124 441.958 191.548C431.603 185.973 423.399 178.007 417.346 167.653C411.451 157.298 408.504 145.191 408.504 131.331C408.504 117.631 411.531 105.603 417.584 95.2487C423.638 84.7346 431.922 76.6897 442.436 71.1141C452.95 65.5384 464.739 62.7506 477.802 62.7506C490.864 62.7506 502.653 65.5384 513.167 71.1141C523.681 76.6897 531.965 84.7346 538.019 95.2487C544.072 105.603 547.099 117.631 547.099 131.331C547.099 145.031 543.992 157.138 537.78 167.653C531.726 178.007 523.363 185.973 512.689 191.548C502.175 197.124 490.387 199.912 477.324 199.912ZM477.324 164.546C485.13 164.546 491.741 161.679 497.157 155.944C502.733 150.209 505.52 142.005 505.52 131.331C505.52 120.658 502.812 112.454 497.396 106.719C492.139 100.984 485.607 98.1162 477.802 98.1162C469.836 98.1162 463.225 100.984 457.968 106.719C452.711 112.294 450.083 120.498 450.083 131.331C450.083 142.005 452.631 150.209 457.729 155.944C462.986 161.679 469.518 164.546 477.324 164.546ZM688.494 64.6623V198H647.632V179.839C643.49 185.734 637.835 190.513 630.666 194.177C623.657 197.681 615.851 199.434 607.249 199.434C597.053 199.434 588.053 197.203 580.247 192.743C572.441 188.123 566.387 181.512 562.086 172.91C557.785 164.307 555.634 154.191 555.634 142.562V64.6623H596.257V137.066C596.257 145.987 598.567 152.917 603.186 157.855C607.806 162.794 614.019 165.263 621.825 165.263C629.79 165.263 636.083 162.794 640.703 157.855C645.322 152.917 647.632 145.987 647.632 137.066V64.6623H688.494ZM697.772 131.092C697.772 117.392 700.321 105.365 705.419 95.0097C710.676 84.655 717.765 76.6897 726.686 71.1141C735.607 65.5384 745.564 62.7506 756.556 62.7506C765.317 62.7506 773.282 64.5826 780.451 68.2466C787.779 71.9106 793.514 76.849 797.656 83.0619V21.1722H838.518V198H797.656V178.883C793.833 185.256 788.337 190.353 781.168 194.177C774.159 198 765.954 199.912 756.556 199.912C745.564 199.912 735.607 197.124 726.686 191.548C717.765 185.813 710.676 177.768 705.419 167.414C700.321 156.899 697.772 144.792 697.772 131.092ZM797.656 131.331C797.656 121.136 794.789 113.091 789.054 107.197C783.478 101.302 776.628 98.3551 768.503 98.3551C760.379 98.3551 753.449 101.302 747.714 107.197C742.138 112.931 739.351 120.897 739.351 131.092C739.351 141.288 742.138 149.412 747.714 155.466C753.449 161.36 760.379 164.307 768.503 164.307C776.628 164.307 783.478 161.36 789.054 155.466C794.789 149.571 797.656 141.527 797.656 131.331ZM941.678 198L906.79 134.677H896.993V198H856.131V30.2525H924.712C937.934 30.2525 949.165 32.5624 958.405 37.1823C967.804 41.8021 974.813 48.1743 979.433 56.2988C984.053 64.264 986.363 73.185 986.363 83.0619C986.363 94.2132 983.177 104.17 976.804 112.931C970.591 121.693 961.352 127.906 949.085 131.57L987.796 198H941.678ZM896.993 105.763H922.322C929.81 105.763 935.385 103.931 939.049 100.267C942.873 96.6028 944.784 91.4254 944.784 84.7346C944.784 78.3624 942.873 73.3444 939.049 69.6804C935.385 66.0164 929.81 64.1844 922.322 64.1844H896.993V105.763ZM991.941 131.092C991.941 117.392 994.49 105.365 999.587 95.0097C1004.84 84.655 1011.93 76.6897 1020.85 71.1141C1029.78 65.5384 1039.73 62.7506 1050.72 62.7506C1060.12 62.7506 1068.33 64.6623 1075.34 68.4856C1082.51 72.3089 1088 77.327 1091.82 83.5398V64.6623H1132.69V198H1091.82V179.122C1087.84 185.335 1082.27 190.353 1075.1 194.177C1068.09 198 1059.88 199.912 1050.49 199.912C1039.65 199.912 1029.78 197.124 1020.85 191.548C1011.93 185.813 1004.84 177.768 999.587 167.414C994.49 156.899 991.941 144.792 991.941 131.092ZM1091.82 131.331C1091.82 121.136 1088.96 113.091 1083.22 107.197C1077.65 101.302 1070.8 98.3551 1062.67 98.3551C1054.55 98.3551 1047.62 101.302 1041.88 107.197C1036.31 112.931 1033.52 120.897 1033.52 131.092C1033.52 141.288 1036.31 149.412 1041.88 155.466C1047.62 161.36 1054.55 164.307 1062.67 164.307C1070.8 164.307 1077.65 161.36 1083.22 155.466C1088.96 149.571 1091.82 141.527 1091.82 131.331ZM1170.85 50.8028C1163.68 50.8028 1157.79 48.7318 1153.17 44.5899C1148.71 40.2887 1146.48 35.0317 1146.48 28.8188C1146.48 22.4466 1148.71 17.1896 1153.17 13.0476C1157.79 8.74643 1163.68 6.59582 1170.85 6.59582C1177.86 6.59582 1183.59 8.74643 1188.05 13.0476C1192.67 17.1896 1194.98 22.4466 1194.98 28.8188C1194.98 35.0317 1192.67 40.2887 1188.05 44.5899C1183.59 48.7318 1177.86 50.8028 1170.85 50.8028ZM1191.16 64.6623V198H1150.3V64.6623H1191.16ZM1249.69 21.1722V198H1208.83V21.1722H1249.69ZM1321.59 199.912C1309.97 199.912 1299.61 197.92 1290.53 193.938C1281.45 189.955 1274.28 184.539 1269.02 177.689C1263.77 170.679 1260.82 162.873 1260.18 154.271H1300.57C1301.04 158.891 1303.19 162.634 1307.02 165.502C1310.84 168.369 1315.54 169.803 1321.12 169.803C1326.21 169.803 1330.12 168.847 1332.83 166.936C1335.69 164.865 1337.13 162.236 1337.13 159.05C1337.13 155.227 1335.14 152.439 1331.15 150.687C1327.17 148.775 1320.72 146.704 1311.8 144.474C1302.24 142.243 1294.27 139.934 1287.9 137.544C1281.53 134.995 1276.03 131.092 1271.41 125.835C1266.79 120.419 1264.48 113.17 1264.48 104.09C1264.48 96.4435 1266.55 89.5137 1270.7 83.3009C1275 76.9287 1281.21 71.9106 1289.34 68.2466C1297.62 64.5826 1307.42 62.7506 1318.73 62.7506C1335.45 62.7506 1348.6 66.8925 1358.15 75.1764C1367.87 83.4602 1373.45 94.4522 1374.88 108.152H1337.13C1336.49 103.533 1334.42 99.8685 1330.91 97.1603C1327.57 94.4522 1323.11 93.0981 1317.53 93.0981C1312.75 93.0981 1309.09 94.0539 1306.54 95.9656C1303.99 97.7179 1302.72 100.187 1302.72 103.373C1302.72 107.197 1304.71 110.064 1308.69 111.976C1312.83 113.887 1319.2 115.799 1327.81 117.711C1337.68 120.259 1345.73 122.808 1351.94 125.357C1358.15 127.747 1363.57 131.729 1368.19 137.305C1372.97 142.721 1375.44 150.049 1375.6 159.289C1375.6 167.095 1373.37 174.104 1368.91 180.317C1364.61 186.371 1358.31 191.15 1350.03 194.655C1341.91 198.159 1332.43 199.912 1321.59 199.912Z" fill="#16161A" />
	<defs>
		<linearGradient id="paint0_linear_2_3706" x1="17.4098" y1="197.35" x2="25.5798" y2="205.52" gradientUnits="userSpaceOnUse">
			<stop stop-color="#0061FF" />
			<stop offset="1" stop-color="#00CEFF" />
		</linearGradient>
		<linearGradient id="paint1_linear_2_3706" x1="28.8698" y1="185.88" x2="48.4998" y2="205.52" gradientUnits="userSpaceOnUse">
			<stop stop-color="#0061FF" />
			<stop offset="1" stop-color="#00CEFF" />
		</linearGradient>
		<linearGradient id="paint2_linear_2_3706" x1="40.3298" y1="174.42" x2="71.4298" y2="205.52" gradientUnits="userSpaceOnUse">
			<stop stop-color="#0061FF" />
			<stop offset="1" stop-color="#00CEFF" />
		</linearGradient>
		<linearGradient id="paint3_linear_2_3706" x1="51.8" y1="162.96" x2="94.36" y2="205.51" gradientUnits="userSpaceOnUse">
			<stop stop-color="#0061FF" />
			<stop offset="1" stop-color="#00CEFF" />
		</linearGradient>
		<linearGradient id="paint4_linear_2_3706" x1="63.2599" y1="151.49" x2="117.28" y2="205.52" gradientUnits="userSpaceOnUse">
			<stop stop-color="#0061FF" />
			<stop offset="1" stop-color="#00CEFF" />
		</linearGradient>
		<linearGradient id="paint5_linear_2_3706" x1="74.7199" y1="140.03" x2="140.21" y2="205.52" gradientUnits="userSpaceOnUse">
			<stop stop-color="#0061FF" />
			<stop offset="1" stop-color="#00CEFF" />
		</linearGradient>
		<linearGradient id="paint6_linear_2_3706" x1="0.0200781" y1="44.7801" x2="49.5701" y2="44.7801" gradientUnits="userSpaceOnUse">
			<stop stop-color="#0061FF" />
			<stop offset="1" stop-color="#00CEFF" />
		</linearGradient>
		<linearGradient id="paint7_linear_2_3706" x1="0.0200781" y1="33.3101" x2="26.6401" y2="33.3101" gradientUnits="userSpaceOnUse">
			<stop stop-color="#0061FF" />
			<stop offset="1" stop-color="#00CEFF" />
		</linearGradient>
		<linearGradient id="paint8_linear_2_3706" x1="0.0200781" y1="56.2301" x2="72.4801" y2="56.2301" gradientUnits="userSpaceOnUse">
			<stop stop-color="#0061FF" />
			<stop offset="1" stop-color="#00CEFF" />
		</linearGradient>
		<linearGradient id="paint9_linear_2_3706" x1="0.0298438" y1="70.4799" x2="89.8398" y2="70.4799" gradientUnits="userSpaceOnUse">
			<stop stop-color="#0061FF" />
			<stop offset="1" stop-color="#00CEFF" />
		</linearGradient>
		<linearGradient id="paint10_linear_2_3706" x1="0.0200781" y1="86.8001" x2="103.05" y2="86.8001" gradientUnits="userSpaceOnUse">
			<stop stop-color="#0061FF" />
			<stop offset="1" stop-color="#00CEFF" />
		</linearGradient>
		<linearGradient id="paint11_linear_2_3706" x1="5.85938e-05" y1="104.88" x2="112.76" y2="104.88" gradientUnits="userSpaceOnUse">
			<stop stop-color="#0061FF" />
			<stop offset="1" stop-color="#00CEFF" />
		</linearGradient>
		<linearGradient id="paint12_linear_2_3706" x1="0.0200781" y1="125.01" x2="118.33" y2="125.01" gradientUnits="userSpaceOnUse">
			<stop stop-color="#0061FF" />
			<stop offset="1" stop-color="#00CEFF" />
		</linearGradient>
		<linearGradient id="paint13_linear_2_3706" x1="0.0200781" y1="149.16" x2="115.89" y2="149.16" gradientUnits="userSpaceOnUse">
			<stop stop-color="#0061FF" />
			<stop offset="1" stop-color="#00CEFF" />
		</linearGradient>
		<clipPath id="clip0_2_3706">
			<rect width="141.79" height="187.1" fill="white" transform="translate(0 20)" />
		</clipPath>
	</defs>
</svg>
