<svg xmlns="http://www.w3.org/2000/svg" xmlns:xlink="http://www.w3.org/1999/xlink" viewBox="0 0 16 16" version="1.1">
<defs>
<linearGradient id="linear0" gradientUnits="userSpaceOnUse" x1="0" y1="1" x2="1" y2="0" gradientTransform="matrix(16,0,0,16,0,0)">
<stop offset="0" style="stop-color:rgb(30.196078%,15.294118%,65.882353%);stop-opacity:1;"/>
<stop offset="1" style="stop-color:rgb(63.137255%,40%,100%);stop-opacity:1;"/>
</linearGradient>
</defs>
<g id="surface1">
<rect x="0" y="0" width="16" height="16" style="fill:url(#linear0);stroke:none;"/>
<path style=" stroke:none;fill-rule:evenodd;fill:rgb(100%,100%,100%);fill-opacity:1;" d="M 10.375 10.875 C 10.097656 10.875 9.875 10.652344 9.875 10.375 C 9.875 10.097656 10.097656 9.875 10.375 9.875 C 10.652344 9.875 10.875 10.097656 10.875 10.375 C 10.875 10.652344 10.652344 10.875 10.375 10.875 Z M 10.375 9.375 C 9.824219 9.375 9.375 9.824219 9.375 10.375 C 9.375 10.925781 9.824219 11.375 10.375 11.375 C 10.925781 11.375 11.375 10.925781 11.375 10.375 C 11.375 9.824219 10.925781 9.375 10.375 9.375 Z M 5.625 8.125 C 5.347656 8.125 5.125 7.902344 5.125 7.625 C 5.125 7.347656 5.347656 7.125 5.625 7.125 C 5.902344 7.125 6.125 7.347656 6.125 7.625 C 6.125 7.902344 5.902344 8.125 5.625 8.125 Z M 5.625 6.625 C 5.074219 6.625 4.625 7.074219 4.625 7.625 C 4.625 8.175781 5.074219 8.625 5.625 8.625 C 6.175781 8.625 6.625 8.175781 6.625 7.625 C 6.625 7.074219 6.175781 6.625 5.625 6.625 Z M 11.347656 11.78125 C 11.292969 11.652344 11.234375 11.523438 11.171875 11.398438 L 10.722656 11.621094 C 10.792969 11.757812 10.855469 11.898438 10.914062 12.042969 C 10.703125 12.191406 10.484375 12.320312 10.257812 12.433594 C 10.347656 12.214844 10.421875 11.992188 10.492188 11.753906 L 10.011719 11.613281 C 9.890625 12.035156 9.746094 12.394531 9.546875 12.785156 C 9.089844 12.925781 8.613281 13 8.125 13 C 7.367188 13 6.640625 12.828125 5.96875 12.492188 C 5.625 11.652344 5.460938 10.882812 5.460938 10.140625 C 5.460938 9.816406 5.515625 9.550781 5.582031 9.238281 C 5.597656 9.164062 5.613281 9.085938 5.628906 9.007812 L 5.136719 8.910156 C 5.121094 8.988281 5.105469 9.0625 5.089844 9.136719 C 5.023438 9.460938 4.960938 9.765625 4.960938 10.140625 C 4.960938 10.769531 5.070312 11.410156 5.289062 12.089844 C 4.019531 11.179688 3.25 9.714844 3.25 8.125 C 3.25 8.097656 3.253906 8.066406 3.253906 8.039062 C 3.660156 7.949219 4.03125 7.902344 4.464844 7.894531 L 4.449219 7.394531 C 4.042969 7.402344 3.671875 7.445312 3.289062 7.519531 C 3.519531 5.671875 4.804688 4.097656 6.582031 3.503906 C 6.96875 3.703125 7.253906 3.882812 7.535156 4.09375 L 7.835938 3.695312 C 7.660156 3.5625 7.484375 3.441406 7.285156 3.324219 C 7.5625 3.277344 7.839844 3.25 8.125 3.25 C 8.757812 3.25 9.382812 3.375 9.960938 3.609375 C 9.835938 3.648438 9.703125 3.691406 9.5625 3.742188 L 9.730469 4.214844 C 10.078125 4.085938 10.351562 4.011719 10.644531 3.957031 C 12.101562 4.835938 13 6.417969 13 8.125 C 13 9.539062 12.402344 10.855469 11.347656 11.78125 Z M 10.753906 3.4375 C 9.957031 2.988281 9.046875 2.75 8.125 2.75 C 7.597656 2.75 7.082031 2.824219 6.589844 2.972656 C 4.429688 3.617188 2.890625 5.558594 2.761719 7.800781 C 2.753906 7.90625 2.75 8.015625 2.75 8.125 C 2.75 10.109375 3.839844 11.925781 5.589844 12.863281 C 6.363281 13.28125 7.242188 13.5 8.125 13.5 C 8.722656 13.5 9.308594 13.402344 9.859375 13.210938 C 10.421875 13.023438 10.941406 12.742188 11.410156 12.375 C 12.738281 11.351562 13.5 9.800781 13.5 8.125 C 13.5 6.183594 12.445312 4.386719 10.753906 3.4375 Z M 9.597656 9.351562 L 9.25 9.714844 C 8.503906 9.003906 7.761719 8.535156 6.910156 8.242188 L 7.070312 7.769531 C 7.996094 8.085938 8.796875 8.589844 9.597656 9.351562 Z M 9.609375 5.589844 C 10.320312 6.671875 10.71875 7.859375 10.796875 9.121094 L 10.300781 9.152344 C 10.226562 7.980469 9.855469 6.875 9.191406 5.863281 Z M 6.613281 6.699219 L 6.191406 6.425781 C 6.578125 5.832031 6.910156 5.441406 7.335938 5.070312 L 7.664062 5.445312 C 7.277344 5.785156 6.972656 6.148438 6.613281 6.699219 Z M 8.625 4.125 C 8.902344 4.125 9.125 4.347656 9.125 4.625 C 9.125 4.902344 8.902344 5.125 8.625 5.125 C 8.347656 5.125 8.125 4.902344 8.125 4.625 C 8.125 4.347656 8.347656 4.125 8.625 4.125 Z M 8.625 5.625 C 9.175781 5.625 9.625 5.175781 9.625 4.625 C 9.625 4.074219 9.175781 3.625 8.625 3.625 C 8.074219 3.625 7.625 4.074219 7.625 4.625 C 7.625 5.175781 8.074219 5.625 8.625 5.625 Z M 8.625 5.625 "/>
</g>
</svg>
