<svg viewBox="0 0 75 75" fill="none" xmlns="http://www.w3.org/2000/svg">
<g clip-path="url(#clip0_531_4147)">
<path d="M75 0H0V75H75V0Z" fill="#3B48CC"/>
<path d="M40.0603 51.25H38.7603C38.495 51.25 38.2407 51.1446 38.0532 50.9571C37.8656 50.7696 37.7603 50.5152 37.7603 50.25V28C37.7603 27.7348 37.8656 27.4804 38.0532 27.2929C38.2407 27.1054 38.495 27 38.7603 27H50.5702C50.7105 27.0016 50.8489 27.0327 50.9764 27.0913C51.1039 27.1498 51.2177 27.2346 51.3103 27.34L54.3102 30.95L52.9002 32.24L50.1303 29H39.7203V49.33H40.0603V51.25Z" fill="white"/>
<path d="M58.3202 54.8699H42.1602C41.8949 54.8699 41.6406 54.7645 41.453 54.577C41.2655 54.3894 41.1602 54.1351 41.1602 53.8699V31.6199C41.1602 31.3547 41.2655 31.1003 41.453 30.9128C41.6406 30.7252 41.8949 30.6199 42.1602 30.6199H54.6302C54.8842 30.6234 55.1273 30.7236 55.3102 30.8999L59.0002 34.6399C59.1765 34.8227 59.2766 35.0659 59.2802 35.3199V53.9099C59.2703 54.1613 59.166 54.3998 58.988 54.5778C58.8101 54.7557 58.5716 54.86 58.3202 54.8699ZM43.1202 52.9999H57.3602V35.7199L54.2302 32.5799H43.1202V52.9999Z" fill="white"/>
<path d="M58.3199 37.2798H53.6299C53.3647 37.2798 53.1103 37.1745 52.9228 36.9869C52.7352 36.7994 52.6299 36.545 52.6299 36.2798V31.5798H54.5499V35.3098H58.2799L58.3199 37.2798Z" fill="white"/>
<path d="M49.3803 49.65H48.7503C48.5071 49.6556 48.2658 49.6064 48.0442 49.506C47.8226 49.4056 47.6264 49.2566 47.4703 49.07C47.0751 48.4835 46.9278 47.7646 47.0603 47.07C47.0003 45.29 46.0003 45 46.0003 45C45.8106 44.928 45.6473 44.8 45.532 44.633C45.4167 44.466 45.355 44.2679 45.355 44.065C45.355 43.8621 45.4167 43.6639 45.532 43.4969C45.6473 43.3299 45.8106 43.202 46.0003 43.13C46.0903 43.13 47.0003 42.76 47.0003 41C47.0003 39.95 47.4903 38.78 48.6603 38.74H49.3203V40.67H49.0003C48.9851 40.7795 48.9851 40.8905 49.0003 41C49.0686 42.1162 48.7113 43.2168 48.0003 44.08C48.7098 44.9401 49.0671 46.037 49.0003 47.15C49.0102 47.2096 49.0102 47.2704 49.0003 47.33C48.9853 47.4729 48.9853 47.617 49.0003 47.76H49.4303L49.3803 49.65Z" fill="white"/>
<path d="M52.0703 49.6499V47.7299H52.4403C52.4501 47.6235 52.4501 47.5163 52.4403 47.4099C52.372 46.2937 52.7293 45.1931 53.4403 44.3299C52.7308 43.4698 52.3735 42.3729 52.4403 41.2599C52.4353 41.2 52.4353 41.1398 52.4403 41.0799C52.455 40.9403 52.455 40.7995 52.4403 40.6599H52.0103V38.7299H52.6403C52.8832 38.7264 53.1238 38.7766 53.3451 38.8768C53.5664 38.9771 53.7628 39.125 53.9203 39.3099C54.3134 39.8972 54.4606 40.6153 54.3303 41.3099C54.3303 43.0099 55.3303 43.3099 55.3303 43.3699C55.5391 43.4377 55.7198 43.5724 55.8445 43.7531C55.9692 43.9338 56.031 44.1506 56.0203 44.3699C56.0217 44.5794 55.9524 44.7832 55.8235 44.9484C55.6946 45.1135 55.5138 45.2304 55.3103 45.2799C55.2303 45.2799 54.3103 45.6499 54.3103 47.4199C54.3103 48.4699 53.8203 49.6399 52.6503 49.6699L52.0703 49.6499Z" fill="white"/>
<path d="M32.2302 27.2C24.2302 27.2 15.7202 24.74 15.7202 20.2C15.7202 15.66 24.2202 13.2 32.2302 13.2C40.2402 13.2 48.7402 15.66 48.7402 20.2C48.7402 24.74 40.2302 27.2 32.2302 27.2ZM32.2302 15.08C23.6302 15.08 17.6402 17.77 17.6402 20.18C17.6402 22.59 23.6402 25.27 32.2302 25.27C40.8202 25.27 46.8102 22.59 46.8102 20.18C46.8102 17.77 40.8202 15.08 32.2302 15.08Z" fill="white"/>
<path d="M48.7301 20.1799H46.8101V26.2399H48.7301V20.1799Z" fill="white"/>
<path d="M32.2302 61.8399C24.2302 61.8399 15.7202 59.3799 15.7202 54.8399V20.1799H17.6402V54.8199C17.6402 57.2299 23.6402 59.9199 32.2302 59.9199C40.8202 59.9199 46.8102 57.2299 46.8102 54.8199H48.7402C48.7402 59.3799 40.2302 61.8399 32.2302 61.8399Z" fill="white"/>
<path d="M32.2605 39.3101C22.8705 39.3101 15.7905 36.3101 15.7905 32.3101H17.7205C17.7205 34.7201 23.7205 37.4101 32.2605 37.4101C33.7008 37.4089 35.1398 37.3254 36.5705 37.1601L36.7905 39.0701C35.2864 39.2373 33.7739 39.3174 32.2605 39.3101Z" fill="white"/>
<path d="M32.2605 51.21C22.8705 51.21 15.7905 48.21 15.7905 44.21H17.7205C17.7205 46.62 23.7205 49.31 32.2605 49.31C33.7005 49.3106 35.1395 49.2305 36.5705 49.07L36.7805 51C35.2787 51.1507 33.7699 51.2208 32.2605 51.21V51.21Z" fill="white"/>
</g>
<defs>
<clipPath id="clip0_531_4147">
<rect width="75" height="75" fill="white"/>
</clipPath>
</defs>
</svg>
