<svg viewBox="0 0 75 75" fill="none" xmlns="http://www.w3.org/2000/svg">
<g clip-path="url(#clip0_531_3946)">
<path d="M75 0H0V75H75V0Z" fill="#3F8624"/>
<path d="M14.5 15.91L21.79 23.21L23.21 21.79L15.91 14.5H21.5V12.5H13.5C13.2348 12.5 12.9804 12.6054 12.7929 12.7929C12.6054 12.9804 12.5 13.2348 12.5 13.5V21.5H14.5V15.91Z" fill="white"/>
<path d="M61.5 12.5H53.5V14.5H59.09L51.79 21.79L53.21 23.21L60.5 15.91V21.5H62.5V13.5C62.5 13.2348 62.3947 12.9804 62.2071 12.7929C62.0196 12.6054 61.7653 12.5 61.5 12.5Z" fill="white"/>
<path d="M21.79 51.79L14.5 59.09V53.5H12.5V61.5C12.5 61.7653 12.6054 62.0196 12.7929 62.2071C12.9804 62.3947 13.2348 62.5 13.5 62.5H21.5V60.5H15.91L23.21 53.21L21.79 51.79Z" fill="white"/>
<path d="M60.5 59.09L53.21 51.79L51.79 53.21L59.09 60.5H53.5V62.5H61.5C61.7653 62.5 62.0196 62.3947 62.2071 62.2071C62.3947 62.0196 62.5 61.7653 62.5 61.5V53.5H60.5V59.09Z" fill="white"/>
<path d="M29.6001 23.24C31.3689 22.4552 33.3367 22.2347 35.2353 22.6087C37.1339 22.9827 38.8711 23.933 40.2101 25.33C41.403 26.5421 42.3057 28.0089 42.8501 29.62C42.9115 29.7896 43.0175 29.9393 43.157 30.0535C43.2965 30.1677 43.4643 30.242 43.6426 30.2687C43.8209 30.2953 44.0031 30.2733 44.1699 30.2049C44.3367 30.1364 44.4819 30.0242 44.5901 29.88C44.8937 29.4563 45.2926 29.1098 45.7546 28.8684C46.2166 28.6269 46.7289 28.4974 47.2501 28.49C48.7901 28.49 50.6501 29.67 50.8401 32.99C50.8534 33.2101 50.939 33.4197 51.0837 33.5861C51.2284 33.7524 51.424 33.8663 51.6401 33.91C55.5301 34.73 57.5001 36.91 57.5001 40.31C57.5001 43.53 56.0901 45.44 53.1801 46.15L53.6501 48.09C57.4201 47.18 59.5001 44.41 59.5001 40.31C59.5001 36.21 57.1201 33.31 52.7701 32.12C52.2601 28.24 49.6901 26.49 47.2501 26.49C46.1359 26.4799 45.0484 26.8307 44.1501 27.49C43.5234 26.1456 42.6673 24.9206 41.6201 23.87C39.9983 22.1978 37.9047 21.0604 35.6191 20.6101C33.3336 20.1598 30.965 20.4179 28.8301 21.35C26.8459 22.2833 25.1608 23.7505 23.9633 25.5873C22.7658 27.4241 22.1034 29.558 22.0501 31.75C22.0501 31.93 22.0501 32.11 22.0501 32.3C20.3837 32.83 18.9368 33.8913 17.9309 35.3217C16.9249 36.752 16.4153 38.4726 16.4801 40.22C16.4801 40.41 16.4801 40.6 16.4801 40.79C16.5851 42.4381 17.18 44.0172 18.1884 45.325C19.1969 46.6327 20.5729 47.6095 22.1401 48.13L22.8001 46.24C21.6064 45.8503 20.5565 45.1128 19.785 44.1221C19.0135 43.1314 18.5556 41.9328 18.4701 40.68C18.4701 40.53 18.4701 40.38 18.4701 40.22C18.3927 38.7636 18.8485 37.3289 19.7522 36.1841C20.6558 35.0394 21.9455 34.2629 23.3801 34C23.6001 33.9434 23.7943 33.8134 23.9306 33.6317C24.0669 33.4499 24.1373 33.2271 24.1301 33C24.0816 32.6118 24.0548 32.2212 24.0501 31.83C24.0969 30.0266 24.6396 28.2708 25.6186 26.7555C26.5977 25.2402 27.9752 24.0239 29.6001 23.24Z" fill="white"/>
<path d="M53.45 42.82C53.4996 42.6696 53.5128 42.5096 53.4884 42.3531C53.4641 42.1967 53.4029 42.0482 53.31 41.92C53.218 41.7908 53.0965 41.6853 52.9557 41.6122C52.8148 41.5392 52.6587 41.5007 52.5 41.5H49.5C49.394 40.6385 48.9992 39.8383 48.38 39.23C48.141 38.9898 47.8553 38.801 47.5406 38.6755C47.2259 38.5499 46.8887 38.4902 46.55 38.5H36.27C36.01 37.69 35.51 36.67 34.74 36.5H34.55H30.55C29.66 36.5 29.07 37.62 28.77 38.5H27.56C27.2125 38.4848 26.8656 38.5408 26.5406 38.6646C26.2155 38.7884 25.9193 38.9774 25.67 39.22C25.3002 39.5825 25.0063 40.015 24.8054 40.4923C24.6045 40.9696 24.5007 41.4821 24.5 42V54.5C24.5 54.7652 24.6054 55.0196 24.7929 55.2071C24.9804 55.3946 25.2348 55.5 25.5 55.5H48.5C48.7092 55.4978 48.9124 55.43 49.081 55.3062C49.2496 55.1824 49.3752 55.0089 49.44 54.81L53.45 42.82ZM51.11 43.5L49.5 48.34V43.5H51.11ZM47.5 53.5H26.5V42C26.4894 41.5148 26.6688 41.0447 27 40.69C27.0578 40.6262 27.129 40.576 27.2086 40.5432C27.2881 40.5103 27.374 40.4955 27.46 40.5H29.46C29.7151 40.5005 29.9608 40.4034 30.1467 40.2286C30.3326 40.0539 30.4447 39.8147 30.46 39.56C30.5588 39.1902 30.7032 38.8341 30.89 38.5H34.1C34.2596 38.821 34.3901 39.1557 34.49 39.5C34.49 39.7652 34.5954 40.0196 34.7829 40.2071C34.9704 40.3946 35.2248 40.5 35.49 40.5H46.57C46.6446 40.503 46.7178 40.5214 46.7849 40.5541C46.852 40.5868 46.9117 40.6331 46.96 40.69C47.304 41.0395 47.4977 41.5096 47.5 42V53.5Z" fill="white"/>
</g>
<defs>
<clipPath id="clip0_531_3946">
<rect width="75" height="75" fill="white"/>
</clipPath>
</defs>
</svg>
