<svg viewBox="0 0 100 100" fill="none" xmlns="http://www.w3.org/2000/svg">
<rect width="100" height="100" fill="url(#paint0_linear_410_3780)"/>
<path d="M50.0004 86.9998C38.9754 86.9998 27.793 84.0608 27.793 78.4626V40.6929H31.293V78.4626C31.293 80.212 37.8904 83.4834 49.9829 83.4834C62.0753 83.4834 68.6903 80.1596 68.6903 78.4626V40.6929H72.1903V78.4626C72.2428 84.0608 61.0603 86.9998 50.0004 86.9998Z" fill="white"/>
<path d="M39.1495 60.8285C31.8346 59.3765 27.8096 56.6999 27.8096 53.2886H31.3096C31.3096 54.0583 33.392 56.1051 39.8495 57.3822L39.1495 60.8285Z" fill="white"/>
<path d="M62.8624 60.3738L62.0049 56.9974C66.9049 55.7553 68.7249 54.0759 68.7249 53.3062H72.2248C72.2248 56.3326 68.8999 58.8518 62.8624 60.3738Z" fill="white"/>
<path d="M49.9993 49.2302C38.9569 49.2302 27.7744 46.3087 27.7744 40.693C27.7744 35.0774 38.9569 32.1384 49.9993 32.1384C61.0418 32.1384 72.2067 35.0774 72.2067 40.693C72.2067 46.3087 61.0593 49.2302 49.9993 49.2302ZM49.9993 35.6547C37.8894 35.6547 31.2919 38.9786 31.2919 40.693C31.2919 42.4075 37.9244 45.7313 49.9993 45.7313C62.0743 45.7313 68.6893 42.4075 68.6893 40.693C68.6893 38.9786 62.1268 35.6547 49.9993 35.6547V35.6547Z" fill="white"/>
<path d="M49.9993 87C38.9569 87 27.7744 84.061 27.7744 78.4628V65.8671C27.7744 65.4031 27.9588 64.9581 28.287 64.6301C28.6152 64.302 29.0603 64.1177 29.5244 64.1177C29.9885 64.1177 30.4337 64.302 30.7618 64.6301C31.09 64.9581 31.2744 65.4031 31.2744 65.8671C31.2744 66.6368 33.3744 68.6836 39.8144 69.9782L39.1144 73.477C36.3727 73.008 33.7251 72.0982 31.2744 70.7829V78.5153C31.2744 80.2647 37.8894 83.5361 49.9993 83.5361C62.1093 83.5361 68.6892 80.2122 68.6892 78.5153V70.713C66.8524 71.7361 64.8781 72.4902 62.8268 72.9522L61.9693 69.5583C66.8693 68.3163 68.6892 66.6368 68.6892 65.8671C68.6892 65.4031 68.8736 64.9581 69.2018 64.6301C69.53 64.302 69.9751 64.1177 70.4392 64.1177C70.9034 64.1177 71.3485 64.302 71.6767 64.6301C72.0049 64.9581 72.1892 65.4031 72.1892 65.8671V78.4628C72.2242 84.061 61.0593 87 49.9993 87Z" fill="white"/>
<path d="M18.2197 57.3823H14.7197V52.4665C14.7197 52.0025 14.9041 51.5575 15.2323 51.2294C15.5605 50.9014 16.0056 50.717 16.4697 50.717H24.6597V54.2159H18.2197V57.3823Z" fill="white"/>
<path d="M85.2793 59.1318H75.4443V55.633H83.5293V54.2334H75.4443V50.7346H85.2793C85.7434 50.7346 86.1885 50.9189 86.5167 51.247C86.8449 51.5751 87.0293 52.0201 87.0293 52.484V57.3999C87.0247 57.8608 86.8383 58.3013 86.5106 58.6256C86.1829 58.9499 85.7404 59.1318 85.2793 59.1318Z" fill="white"/>
<path d="M90.2497 59.1319H75.4447V55.6331H88.4997V30.3542C87.0829 29.8807 85.851 28.9739 84.9781 27.7621C84.1052 26.5502 83.6355 25.0947 83.6355 23.6014C83.6355 22.1081 84.1052 20.6526 84.9781 19.4408C85.851 18.229 87.0829 17.3222 88.4997 16.8487V16.5163H11.5V16.7612C12.9645 17.2004 14.245 18.1068 15.1456 19.342C16.0462 20.5772 16.5175 22.0732 16.4875 23.6014C16.5022 25.1177 16.0238 26.5978 15.1243 27.8188C14.2248 29.0399 12.9529 29.9358 11.5 30.3716V55.6156H24.5899V59.1145H9.74999C9.28587 59.1145 8.84075 58.9301 8.51256 58.6021C8.18437 58.274 8 57.829 8 57.365V28.8672C8 28.4032 8.18437 27.9582 8.51256 27.6301C8.84075 27.3021 9.28587 27.1177 9.74999 27.1177C10.6337 27.0725 11.4634 26.6787 12.0572 26.0228C12.651 25.367 12.9603 24.5025 12.9175 23.6189C12.9652 22.7307 12.6585 21.8597 12.0647 21.1973C11.4709 20.5348 10.6384 20.1348 9.74999 20.0851C9.28587 20.0851 8.84075 19.9008 8.51256 19.5727C8.18437 19.2446 8 18.7997 8 18.3357V14.7494C8 14.2854 8.18437 13.8405 8.51256 13.5124C8.84075 13.1843 9.28587 13 9.74999 13H90.2497C90.7138 13 91.1589 13.1843 91.4871 13.5124C91.8153 13.8405 91.9997 14.2854 91.9997 14.7494V18.3357C91.9997 18.7997 91.8153 19.2446 91.4871 19.5727C91.1589 19.9008 90.7138 20.0851 90.2497 20.0851C89.3754 20.148 88.5599 20.5482 87.9754 21.2011C87.3909 21.8539 87.0831 22.7084 87.1172 23.5839C87.0786 24.4606 87.3848 25.3175 87.9702 25.9714C88.5557 26.6253 89.3738 27.0242 90.2497 27.0828C90.7138 27.0828 91.1589 27.2671 91.4871 27.5951C91.8153 27.9232 91.9997 28.3682 91.9997 28.8322V57.3476C92.0043 57.5802 91.9625 57.8115 91.8766 58.0278C91.7908 58.2441 91.6626 58.4411 91.4996 58.6072C91.3367 58.7734 91.1422 58.9054 90.9275 58.9955C90.7129 59.0856 90.4824 59.132 90.2497 59.1319Z" fill="white"/>
<path d="M37.8721 31.3159H34.3721V21.3793C34.3721 20.9153 34.5564 20.4704 34.8846 20.1423C35.2128 19.8142 35.6579 19.6299 36.1221 19.6299H47.5845C48.0486 19.6299 48.4938 19.8142 48.8219 20.1423C49.1501 20.4704 49.3345 20.9153 49.3345 21.3793V29.654H45.8345V23.1287H37.8721V31.3159Z" fill="white"/>
<path d="M65.7495 31.3159H62.2495V23.1287H54.2695V29.654H50.7695V21.3793C50.7695 20.9153 50.9539 20.4704 51.2821 20.1423C51.6103 19.8142 52.0554 19.6299 52.5195 19.6299H63.9995C64.4636 19.6299 64.9087 19.8142 65.2369 20.1423C65.5651 20.4704 65.7495 20.9153 65.7495 21.3793V31.3159Z" fill="white"/>
<path d="M80.3619 47.6554H75.4444V44.1566H78.6119V23.1637H70.6494V32.8554H67.1494V21.3793C67.1494 20.9153 67.3338 20.4704 67.662 20.1423C67.9902 19.8142 68.4353 19.6299 68.8994 19.6299H80.3619C80.826 19.6299 81.2711 19.8142 81.5993 20.1423C81.9275 20.4704 82.1118 20.9153 82.1118 21.3793V45.871C82.1165 46.1037 82.0747 46.335 81.9888 46.5513C81.903 46.7676 81.7748 46.9646 81.6118 47.1307C81.4489 47.2969 81.2544 47.4289 81.0397 47.519C80.8251 47.6091 80.5946 47.6555 80.3619 47.6554Z" fill="white"/>
<path d="M24.6422 47.6556H19.7422C19.2781 47.6556 18.8329 47.4713 18.5047 47.1432C18.1766 46.8151 17.9922 46.3702 17.9922 45.9062V21.4144C17.9922 20.9505 18.1766 20.5055 18.5047 20.1774C18.8329 19.8494 19.2781 19.665 19.7422 19.665H31.2046C31.6688 19.665 32.1139 19.8494 32.4421 20.1774C32.7703 20.5055 32.9546 20.9505 32.9546 21.4144V32.8556H29.4546V23.1289H21.4922V44.1218H24.6422V47.6556Z" fill="white"/>
<path d="M42.6143 77.2733V54.3211H51.1017C53.0617 54.2232 54.9846 54.8807 56.4742 56.1579C57.1447 56.791 57.6714 57.5606 58.0186 58.4148C58.3658 59.2689 58.5254 60.1876 58.4867 61.1088C58.5205 62.4901 58.1229 63.8475 57.3492 64.9925C56.5294 66.1384 55.3828 67.0103 54.0592 67.4941L59.9217 77.2908H55.9317L50.6817 68.1939H46.6217V77.2908L42.6143 77.2733ZM46.6217 65.0275H50.5942C51.1122 65.1003 51.6401 65.0518 52.1362 64.8859C52.6322 64.72 53.083 64.4412 53.4529 64.0714C53.8228 63.7017 54.1017 63.2511 54.2677 62.7552C54.4336 62.2592 54.4821 61.7316 54.4092 61.2137C54.4896 60.7038 54.45 60.1822 54.2936 59.6902C54.1373 59.1982 53.8684 58.7493 53.5084 58.3793C53.1484 58.0092 52.7071 57.728 52.2195 57.558C51.7319 57.3881 51.2114 57.334 50.6992 57.4H46.6217V65.0275Z" fill="white"/>
<defs>
<linearGradient id="paint0_linear_410_3780" x1="-20.7067" y1="120.707" x2="120.707" y2="-20.7067" gradientUnits="userSpaceOnUse">
<stop stop-color="#2E27AD"/>
<stop offset="1" stop-color="#527FFF"/>
</linearGradient>
</defs>
</svg>
