<svg viewBox="0 0 100 100" fill="none" xmlns="http://www.w3.org/2000/svg">
<rect width="100" height="100" fill="url(#paint0_linear_410_3765)"/>
<path d="M50.0086 87C39.0823 87 28 84.0805 28 78.5195V41H31.4686V78.5195C31.4686 80.2573 38.0071 83.507 49.9912 83.507C61.9754 83.507 68.5312 80.2051 68.5312 78.5195V41H71.9998V78.5195C72.0518 84.0805 60.9695 87 50.0086 87Z" fill="white"/>
<path d="M36.01 60C29.386 57.9184 28 55.0447 28 53H31.6C31.6 53.7 33.058 55.2105 37 56.4632L36.01 60Z" fill="white"/>
<path d="M66.2343 59L65 55.7478C67.8574 54.5826 68.6182 53.4696 68.6182 53H71.9998C72.0167 54.6696 71.0191 57.0696 66.2343 59Z" fill="white"/>
<path d="M36.01 73C29.386 70.9239 28 68.0394 28 66H31.6C31.6 66.6982 33.058 68.2047 37 69.4724L36.01 73Z" fill="white"/>
<path d="M66.2343 72L65 68.7478C67.8574 67.6 68.6182 66.4696 68.6182 66H71.9998C72.0167 67.6174 71.0191 70.0696 66.2343 72Z" fill="white"/>
<path d="M50.0087 49C39.0737 49 28 46.0942 28 40.5087C28 34.9232 39.0737 32 50.0087 32C60.9437 32 72 34.9232 72 40.5087C72 46.0942 60.961 49 50.0087 49ZM50.0087 35.4974C38.0165 35.4974 31.4833 38.8035 31.4833 40.5087C31.4833 42.2139 38.0512 45.52 50.0087 45.52C61.9661 45.52 68.5167 42.2139 68.5167 40.5087C68.5167 38.8035 62.0181 35.4974 50.0087 35.4974V35.4974Z" fill="white"/>
<path d="M18.5211 58H15V52.8229C15 52.3394 15.1855 51.8758 15.5157 51.5339C15.8458 51.1921 16.2936 51 16.7606 51H25V54.6458H18.5211V58Z" fill="white"/>
<path d="M85.1873 60H75V56.281H83.3746V54.719H75V51H85.1873C85.6681 51 86.1291 51.1959 86.4691 51.5446C86.809 51.8934 87 52.3663 87 52.8595V58.1405C87 58.6337 86.809 59.1066 86.4691 59.4554C86.1291 59.8041 85.6681 60 85.1873 60Z" fill="white"/>
<path d="M90.25 60H75.445V56.4688H88.5V30.6559C87.0793 30.1671 85.8457 29.242 84.9723 28.0104C84.0988 26.7787 83.6291 25.3022 83.6291 23.7878C83.6291 22.2733 84.0988 20.7968 84.9723 19.5652C85.8457 18.3335 87.0793 17.4085 88.5 16.9196V16.5488H11.5V16.902C12.9734 17.3475 14.2603 18.2703 15.1618 19.5277C16.0633 20.7851 16.5292 22.3071 16.4875 23.8584C16.4984 25.3857 16.0183 26.8755 15.119 28.1042C14.2198 29.333 12.95 30.2345 11.5 30.6736V56.4688H24.59V60H9.75C9.28587 60 8.84075 59.814 8.51256 59.4829C8.18437 59.1518 8 58.7027 8 58.2344V29.1551C8 28.6869 8.18437 28.2378 8.51256 27.9067C8.84075 27.5756 9.28587 27.3896 9.75 27.3896C10.6289 27.3305 11.4506 26.9291 12.0416 26.2703C12.6326 25.6114 12.9467 24.7465 12.9175 23.8584C12.9508 23.4069 12.8951 22.9533 12.7536 22.5237C12.612 22.0941 12.3875 21.6971 12.093 21.3556C11.7984 21.0141 11.4397 20.7349 11.0375 20.5342C10.6354 20.3334 10.1978 20.215 9.75 20.186C9.28587 20.186 8.84075 19.9999 8.51256 19.6688C8.18437 19.3377 8 18.8886 8 18.4204V14.7656C8 14.2973 8.18437 13.8482 8.51256 13.5171C8.84075 13.186 9.28587 13 9.75 13H90.25C90.7141 13 91.1592 13.186 91.4874 13.5171C91.8156 13.8482 92 14.2973 92 14.7656V18.4204C92 18.8886 91.8156 19.3377 91.4874 19.6688C91.1592 19.9999 90.7141 20.186 90.25 20.186C89.3789 20.2538 88.5678 20.6595 87.9869 21.318C87.4061 21.9764 87.1007 22.8363 87.135 23.7171C87.0992 24.1649 87.1514 24.6154 87.2888 25.0427C87.4262 25.47 87.6459 25.8657 87.9354 26.207C88.2249 26.5483 88.5784 26.8285 88.9757 27.0315C89.3729 27.2344 89.806 27.3561 90.25 27.3896C90.7141 27.3896 91.1592 27.5756 91.4874 27.9067C91.8156 28.2378 92 28.6869 92 29.1551V58.2344C92 58.7027 91.8156 59.1518 91.4874 59.4829C91.1592 59.814 90.7141 60 90.25 60Z" fill="white"/>
<path d="M37.5088 31H34V21.6467C34 21.21 34.1848 20.7911 34.5138 20.4823C34.8429 20.1735 35.2891 20 35.7544 20H47.2456C47.7109 20 48.1571 20.1735 48.4862 20.4823C48.8152 20.7911 49 21.21 49 21.6467V29.4356H45.4912V23.2934H37.5088V31Z" fill="white"/>
<path d="M66 31H62.4953V23.2934H54.5047V29.4356H51V21.6467C51 21.21 51.1846 20.7911 51.5132 20.4823C51.8419 20.1735 52.2876 20 52.7523 20H64.2477C64.7124 20 65.1581 20.1735 65.4868 20.4823C65.8154 20.7911 66 21.21 66 21.6467V31Z" fill="white"/>
<path d="M80.2455 48H75.3157V44.5453H78.4912V23.4547H70.5088V33.1795H67V21.7273C67 21.2692 67.1848 20.8299 67.5138 20.5059C67.8429 20.182 68.2891 20 68.7544 20H80.2455C80.7108 20 81.1571 20.182 81.4861 20.5059C81.8151 20.8299 81.9999 21.2692 81.9999 21.7273V46.2554C82.0022 46.4837 81.9586 46.7102 81.8714 46.9217C81.7843 47.1333 81.6555 47.3258 81.4923 47.488C81.3292 47.6502 81.135 47.779 80.921 47.8669C80.707 47.9548 80.4774 48 80.2455 48Z" fill="white"/>
<path d="M24.6667 48H19.7544C19.2891 48 18.8429 47.818 18.5138 47.4941C18.1848 47.1701 18 46.7308 18 46.2727V21.7273C18 21.2692 18.1848 20.8299 18.5138 20.5059C18.8429 20.182 19.2891 20 19.7544 20H31.2456C31.7109 20 32.1571 20.182 32.4862 20.5059C32.8152 20.8299 33 21.2692 33 21.7273V33.1795H29.4912V23.4547H21.5088V44.5281H24.6667V48Z" fill="white"/>
<path d="M58.2529 77V59.7851L52.2397 71.2325H48.564L42.7471 59.8377V77H39V54H43.55L50.5089 67.7088L57.5927 54H62V77H58.2529Z" fill="white"/>
<defs>
<linearGradient id="paint0_linear_410_3765" x1="-20.7067" y1="120.707" x2="120.707" y2="-20.7067" gradientUnits="userSpaceOnUse">
<stop stop-color="#2E27AD"/>
<stop offset="1" stop-color="#527FFF"/>
</linearGradient>
</defs>
</svg>
