<svg viewBox="0 0 100 100" fill="none" xmlns="http://www.w3.org/2000/svg">
<path d="M50.0001 92.2999C37.4001 92.2999 24.6201 88.9399 24.6201 82.5399V39.3599H28.6201V82.5399C28.6201 84.5399 36.1601 88.2799 49.9801 88.2799C63.8001 88.2799 71.3601 84.4799 71.3601 82.5399V39.3599H75.3601V82.5399C75.4201 88.9399 62.6401 92.2999 50.0001 92.2999Z" fill="#3B48CC"/>
<path d="M37.5996 62.3798C29.2396 60.7198 24.6396 57.6598 24.6396 53.7598H28.6396C28.6396 54.6398 31.0197 56.9798 38.3997 58.4398L37.5996 62.3798Z" fill="#3B48CC"/>
<path d="M64.6997 61.8598L63.7197 57.9998C69.3197 56.5798 71.3997 54.6598 71.3997 53.7798H75.3997C75.3997 57.2398 71.5997 60.1198 64.6997 61.8598Z" fill="#3B48CC"/>
<path d="M49.9996 49.1201C37.3796 49.1201 24.5996 45.7801 24.5996 39.3601C24.5996 32.9401 37.3796 29.5801 49.9996 29.5801C62.6196 29.5801 75.3796 32.9401 75.3796 39.3601C75.3796 45.7801 62.6396 49.1201 49.9996 49.1201ZM49.9996 33.6001C36.1596 33.6001 28.6196 37.4001 28.6196 39.3601C28.6196 41.3201 36.1996 45.1201 49.9996 45.1201C63.7996 45.1201 71.3596 41.3201 71.3596 39.3601C71.3596 37.4001 63.8596 33.6001 49.9996 33.6001V33.6001Z" fill="#3B48CC"/>
<path d="M49.9996 92.3001C37.3796 92.3001 24.5996 88.9401 24.5996 82.5401V68.1401C24.5996 67.6097 24.8103 67.101 25.1854 66.7259C25.5605 66.3508 26.0692 66.1401 26.5996 66.1401C27.13 66.1401 27.6388 66.3508 28.0138 66.7259C28.3889 67.101 28.5996 67.6097 28.5996 68.1401C28.5996 69.0201 30.9996 71.3601 38.3596 72.8401L37.5596 76.8401C34.4262 76.3039 31.4004 75.2638 28.5996 73.7601V82.6001C28.5996 84.6001 36.1596 88.3401 49.9996 88.3401C63.8396 88.3401 71.3596 84.5401 71.3596 82.6001V73.6801C69.2603 74.8498 67.004 75.7119 64.6596 76.2401L63.6796 72.3601C69.2796 70.9401 71.3596 69.0201 71.3596 68.1401C71.3596 67.6097 71.5703 67.101 71.9454 66.7259C72.3205 66.3508 72.8292 66.1401 73.3596 66.1401C73.8901 66.1401 74.3988 66.3508 74.7738 66.7259C75.1489 67.101 75.3596 67.6097 75.3596 68.1401V82.5401C75.3996 88.9401 62.6396 92.3001 49.9996 92.3001Z" fill="#3B48CC"/>
<path d="M13.6797 58.4398H9.67969V52.8198C9.67969 52.2894 9.8904 51.7807 10.2655 51.4056C10.6405 51.0305 11.1493 50.8198 11.6797 50.8198H21.0397V54.8198H13.6797V58.4398Z" fill="#3B48CC"/>
<path d="M90.3201 60.4398H79.0801V56.4398H88.3201V54.8398H79.0801V50.8398H90.3201C90.8505 50.8398 91.3592 51.0506 91.7343 51.4256C92.1094 51.8007 92.3201 52.3094 92.3201 52.8398V58.4598C92.3148 58.9868 92.1018 59.4904 91.7273 59.8611C91.3528 60.2319 90.8471 60.4399 90.3201 60.4398Z" fill="#3B48CC"/>
<path d="M96 60.4402H79.08V56.4402H94V27.5402C92.3809 26.9989 90.9729 25.9622 89.9753 24.5768C88.9777 23.1914 88.4409 21.5274 88.4409 19.8202C88.4409 18.113 88.9777 16.449 89.9753 15.0636C90.9729 13.6782 92.3809 12.6415 94 12.1002V11.7202H6V12.0002C7.67377 12.5022 9.13713 13.5385 10.1664 14.9507C11.1957 16.3628 11.7344 18.0731 11.7 19.8202C11.7168 21.5537 11.1701 23.2458 10.1421 24.6417C9.11407 26.0376 7.66044 27.0619 6 27.5602V56.4202H20.96V60.4202H4C3.46957 60.4202 2.96086 60.2095 2.58579 59.8344C2.21071 59.4593 2 58.9506 2 58.4202V25.8402C2 25.3098 2.21071 24.8011 2.58579 24.426C2.96086 24.0509 3.46957 23.8402 4 23.8402C5.00998 23.7884 5.95822 23.3383 6.63681 22.5885C7.31541 21.8386 7.66898 20.8503 7.62 19.8402C7.67455 18.8247 7.32406 17.829 6.6454 17.0716C5.96675 16.3143 5.01537 15.857 4 15.8002C3.46957 15.8002 2.96086 15.5895 2.58579 15.2144C2.21071 14.8393 2 14.3306 2 13.8002V9.7002C2 9.16976 2.21071 8.66105 2.58579 8.28598C2.96086 7.91091 3.46957 7.7002 4 7.7002H96C96.5304 7.7002 97.0391 7.91091 97.4142 8.28598C97.7893 8.66105 98 9.16976 98 9.7002V13.8002C98 14.3306 97.7893 14.8393 97.4142 15.2144C97.0391 15.5895 96.5304 15.8002 96 15.8002C95.0009 15.8721 94.0689 16.3296 93.4008 17.076C92.7328 17.8224 92.3811 18.7993 92.42 19.8002C92.376 20.8024 92.7259 21.7821 93.3949 22.5297C94.064 23.2772 94.999 23.7332 96 23.8002C96.5304 23.8002 97.0391 24.0109 97.4142 24.386C97.7893 24.7611 98 25.2698 98 25.8002V58.4002C98.0053 58.6662 97.9575 58.9306 97.8594 59.1779C97.7613 59.4251 97.6148 59.6504 97.4285 59.8403C97.2423 60.0303 97.02 60.1812 96.7747 60.2842C96.5294 60.3872 96.266 60.4402 96 60.4402Z" fill="#3B48CC"/>
<path d="M36.1396 28.6398H32.1396V17.2798C32.1396 16.7494 32.3504 16.2406 32.7254 15.8656C33.1005 15.4905 33.6092 15.2798 34.1396 15.2798H47.2397C47.7701 15.2798 48.2788 15.4905 48.6539 15.8656C49.0289 16.2406 49.2397 16.7494 49.2397 17.2798V26.7398H45.2397V19.2798H36.1396V28.6398Z" fill="#3B48CC"/>
<path d="M67.9999 28.6398H63.9999V19.2798H54.8799V26.7398H50.8799V17.2798C50.8799 16.7494 51.0906 16.2406 51.4657 15.8656C51.8407 15.4905 52.3494 15.2798 52.8799 15.2798H65.9999C66.5303 15.2798 67.039 15.4905 67.4141 15.8656C67.7892 16.2406 67.9999 16.7494 67.9999 17.2798V28.6398Z" fill="#3B48CC"/>
<path d="M84.6996 47.3198H79.0796V43.3198H82.6996V19.3198H73.5996V30.3998H69.5996V17.2798C69.5996 16.7494 69.8103 16.2406 70.1854 15.8656C70.5605 15.4905 71.0692 15.2798 71.5996 15.2798H84.6996C85.23 15.2798 85.7387 15.4905 86.1138 15.8656C86.4889 16.2406 86.6996 16.7494 86.6996 17.2798V45.2798C86.7049 45.5458 86.6571 45.8102 86.559 46.0574C86.4609 46.3047 86.3144 46.53 86.1282 46.7199C85.9419 46.9099 85.7196 47.0608 85.4743 47.1638C85.229 47.2668 84.9656 47.3198 84.6996 47.3198Z" fill="#3B48CC"/>
<path d="M21.0199 47.3198H15.4199C14.8895 47.3198 14.3808 47.1091 14.0057 46.734C13.6306 46.359 13.4199 45.8503 13.4199 45.3198V17.3198C13.4199 16.7894 13.6306 16.2807 14.0057 15.9056C14.3808 15.5305 14.8895 15.3198 15.4199 15.3198H28.5199C29.0504 15.3198 29.5591 15.5305 29.9341 15.9056C30.3092 16.2807 30.5199 16.7894 30.5199 17.3198V30.3998H26.5199V19.2798H17.4199V43.2798H21.0199V47.3198Z" fill="#3B48CC"/>
<path d="M41.5596 81.1801V54.9401H51.2596C53.4996 54.8283 55.6972 55.5799 57.3996 57.0401C58.1659 57.7638 58.7678 58.6437 59.1646 59.6202C59.5614 60.5967 59.7438 61.647 59.6996 62.7001C59.7382 64.2792 59.2838 65.8312 58.3996 67.1401C57.4627 68.4502 56.1522 69.447 54.6396 70.0001L61.3396 81.2001H56.7796L50.7796 70.8001H46.1396V81.2001L41.5596 81.1801ZM46.1396 67.1801H50.6796C51.2716 67.2634 51.8748 67.208 52.4418 67.0183C53.0087 66.8287 53.5239 66.5099 53.9466 66.0872C54.3694 65.6644 54.6881 65.1493 54.8778 64.5823C55.0675 64.0154 55.1228 63.4121 55.0396 62.8201C55.1314 62.2371 55.0862 61.6408 54.9075 61.0783C54.7288 60.5158 54.4215 60.0027 54.0101 59.5796C53.5986 59.1565 53.0943 58.8351 52.537 58.6407C51.9798 58.4464 51.3849 58.3846 50.7996 58.4601H46.1396V67.1801Z" fill="#3B48CC"/>
</svg>
