
<svg viewBox="0 0 17 17" fill="none" xmlns="http://www.w3.org/2000/svg">
<path fill-rule="evenodd" clip-rule="evenodd" d="M10.9653 4.71462L8.15194 3.04128C7.73849 2.78194 7.44024 2.37393 7.3186 1.90128C7.3186 1.90128 7.42527 1.68795 7.57194 1.76795C7.7186 1.84795 9.90527 3.14128 11.0719 3.83462C11.4919 4.08128 11.2319 5.16795 11.2319 5.16795C11.2325 5.07536 11.208 4.98434 11.1611 4.90454C11.1141 4.82473 11.0465 4.75911 10.9653 4.71462Z" fill="#669DF6"/>
<path fill-rule="evenodd" clip-rule="evenodd" d="M11.8121 8.87458C11.8164 8.91753 11.8087 8.96083 11.7899 8.99967C11.7711 9.03851 11.7418 9.07137 11.7054 9.09458L11.0388 9.54792V4.24792C11.0388 4.06792 11.1521 3.87458 10.9988 3.78125L11.6121 4.23458C11.686 4.27956 11.7466 4.34341 11.7876 4.41958C11.8286 4.49575 11.8486 4.58147 11.8454 4.66792L11.8121 8.87458Z" fill="#AECBFA"/>
<path fill-rule="evenodd" clip-rule="evenodd" d="M8.15191 9.4812C8.10449 9.48134 8.0581 9.46742 8.01858 9.4412L5.71191 8.06787V8.66787L8.15191 10.1212L8.34525 9.7412C8.34525 9.7412 8.19858 9.4812 8.15191 9.4812Z" fill="#669DF6"/>
<path fill-rule="evenodd" clip-rule="evenodd" d="M8.28525 10.6814C8.24578 10.7078 8.19938 10.7219 8.15191 10.7219C8.10445 10.7219 8.05805 10.7078 8.01858 10.6814L5.71191 9.30811V9.74811C5.71207 9.79444 5.72373 9.84002 5.74583 9.88074C5.76794 9.92146 5.79981 9.95606 5.83858 9.98144L8.02525 11.3148C8.06353 11.3377 8.1073 11.3498 8.15191 11.3498C8.19652 11.3498 8.2403 11.3377 8.27858 11.3148C8.33898 11.206 8.38386 11.0893 8.41191 10.9681L8.28525 10.7081V10.6814Z" fill="#669DF6"/>
<path fill-rule="evenodd" clip-rule="evenodd" d="M8.15191 8.90141L10.5919 7.44808V7.16141C10.5925 7.11584 10.5811 7.07092 10.5589 7.03114C10.5367 6.99135 10.5044 6.95811 10.4652 6.93475L8.27858 5.60141C8.2403 5.5785 8.19652 5.56641 8.15191 5.56641C8.1073 5.56641 8.06353 5.5785 8.02525 5.60141L5.83858 6.93475C5.80033 6.95906 5.76872 6.99251 5.74661 7.03208C5.7245 7.07165 5.71258 7.11609 5.71191 7.16141V7.44808L8.15191 8.90141Z" fill="#AECBFA"/>
<path fill-rule="evenodd" clip-rule="evenodd" d="M8.15191 8.30124L5.83858 6.93457C5.80033 6.95889 5.76872 6.99233 5.74661 7.0319C5.7245 7.07147 5.71258 7.11592 5.71191 7.16124V7.4479L8.15191 8.90124L8.33858 8.5279L8.15191 8.30124Z" fill="#669DF6"/>
<path fill-rule="evenodd" clip-rule="evenodd" d="M8.1521 9.48139V10.1481L10.5921 8.69473V8.09473L8.28543 9.44139C8.24343 9.46182 8.19841 9.47533 8.1521 9.48139Z" fill="#4285F4"/>
<path fill-rule="evenodd" clip-rule="evenodd" d="M8.28543 10.6812C8.24592 10.7075 8.19952 10.7214 8.1521 10.7212C8.1521 10.9079 8.1521 11.3213 8.1521 11.3213C8.20064 11.3205 8.24842 11.3091 8.2921 11.2879L10.4788 9.95458C10.5189 9.93066 10.5518 9.89636 10.5741 9.8553C10.5964 9.81424 10.6072 9.76794 10.6054 9.72125V9.28125L8.28543 10.6812Z" fill="#4285F4"/>
<path fill-rule="evenodd" clip-rule="evenodd" d="M10.4654 6.93457L8.1521 8.30124V8.90124L10.5921 7.4479V7.16124C10.5927 7.11567 10.5813 7.07074 10.5591 7.03096C10.5369 6.99118 10.5046 6.95794 10.4654 6.93457Z" fill="#4285F4"/>
<path fill-rule="evenodd" clip-rule="evenodd" d="M5.33863 12.1011L8.10529 13.7478C8.32354 13.877 8.51226 14.0506 8.65925 14.2573C8.80623 14.464 8.90822 14.6992 8.95863 14.9478C8.9629 14.9712 8.96012 14.9953 8.95066 15.0171C8.9412 15.0389 8.92547 15.0574 8.90547 15.0703C8.88547 15.0832 8.86211 15.0898 8.83834 15.0893C8.81457 15.0889 8.79146 15.0814 8.77196 15.0678L5.13863 12.9145C4.78529 12.7011 5.09196 11.6611 5.09196 11.6611C5.09173 11.7495 5.11431 11.8364 5.15752 11.9135C5.20073 11.9906 5.26312 12.0552 5.33863 12.1011Z" fill="#669DF6"/>
<path fill-rule="evenodd" clip-rule="evenodd" d="M4.49194 12.2347V7.86138C4.49369 7.8172 4.50612 7.7741 4.52819 7.73578C4.55025 7.69747 4.58128 7.66507 4.61861 7.64138L5.28528 7.24805V12.5214C5.28528 12.7014 5.28528 12.9814 5.42528 13.0747L4.71861 12.6347C4.65158 12.591 4.59602 12.5319 4.55657 12.4623C4.51713 12.3927 4.49497 12.3147 4.49194 12.2347Z" fill="#AECBFA"/>
<path fill-rule="evenodd" clip-rule="evenodd" d="M6.92534 4.05464C6.85013 4.01199 6.76514 3.98956 6.67867 3.98956C6.59221 3.98956 6.50722 4.01199 6.43201 4.05464L3.63201 5.74798C3.4251 5.87039 3.19524 5.94895 2.95669 5.97876C2.71814 6.00858 2.47601 5.98903 2.24534 5.92131C2.22177 5.90793 2.20218 5.88854 2.18854 5.86511C2.17491 5.84169 2.16772 5.81508 2.16772 5.78798C2.16772 5.76087 2.17491 5.73426 2.18854 5.71084C2.20218 5.68741 2.22177 5.66803 2.24534 5.65464C2.36534 5.59464 6.45867 3.16131 6.45867 3.16131C6.61201 3.06798 6.95201 4.08798 6.95201 4.08798L6.92534 4.05464Z" fill="#669DF6"/>
<path fill-rule="evenodd" clip-rule="evenodd" d="M6.91869 3.13455L10.4654 5.23455C10.5037 5.25432 10.5362 5.28381 10.5596 5.32008C10.583 5.35635 10.5965 5.39812 10.5987 5.44122V6.22788L6.15202 3.58788C6.07681 3.54523 5.99182 3.5228 5.90536 3.5228C5.81889 3.5228 5.7339 3.54523 5.65869 3.58788L6.44536 3.12788C6.51888 3.08382 6.60298 3.06055 6.68869 3.06055C6.7744 3.06055 6.85851 3.08382 6.93202 3.12788L6.91869 3.13455Z" fill="#AECBFA"/>
<path fill-rule="evenodd" clip-rule="evenodd" d="M9.36546 12.7414C9.44023 12.7854 9.52539 12.8086 9.61213 12.8086C9.69886 12.8086 9.78402 12.7854 9.85879 12.7414L12.6588 11.0814C12.8679 10.9583 13.1003 10.8799 13.3413 10.8512C13.5823 10.8225 13.8266 10.8441 14.0588 10.9147C14.0828 10.9261 14.1031 10.944 14.1174 10.9664C14.1316 10.9888 14.1392 11.0149 14.1392 11.0414C14.1392 11.068 14.1316 11.094 14.1174 11.1164C14.1031 11.1388 14.0828 11.1568 14.0588 11.1681L9.83879 13.6681C9.69213 13.7614 9.34546 12.7347 9.34546 12.7347L9.36546 12.7414Z" fill="#669DF6"/>
<path fill-rule="evenodd" clip-rule="evenodd" d="M5.82525 11.5812C5.76356 11.5229 5.72358 11.4453 5.71191 11.3612V10.5879L10.1519 13.2079C10.2249 13.2534 10.3092 13.2775 10.3952 13.2775C10.4813 13.2775 10.5656 13.2534 10.6386 13.2079L9.85191 13.6746C9.77789 13.7206 9.69244 13.7451 9.60525 13.7451C9.51805 13.7451 9.4326 13.7206 9.35858 13.6746L5.82525 11.5812Z" fill="#AECBFA"/>
<path fill-rule="evenodd" clip-rule="evenodd" d="M4.32525 6.95484C4.25026 6.99968 4.18814 7.06314 4.14492 7.13907C4.1017 7.215 4.07885 7.30081 4.07858 7.38818V10.7215C4.07795 10.9716 4.02616 11.2188 3.92642 11.4481C3.82667 11.6774 3.68108 11.8839 3.49858 12.0548C3.48149 12.0701 3.46038 12.0802 3.43774 12.0839C3.4151 12.0876 3.39188 12.0847 3.37084 12.0755C3.3498 12.0664 3.33181 12.0515 3.319 12.0324C3.30619 12.0134 3.29911 11.9911 3.29858 11.9682V6.92818C3.29858 6.74151 4.32525 6.92818 4.32525 6.92818V6.95484Z" fill="#669DF6"/>
<path fill-rule="evenodd" clip-rule="evenodd" d="M6.66532 4.76142C6.70131 4.73896 6.74289 4.72705 6.78532 4.72705C6.82775 4.72705 6.86932 4.73896 6.90532 4.76142L7.57199 5.15475L3.51865 7.52809C3.44314 7.57399 3.38076 7.63862 3.33755 7.7157C3.29433 7.79278 3.27175 7.87972 3.27199 7.96809V7.04142C3.27134 6.95397 3.2946 6.86801 3.33924 6.79281C3.38389 6.71762 3.44823 6.65605 3.52532 6.61476L6.66532 4.76142Z" fill="#AECBFA"/>
<path fill-rule="evenodd" clip-rule="evenodd" d="M12.2654 9.37464V6.04131C12.2657 5.79304 12.3154 5.54732 12.4116 5.31842C12.5077 5.08953 12.6484 4.88202 12.8254 4.70797C12.8254 4.70797 13.0454 4.63464 13.0321 4.84797C13.0187 5.06131 13.0321 9.76131 13.0321 9.76131C12.8254 10.008 11.9587 9.76131 11.9587 9.76131C12.0369 9.72586 12.1055 9.6723 12.1588 9.60505C12.2122 9.53781 12.2487 9.45882 12.2654 9.37464Z" fill="#669DF6"/>
<path fill-rule="evenodd" clip-rule="evenodd" d="M12.8187 10.1548L9.65869 12.0548C9.62168 12.0778 9.57896 12.09 9.53536 12.09C9.49176 12.09 9.44904 12.0778 9.41203 12.0548L8.74536 11.6748L12.8187 9.22809C12.8942 9.18218 12.9566 9.11756 12.9998 9.04047C13.043 8.96339 13.0656 8.87646 13.0654 8.78809V9.74809C13.052 9.90142 12.8187 10.1548 12.8187 10.1548Z" fill="#AECBFA"/>
</svg>
