<svg viewBox="0 0 16 17" fill="none" xmlns="http://www.w3.org/2000/svg">
<path d="M10.2002 8.36063C10.2002 8.54063 10.2002 8.72063 10.2002 8.91396C10.2002 9.10729 10.2002 9.28729 10.2002 9.46729H13.2002V8.36063H10.2002Z" fill="#4285F4"/>
<path d="M6.57366 4.84061H4.66699V5.95394H7.28699C7.0867 5.56011 6.84774 5.18716 6.57366 4.84061Z" fill="#4285F4"/>
<path d="M7.33405 11.874H5.06738V12.9873H6.59405C6.87502 12.6402 7.12278 12.2674 7.33405 11.874Z" fill="#4285F4"/>
<path d="M8 8.91396C8.01028 8.72966 8.01028 8.54493 8 8.36063H3V9.46729H8C8.01028 9.28299 8.01028 9.09826 8 8.91396Z" fill="#4285F4"/>
<path d="M2.44715 9.23395C2.38359 9.23528 2.32108 9.21764 2.26759 9.18329C2.21409 9.14895 2.17204 9.09944 2.1468 9.0411C2.12155 8.98276 2.11426 8.91822 2.12584 8.85571C2.13742 8.7932 2.16736 8.73556 2.21184 8.69014C2.25631 8.64472 2.31331 8.61357 2.37556 8.60068C2.43781 8.58778 2.50249 8.59371 2.56135 8.61773C2.62021 8.64174 2.67059 8.68274 2.70605 8.7355C2.74152 8.78825 2.76047 8.85038 2.76048 8.91395C2.7605 8.99768 2.7277 9.07808 2.66913 9.1379C2.61055 9.19772 2.53086 9.23221 2.44715 9.23395ZM2.44715 7.80062C2.22667 7.7993 2.01077 7.86347 1.82681 7.985C1.64285 8.10653 1.49911 8.27994 1.41382 8.48326C1.32853 8.68657 1.30553 8.91063 1.34773 9.12704C1.38994 9.34344 1.49544 9.54244 1.65088 9.69881C1.80631 9.85518 2.00467 9.96188 2.22082 10.0054C2.43696 10.0489 2.66116 10.0272 2.86498 9.94316C3.06881 9.85909 3.24308 9.7164 3.36571 9.53317C3.48834 9.34995 3.55381 9.13443 3.55382 8.91395C3.55382 8.61983 3.43744 8.33765 3.23009 8.12905C3.02274 7.92045 2.74127 7.80238 2.44715 7.80062Z" fill="#669DF6"/>
<path d="M4.11412 12.7473C4.05056 12.7486 3.98805 12.731 3.93456 12.6966C3.88107 12.6623 3.83901 12.6128 3.81377 12.5544C3.78852 12.4961 3.78123 12.4315 3.79281 12.369C3.8044 12.3065 3.83434 12.2489 3.87881 12.2035C3.92329 12.158 3.98028 12.1269 4.04253 12.114C4.10478 12.1011 4.16946 12.107 4.22832 12.131C4.28719 12.1551 4.33756 12.1961 4.37303 12.2488C4.40849 12.3016 4.42744 12.3637 4.42745 12.4273C4.42834 12.469 4.42089 12.5104 4.40554 12.5492C4.3902 12.588 4.36726 12.6234 4.33807 12.6532C4.30889 12.683 4.27405 12.7066 4.23559 12.7228C4.19713 12.739 4.15584 12.7473 4.11412 12.7473ZM4.11412 11.3206C3.89336 11.3193 3.6772 11.3836 3.49309 11.5055C3.30899 11.6273 3.16526 11.8011 3.08017 12.0048C2.99507 12.2085 2.97247 12.4329 3.01521 12.6495C3.05796 12.8661 3.16413 13.0651 3.32023 13.2212C3.47633 13.3773 3.67532 13.4834 3.8919 13.5262C4.10849 13.5689 4.33289 13.5463 4.5366 13.4612C4.7403 13.3761 4.91411 13.2324 5.03594 13.0483C5.15776 12.8642 5.22211 12.648 5.22079 12.4273C5.21904 12.1343 5.10188 11.8538 4.89472 11.6467C4.68756 11.4395 4.40709 11.3224 4.11412 11.3206Z" fill="#669DF6"/>
<path d="M4.11348 5.71394C4.04965 5.71525 3.98687 5.69744 3.93324 5.66279C3.87961 5.62814 3.83756 5.57824 3.81252 5.5195C3.78748 5.46077 3.78058 5.39588 3.79272 5.33319C3.80485 5.27051 3.83546 5.21288 3.88061 5.16773C3.92576 5.12258 3.98339 5.09197 4.04608 5.07983C4.10876 5.0677 4.17365 5.0746 4.23239 5.09964C4.29112 5.12468 4.34102 5.16672 4.37567 5.22036C4.41032 5.27399 4.42813 5.33676 4.42682 5.4006C4.42682 5.4837 4.39381 5.5634 4.33504 5.62216C4.27628 5.68092 4.19658 5.71394 4.11348 5.71394ZM4.11348 4.28727C3.96048 4.2754 3.80668 4.2953 3.66174 4.3457C3.51679 4.3961 3.38383 4.47592 3.2712 4.58015C3.15857 4.68439 3.0687 4.81078 3.00725 4.95139C2.94579 5.09201 2.91406 5.24381 2.91406 5.39727C2.91406 5.55073 2.94579 5.70253 3.00725 5.84315C3.0687 5.98376 3.15857 6.11015 3.2712 6.21438C3.38383 6.31862 3.51679 6.39844 3.66174 6.44884C3.80668 6.49924 3.96048 6.51914 4.11348 6.50727C4.39302 6.48559 4.65408 6.35924 4.84451 6.15347C5.03495 5.94769 5.14073 5.67764 5.14073 5.39727C5.14073 5.1169 5.03495 4.84685 4.84451 4.64107C4.65408 4.4353 4.39302 4.30895 4.11348 4.28727Z" fill="#669DF6"/>
<path d="M12.4473 10.5806V7.24728L14.6673 8.91395L12.4473 10.5806Z" fill="#4285F4"/>
<path d="M6.33391 15.5806L5.76057 14.5806C6.62896 13.913 7.33242 13.0549 7.81672 12.0724C8.30103 11.0899 8.55324 10.0093 8.55391 8.91395C8.54455 7.81944 8.28783 6.74121 7.80296 5.75991C7.31808 4.77861 6.6176 3.91966 5.75391 3.24728L6.33391 2.24728C7.36773 3.02458 8.20692 4.03134 8.78536 5.18822C9.3638 6.34511 9.66569 7.62051 9.66724 8.91395C9.66932 10.208 9.36902 11.4847 8.79029 12.6421C8.21156 13.7996 7.37041 14.8058 6.33391 15.5806Z" fill="#4285F4"/>
</svg>
