<svg viewBox="0 0 16 17" fill="none" xmlns="http://www.w3.org/2000/svg">
<path d="M5.25966 2.92287C4.83289 2.93039 4.44206 3.16347 4.23258 3.53536L1.49201 8.28735C1.28001 8.6563 1.28001 9.11008 1.49201 9.479L4.23155 14.2706C4.43888 14.6477 4.82865 14.8884 5.25859 14.905H10.7387C11.1687 14.8902 11.5592 14.6505 11.7668 14.2738L14.5064 9.50923C14.6131 9.32182 14.6665 9.11317 14.6665 8.90456C14.6665 8.69594 14.6131 8.48729 14.5064 8.29985L11.7668 3.53536C11.5572 3.16362 11.1665 2.9306 10.7398 2.92287L5.25966 2.92287Z" fill="#4285F4"/>
<path d="M7.25593 9.46217H6.1161C6.08407 9.46217 6.05334 9.47489 6.03069 9.49755C6.00803 9.5202 5.99531 9.55093 5.99531 9.58296V10.7228C5.99531 10.7548 6.00803 10.7855 6.03069 10.8082C6.05334 10.8309 6.08407 10.8436 6.1161 10.8436H7.25283C7.28487 10.8436 7.31559 10.8309 7.33824 10.8082C7.3609 10.7855 7.37363 10.7548 7.37363 10.7228V9.58296C7.37363 9.55093 7.3609 9.5202 7.33824 9.49755C7.31559 9.47489 7.28487 9.46217 7.25283 9.46217" fill="white"/>
<path d="M9.05633 9.37234C9.08508 9.37234 9.11265 9.36092 9.13298 9.34059C9.15331 9.32026 9.16473 9.29268 9.16473 9.26393V9.08738C9.16473 9.05863 9.15331 9.03106 9.13298 9.01073C9.11265 8.9904 9.08508 8.97898 9.05633 8.97898H8.5019V8.46172C8.5019 8.42968 8.48918 8.39896 8.46652 8.3763C8.44387 8.35365 8.41314 8.34092 8.38111 8.34092H7.86385V7.7834C7.86385 7.75465 7.85243 7.72708 7.8321 7.70675C7.81177 7.68642 7.78419 7.675 7.75544 7.675H7.5758C7.54705 7.675 7.51947 7.68642 7.49914 7.70675C7.47881 7.72708 7.46739 7.75465 7.46739 7.7834V8.33783H6.88199V7.7834C6.882 7.75518 6.87101 7.72807 6.85134 7.70782C6.83168 7.68758 6.80489 7.6758 6.77668 7.675H6.59704C6.56828 7.675 6.54071 7.68642 6.52038 7.70675C6.50005 7.72708 6.48863 7.75465 6.48863 7.7834V8.33783H5.90633V7.7834C5.90633 7.75465 5.89491 7.72708 5.87458 7.70675C5.85425 7.68642 5.82667 7.675 5.79792 7.675H5.61828C5.58952 7.675 5.56195 7.68642 5.54162 7.70675C5.52129 7.72708 5.50987 7.75465 5.50987 7.7834V8.33783H4.99261C4.96058 8.33783 4.92985 8.35055 4.9072 8.37321C4.88454 8.39586 4.87182 8.42659 4.87182 8.45862V8.97588H4.31739C4.28864 8.97588 4.26107 8.9873 4.24074 9.00763C4.22041 9.02796 4.20898 9.05554 4.20898 9.08429V9.26393C4.20898 9.29268 4.22041 9.32026 4.24074 9.34059C4.26107 9.36092 4.28864 9.37234 4.31739 9.37234H4.87182V9.95464H4.31739C4.28864 9.95464 4.26107 9.96606 4.24074 9.98639C4.22041 10.0067 4.20898 10.0343 4.20898 10.063V10.2427C4.20898 10.2714 4.22041 10.299 4.24074 10.3193C4.26107 10.3397 4.28864 10.3511 4.31739 10.3511H4.87182V10.9365H4.31739C4.28864 10.9365 4.26107 10.9479 4.24074 10.9682C4.22041 10.9886 4.20898 11.0162 4.20898 11.0449V11.2215C4.20898 11.2502 4.22041 11.2778 4.24074 11.2981C4.26107 11.3184 4.28864 11.3299 4.31739 11.3299H4.87182V11.8471C4.87182 11.8792 4.88454 11.9099 4.9072 11.9325C4.92985 11.9552 4.96058 11.9679 4.99261 11.9679H5.50987V12.5223C5.50987 12.5511 5.52129 12.5787 5.54162 12.599C5.56195 12.6193 5.58952 12.6307 5.61828 12.6307H5.79792C5.82667 12.6307 5.85425 12.6193 5.87458 12.599C5.89491 12.5787 5.90633 12.5511 5.90633 12.5223V11.9679H6.48863V12.5223C6.48863 12.5511 6.50005 12.5787 6.52038 12.599C6.54071 12.6193 6.56828 12.6307 6.59704 12.6307H6.77668C6.80543 12.6307 6.83301 12.6193 6.85334 12.599C6.87367 12.5787 6.88509 12.5511 6.88509 12.5223V11.9679H7.47049V12.5223C7.47049 12.5511 7.48191 12.5787 7.50224 12.599C7.52257 12.6193 7.55014 12.6307 7.57889 12.6307H7.75544C7.78419 12.6307 7.81177 12.6193 7.8321 12.599C7.85243 12.5787 7.86385 12.5511 7.86385 12.5223V11.9679H8.3842C8.41624 11.9679 8.44697 11.9552 8.46962 11.9325C8.49227 11.9099 8.505 11.8792 8.505 11.8471V11.3299H9.05942C9.08764 11.3291 9.11442 11.3173 9.13409 11.297C9.15375 11.2768 9.16475 11.2497 9.16473 11.2215V11.0449C9.16473 11.0162 9.15331 10.9886 9.13298 10.9682C9.11265 10.9479 9.08508 10.9365 9.05633 10.9365H8.5019V10.3511H9.05633C9.08508 10.3511 9.11265 10.3397 9.13298 10.3193C9.15331 10.299 9.16473 10.2714 9.16473 10.2427V10.063C9.16473 10.0343 9.15331 10.0067 9.13298 9.98639C9.11265 9.96606 9.08508 9.95464 9.05633 9.95464H8.5019V9.37234H9.05633ZM8.09305 11.5622H5.27757V8.74668H8.09305V11.5622Z" fill="white"/>
<path fill-rule="evenodd" clip-rule="evenodd" d="M8.09305 11.5622H5.27757V8.74668H8.09305V11.5622ZM6.1161 9.46217H7.25283C7.28487 9.46217 7.31559 9.47489 7.33824 9.49755C7.3609 9.5202 7.37363 9.55093 7.37363 9.58296V10.7228C7.37363 10.7548 7.3609 10.7855 7.33824 10.8082C7.31559 10.8309 7.28487 10.8436 7.25283 10.8436H6.1161C6.08407 10.8436 6.05334 10.8309 6.03069 10.8082C6.00803 10.7855 5.99531 10.7548 5.99531 10.7228V9.58296C5.99531 9.55093 6.00803 9.5202 6.03069 9.49755C6.05334 9.47489 6.08407 9.46217 6.1161 9.46217Z" fill="#4285F4"/>
<path d="M9.88093 6.98429H8.7411C8.70907 6.98429 8.67834 6.99702 8.65569 7.01967C8.63303 7.04233 8.62031 7.07305 8.62031 7.10509V8.24491C8.62031 8.27695 8.63303 8.30767 8.65569 8.33033C8.67834 8.35298 8.70907 8.36571 8.7411 8.36571H9.87783C9.90987 8.36571 9.94059 8.35298 9.96324 8.33033C9.9859 8.30767 9.99863 8.27695 9.99863 8.24491V7.10509C9.99863 7.07305 9.9859 7.04233 9.96324 7.01967C9.94059 6.99702 9.90987 6.98429 9.87783 6.98429" fill="white"/>
<path d="M11.6813 6.89446C11.7101 6.89446 11.7377 6.88304 11.758 6.86271C11.7783 6.84238 11.7897 6.81481 11.7897 6.78606V6.60951C11.7897 6.58076 11.7783 6.55318 11.758 6.53285C11.7377 6.51252 11.7101 6.5011 11.6813 6.5011H11.1269V5.98385C11.1269 5.95181 11.1142 5.92108 11.0915 5.89843C11.0689 5.87578 11.0381 5.86305 11.0061 5.86305H10.4888V5.30553C10.4888 5.27678 10.4774 5.2492 10.4571 5.22887C10.4368 5.20854 10.4092 5.19712 10.3804 5.19712H10.2008C10.172 5.19712 10.1445 5.20854 10.1241 5.22887C10.1038 5.2492 10.0924 5.27678 10.0924 5.30553V5.85995H9.50699V5.30553C9.507 5.27731 9.49601 5.25019 9.47634 5.22995C9.45668 5.2097 9.42989 5.19793 9.40168 5.19712H9.22204C9.19328 5.19712 9.16571 5.20854 9.14538 5.22887C9.12505 5.2492 9.11363 5.27678 9.11363 5.30553V5.85995H8.53133V5.30553C8.53133 5.27678 8.51991 5.2492 8.49958 5.22887C8.47925 5.20854 8.45167 5.19712 8.42292 5.19712H8.24328C8.21452 5.19712 8.18695 5.20854 8.16662 5.22887C8.14629 5.2492 8.13487 5.27678 8.13487 5.30553V5.85995H7.61761C7.58558 5.85995 7.55485 5.87268 7.5322 5.89533C7.50954 5.91799 7.49682 5.94871 7.49682 5.98075V6.498H6.94239C6.91364 6.498 6.88607 6.50943 6.86574 6.52976C6.84541 6.55009 6.83398 6.57766 6.83398 6.60641V6.78606C6.83398 6.81481 6.84541 6.84238 6.86574 6.86271C6.88607 6.88304 6.91364 6.89446 6.94239 6.89446H7.49682V7.47677H6.94239C6.91364 7.47677 6.88607 7.48819 6.86574 7.50852C6.84541 7.52885 6.83398 7.55642 6.83398 7.58517V7.76482C6.83398 7.79357 6.84541 7.82114 6.86574 7.84147C6.88607 7.8618 6.91364 7.87323 6.94239 7.87323H7.49682V8.45862H6.94239C6.91364 8.45862 6.88607 8.47004 6.86574 8.49038C6.84541 8.51071 6.83398 8.53828 6.83398 8.56703V8.74358C6.83398 8.77233 6.84541 8.7999 6.86574 8.82023C6.88607 8.84056 6.91364 8.85199 6.94239 8.85199H7.49682V9.36924C7.49682 9.40128 7.50954 9.432 7.5322 9.45466C7.55485 9.47731 7.58558 9.49004 7.61761 9.49004H8.13487V10.0445C8.13487 10.0732 8.14629 10.1008 8.16662 10.1211C8.18695 10.1414 8.21452 10.1529 8.24328 10.1529H8.42292C8.45167 10.1529 8.47925 10.1414 8.49958 10.1211C8.51991 10.1008 8.53133 10.0732 8.53133 10.0445V9.49004H9.11363V10.0445C9.11363 10.0732 9.12505 10.1008 9.14538 10.1211C9.16571 10.1414 9.19328 10.1529 9.22204 10.1529H9.40168C9.43043 10.1529 9.45801 10.1414 9.47834 10.1211C9.49867 10.1008 9.51009 10.0732 9.51009 10.0445V9.49004H10.0955V10.0445C10.0955 10.0732 10.1069 10.1008 10.1272 10.1211C10.1476 10.1414 10.1751 10.1529 10.2039 10.1529H10.3804C10.4092 10.1529 10.4368 10.1414 10.4571 10.1211C10.4774 10.1008 10.4888 10.0732 10.4888 10.0445V9.49004H11.0092C11.0412 9.49004 11.072 9.47731 11.0946 9.45466C11.1173 9.432 11.13 9.40128 11.13 9.36924V8.85199H11.6844C11.7126 8.85118 11.7394 8.8394 11.7591 8.81916C11.7788 8.79892 11.7897 8.7718 11.7897 8.74358V8.56703C11.7897 8.53828 11.7783 8.51071 11.758 8.49038C11.7377 8.47004 11.7101 8.45862 11.6813 8.45862H11.1269V7.87323H11.6813C11.7101 7.87323 11.7377 7.8618 11.758 7.84147C11.7783 7.82114 11.7897 7.79357 11.7897 7.76482V7.58517C11.7897 7.55642 11.7783 7.52885 11.758 7.50852C11.7377 7.48819 11.7101 7.47677 11.6813 7.47677H11.1269V6.89446H11.6813ZM10.7181 9.08429H7.90257V6.2688H10.7181V9.08429Z" fill="white"/>
<path fill-rule="evenodd" clip-rule="evenodd" d="M10.7181 9.08429H7.90257V6.2688H10.7181V9.08429ZM8.7411 6.98429H9.87783C9.90987 6.98429 9.94059 6.99702 9.96324 7.01967C9.9859 7.04233 9.99863 7.07305 9.99863 7.10509V8.24491C9.99863 8.27695 9.9859 8.30767 9.96324 8.33033C9.94059 8.35298 9.90987 8.36571 9.87783 8.36571H8.7411C8.70907 8.36571 8.67834 8.35298 8.65569 8.33033C8.63303 8.30767 8.62031 8.27695 8.62031 8.24491V7.10509C8.62031 7.07305 8.63303 7.04233 8.65569 7.01967C8.67834 6.99702 8.70907 6.98429 8.7411 6.98429Z" fill="#4285F4"/>
</svg>
