
<svg viewBox="0 0 16 16" fill="none" xmlns="http://www.w3.org/2000/svg">
<g clip-path="url(#clip0_4629_4671)">
<path d="M8.51326 8.47999C8.44694 8.54691 8.36802 8.60003 8.28105 8.63628C8.19409 8.67253 8.10081 8.69119 8.00659 8.69119C7.91238 8.69119 7.81909 8.67253 7.73213 8.63628C7.64517 8.60003 7.56625 8.54691 7.49993 8.47999L6.50659 7.48665L7.01326 6.97999L7.99993 7.95332L10.7999 5.15332L11.3399 5.67999L8.51326 8.47999Z" fill="#4285F4"/>
<path d="M10.6667 7.72678C10.5284 7.74129 10.3993 7.80285 10.301 7.90115C10.2027 7.99945 10.1412 8.12852 10.1267 8.26678C10.0617 8.74305 9.83826 9.18357 9.49237 9.51736C9.14648 9.85116 8.69829 10.0588 8.22001 10.1068C7.79642 10.149 7.36978 10.0655 6.99334 9.86678C6.58723 9.65301 6.26116 9.31361 6.06384 8.89926C5.86652 8.48491 5.80853 8.01784 5.89853 7.56782C5.98854 7.11779 6.22171 6.70896 6.56322 6.40237C6.90473 6.09579 7.33625 5.9079 7.79334 5.86678C8.06532 5.84155 8.3396 5.87102 8.60001 5.95344C8.7168 5.99501 8.8436 5.99939 8.96298 5.96596C9.08236 5.93253 9.18845 5.86295 9.26667 5.76678C9.33063 5.69141 9.3752 5.60155 9.3965 5.50502C9.4178 5.4085 9.4152 5.30823 9.38891 5.21294C9.36263 5.11765 9.31345 5.03023 9.24567 4.95828C9.17789 4.88633 9.09356 4.83203 9.00001 4.80011C8.47164 4.63052 7.90929 4.59552 7.36397 4.69829C6.81865 4.80105 6.30761 5.03834 5.87721 5.38862C5.44681 5.73889 5.11068 6.19108 4.89928 6.70416C4.68789 7.21724 4.60794 7.77497 4.66667 8.32678C4.70756 8.76469 4.8347 9.19018 5.04077 9.57874C5.24685 9.96729 5.52778 10.3112 5.86738 10.5907C6.20697 10.8702 6.59852 11.0797 7.01946 11.2072C7.4404 11.3347 7.88241 11.3776 8.32001 11.3334C9.07981 11.2659 9.79346 10.9398 10.3419 10.4096C10.8903 9.87945 11.2402 9.1772 11.3333 8.42011C11.3428 8.33025 11.332 8.23941 11.3018 8.15424C11.2717 8.06907 11.2229 7.99171 11.159 7.92782C11.0951 7.86393 11.0177 7.81511 10.9325 7.78495C10.8474 7.75478 10.7565 7.74401 10.6667 7.75344V7.72678Z" fill="#669DF6"/>
<path d="M8.00008 12C8.26379 12 8.52158 12.0782 8.74084 12.2247C8.96011 12.3712 9.131 12.5795 9.23192 12.8231C9.33284 13.0667 9.35924 13.3348 9.3078 13.5935C9.25635 13.8521 9.12936 14.0897 8.94289 14.2761C8.75642 14.4626 8.51884 14.5896 8.2602 14.641C8.00156 14.6925 7.73347 14.6661 7.48984 14.5652C7.2462 14.4643 7.03796 14.2934 6.89146 14.0741C6.74495 13.8548 6.66675 13.597 6.66675 13.3333C6.66675 12.9797 6.80722 12.6406 7.05727 12.3905C7.30732 12.1405 7.64646 12 8.00008 12Z" fill="#AECBFA"/>
<path d="M8.00008 1.3335C8.26379 1.3335 8.52158 1.41169 8.74084 1.5582C8.96011 1.70471 9.131 1.91295 9.23192 2.15658C9.33284 2.40022 9.35924 2.66831 9.3078 2.92695C9.25635 3.18559 9.12936 3.42317 8.94289 3.60964C8.75642 3.79611 8.51884 3.9231 8.2602 3.97454C8.00156 4.02599 7.73347 3.99959 7.48984 3.89867C7.2462 3.79775 7.03796 3.62685 6.89146 3.40759C6.74495 3.18832 6.66675 2.93054 6.66675 2.66683C6.66675 2.31321 6.80722 1.97407 7.05727 1.72402C7.30732 1.47397 7.64646 1.3335 8.00008 1.3335Z" fill="#AECBFA"/>
<path d="M12.0001 13.3331C11.869 13.3326 11.7411 13.2934 11.6321 13.2206C11.5232 13.1477 11.4382 13.0443 11.3877 12.9234C11.3372 12.8025 11.3234 12.6693 11.3482 12.5406C11.3729 12.4119 11.435 12.2934 11.5268 12.1998L13.3334 10.3931V5.60646L11.5401 3.7998C11.4159 3.67489 11.3462 3.50592 11.3462 3.3298C11.3462 3.15367 11.4159 2.9847 11.5401 2.8598C11.6021 2.79731 11.6758 2.74771 11.757 2.71387C11.8383 2.68002 11.9254 2.6626 12.0134 2.6626C12.1014 2.6626 12.1886 2.68002 12.2698 2.71387C12.351 2.74771 12.4248 2.79731 12.4868 2.8598L14.4868 4.8598C14.6067 4.98776 14.6714 5.15782 14.6668 5.33313V10.6665C14.666 10.8414 14.5966 11.009 14.4734 11.1331L12.4734 13.1331C12.4117 13.1961 12.3381 13.2462 12.2568 13.2806C12.1756 13.3149 12.0883 13.3328 12.0001 13.3331Z" fill="#4285F4"/>
<path d="M3.99993 13.3331C3.91173 13.3328 3.82447 13.3149 3.74322 13.2806C3.66197 13.2462 3.58834 13.1961 3.5266 13.1331L1.5266 11.1331C1.40343 11.009 1.334 10.8414 1.33326 10.6665V5.33313C1.33276 5.24539 1.34957 5.15842 1.38275 5.07719C1.41593 4.99597 1.46481 4.92209 1.5266 4.8598L3.5266 2.8598C3.58857 2.79731 3.66231 2.74771 3.74355 2.71387C3.82478 2.68002 3.91192 2.6626 3.99993 2.6626C4.08794 2.6626 4.17507 2.68002 4.25631 2.71387C4.33755 2.74771 4.41129 2.79731 4.47326 2.8598C4.59743 2.9847 4.66712 3.15367 4.66712 3.3298C4.66712 3.50592 4.59743 3.67489 4.47326 3.7998L2.6666 5.60646V10.3931L4.45993 12.1998C4.52242 12.2618 4.57201 12.3355 4.60586 12.4167C4.6397 12.498 4.65713 12.5851 4.65713 12.6731C4.65713 12.7611 4.6397 12.8483 4.60586 12.9295C4.57201 13.0108 4.52242 13.0845 4.45993 13.1465C4.33634 13.2656 4.17158 13.3324 3.99993 13.3331Z" fill="#669DF6"/>
</g>
<defs>
<clipPath id="clip0_4629_4671">
<rect width="16" height="16" fill="white"/>
</clipPath>
</defs>
</svg>
