<svg viewBox="0 0 16 17" fill="none" xmlns="http://www.w3.org/2000/svg">
<path fill-rule="evenodd" clip-rule="evenodd" d="M8.35965 9.20061V6.24727C8.51407 6.17191 8.63839 6.04644 8.71234 5.89133C8.78629 5.73623 8.80549 5.56064 8.76681 5.39322C8.72814 5.22579 8.63387 5.07642 8.49939 4.96946C8.3649 4.8625 8.19814 4.80427 8.02631 4.80427C7.85448 4.80427 7.68772 4.8625 7.55324 4.96946C7.41876 5.07642 7.32449 5.22579 7.28581 5.39322C7.24714 5.56064 7.26634 5.73623 7.34029 5.89133C7.41423 6.04644 7.53856 6.17191 7.69298 6.24727V9.19394H4.84631V7.31394C4.99699 7.23507 5.11686 7.10794 5.18674 6.95289C5.25662 6.79784 5.27248 6.62383 5.23177 6.4587C5.19107 6.29357 5.09615 6.14687 4.96221 6.04207C4.82827 5.93726 4.66305 5.88041 4.49298 5.88061C4.32348 5.88189 4.15927 5.9398 4.02646 6.04513C3.89365 6.15046 3.79987 6.29717 3.76002 6.46192C3.72017 6.62668 3.73655 6.80003 3.80654 6.95441C3.87654 7.10879 3.99613 7.23534 4.14631 7.31394V9.20061H3.99965C3.62583 9.19915 3.25692 9.11542 2.91911 8.95536C2.58129 8.79529 2.28286 8.56282 2.04499 8.27445C1.80712 7.98607 1.63566 7.64887 1.54277 7.28678C1.44988 6.92469 1.43784 6.54658 1.50751 6.17932C1.57718 5.81205 1.72686 5.46462 1.9459 5.1617C2.16494 4.85879 2.44799 4.6078 2.77494 4.42658C3.10189 4.24535 3.46473 4.13833 3.83769 4.1131C4.21066 4.08787 4.5846 4.14506 4.93298 4.28061C5.21147 3.68275 5.65413 3.17634 6.20936 2.82039C6.7646 2.46444 7.40956 2.2736 8.06909 2.27011C8.72861 2.26661 9.37556 2.45061 9.93453 2.80066C10.4935 3.15071 10.9415 3.6524 11.2263 4.24727C11.491 4.16026 11.7677 4.11527 12.0463 4.11394C12.7235 4.11394 13.373 4.38295 13.8518 4.86179C14.3306 5.34064 14.5996 5.99009 14.5996 6.66727C14.5996 7.34446 14.3306 7.99391 13.8518 8.47275C13.373 8.95159 12.7235 9.22061 12.0463 9.22061H11.8796V7.31394C12.0301 7.23495 12.1497 7.10782 12.2194 6.95287C12.2891 6.79792 12.3049 6.62408 12.2642 6.45911C12.2235 6.29414 12.1287 6.14756 11.995 6.04278C11.8612 5.938 11.6962 5.88107 11.5263 5.88107C11.3564 5.88107 11.1914 5.938 11.0576 6.04278C10.9239 6.14756 10.8291 6.29414 10.7884 6.45911C10.7477 6.62408 10.7635 6.79792 10.8332 6.95287C10.9029 7.10782 11.0225 7.23495 11.173 7.31394V9.20061H8.35965Z" fill="#4285F4"/>
<path fill-rule="evenodd" clip-rule="evenodd" d="M4.84661 11.1739C5.14492 11.2443 5.40987 11.4153 5.59686 11.6582C5.78385 11.901 5.88147 12.2009 5.87328 12.5073C5.87373 12.7654 5.80177 13.0185 5.66558 13.2378C5.52939 13.4571 5.33442 13.6338 5.10283 13.7478C4.87124 13.8618 4.61231 13.9086 4.35547 13.8828C4.09862 13.857 3.85416 13.7597 3.64984 13.6019C3.44553 13.4442 3.28957 13.2323 3.19967 12.9903C3.10977 12.7483 3.08955 12.486 3.14129 12.2331C3.19303 11.9802 3.31467 11.7469 3.49238 11.5596C3.67009 11.3724 3.89675 11.2388 4.14661 11.1739V9.20061H4.81328L4.84661 11.1739ZM4.49328 13.1739C4.67009 13.1739 4.83966 13.1037 4.96468 12.9787C5.08971 12.8537 5.15995 12.6841 5.15995 12.5073C5.15995 12.3305 5.08971 12.1609 4.96468 12.0359C4.83966 11.9108 4.67009 11.8406 4.49328 11.8406C4.31647 11.8406 4.1469 11.9108 4.02187 12.0359C3.89685 12.1609 3.82661 12.3305 3.82661 12.5073C3.82661 12.6841 3.89685 12.8537 4.02187 12.9787C4.1469 13.1037 4.31647 13.1739 4.49328 13.1739ZM11.8799 11.1739C12.2039 11.2597 12.4856 11.4605 12.6724 11.7388C12.8592 12.017 12.9383 12.3538 12.8951 12.6861C12.8518 13.0184 12.6891 13.3237 12.4373 13.5448C12.1854 13.766 11.8618 13.8879 11.5266 13.8879C11.1915 13.8879 10.8678 13.766 10.616 13.5448C10.3642 13.3237 10.2014 13.0184 10.1582 12.6861C10.1149 12.3538 10.194 12.017 10.3808 11.7388C10.5676 11.4605 10.8493 11.2597 11.1733 11.1739V9.20727H11.8799V11.1739ZM11.5266 13.1739C11.6864 13.1824 11.844 13.133 11.9704 13.0349C12.0968 12.9368 12.1838 12.7965 12.2153 12.6396C12.2469 12.4827 12.2209 12.3197 12.1422 12.1803C12.0635 12.041 11.9373 11.9346 11.7866 11.8806C11.6965 11.8483 11.6005 11.8358 11.5051 11.8439C11.4097 11.8521 11.3172 11.8807 11.2339 11.9277C11.1505 11.9748 11.0783 12.0393 11.0221 12.1168C10.9659 12.1943 10.927 12.283 10.9081 12.3768C10.8893 12.4707 10.8908 12.5675 10.9127 12.6607C10.9346 12.7539 10.9763 12.8412 11.035 12.9169C11.0937 12.9925 11.168 13.0546 11.2528 13.099C11.3376 13.1433 11.431 13.1689 11.5266 13.1739ZM8.35995 12.8873C8.68507 12.9686 8.96923 13.1661 9.15889 13.4424C9.34855 13.7187 9.43062 14.0548 9.38964 14.3875C9.34866 14.7201 9.18746 15.0263 8.9364 15.2483C8.68534 15.4703 8.36176 15.5929 8.02661 15.5929C7.69146 15.5929 7.36788 15.4703 7.11683 15.2483C6.86577 15.0263 6.70457 14.7201 6.66359 14.3875C6.6226 14.0548 6.70467 13.7187 6.89433 13.4424C7.08399 13.1661 7.36815 12.9686 7.69328 12.8873V9.22061H8.39995L8.35995 12.8873ZM7.99995 14.8873C8.14274 14.8866 8.28153 14.84 8.39589 14.7545C8.51024 14.669 8.59411 14.549 8.63515 14.4122C8.67619 14.2754 8.67223 14.1291 8.62384 13.9947C8.57546 13.8604 8.48522 13.7451 8.36641 13.6659C8.24759 13.5867 8.10648 13.5477 7.96386 13.5548C7.82123 13.5618 7.68463 13.6144 7.57416 13.7049C7.46369 13.7954 7.3852 13.9189 7.35023 14.0574C7.31527 14.1958 7.32568 14.3419 7.37995 14.4739C7.43244 14.5942 7.51927 14.6964 7.62956 14.7675C7.73986 14.8387 7.8687 14.8757 7.99995 14.8739V14.8873Z" fill="#669DF6"/>
</svg>
