<svg viewBox="0 0 16 16" fill="none" xmlns="http://www.w3.org/2000/svg">
<g clip-path="url(#clip0_496_6997)">
<path d="M16 0H0V16H16V0Z" fill="url(#paint0_linear_496_6997)"/>
<path d="M6.29355 9.64523H4.76821C3.65035 9.64523 2.73088 8.83029 2.67115 7.79563C2.67115 7.75083 2.67115 7.70603 2.67115 7.65909C2.65586 7.23608 2.78415 6.82033 3.03514 6.47948C3.28613 6.13863 3.64506 5.89272 4.05355 5.78176C4.05355 5.73269 4.05355 5.68363 4.05355 5.63243C4.06955 5.10555 4.23537 4.59414 4.53159 4.15813C4.82781 3.72211 5.24216 3.37954 5.72608 3.17056C6.25097 2.94729 6.83027 2.88467 7.39075 2.99062C7.95122 3.09656 8.4677 3.36631 8.87488 3.76576C9.1419 4.02218 9.35892 4.32601 9.51488 4.66176C9.74189 4.48742 10.0201 4.39293 10.3063 4.39296C10.9037 4.39296 11.5309 4.80896 11.6503 5.73269C12.7383 5.99296 13.3335 6.67776 13.3335 7.68043C13.3335 8.74709 12.7511 9.45323 11.7335 9.61963L11.6653 9.19296C12.2306 9.10123 12.9069 8.76629 12.9069 7.67616C12.9069 6.83776 12.4055 6.31509 11.4135 6.12309C11.367 6.11419 11.3248 6.09007 11.2935 6.05454C11.2623 6.01901 11.2437 5.97408 11.2407 5.92683C11.1917 5.11189 10.7074 4.82389 10.3085 4.82389C10.1738 4.82438 10.0411 4.85579 9.9205 4.91571C9.79992 4.97564 9.69472 5.06246 9.61301 5.16949C9.58985 5.19965 9.55904 5.22307 9.52378 5.23733C9.48852 5.25158 9.45009 5.25615 9.41248 5.25056C9.37474 5.24495 9.33921 5.22932 9.30957 5.20531C9.27992 5.1813 9.25726 5.14977 9.24395 5.11403C9.10512 4.72228 8.87728 4.36811 8.57834 4.07936C8.22967 3.73798 7.78777 3.5074 7.3083 3.41667C6.82884 3.32594 6.33325 3.37911 5.88394 3.56949C5.48143 3.74901 5.13688 4.03711 4.88894 4.40149C4.641 4.76587 4.49946 5.19211 4.48021 5.63243C4.48052 5.72512 4.48621 5.81772 4.49728 5.90976C4.49833 5.91826 4.49833 5.92686 4.49728 5.93536C4.49786 5.98681 4.47983 6.03673 4.44651 6.07594C4.41318 6.11514 4.36682 6.14098 4.31595 6.14869C3.84875 6.26603 3.08928 6.62016 3.08928 7.65483C3.08928 7.69323 3.08928 7.73163 3.08928 7.76789C3.13621 8.57643 3.87008 9.21429 4.75968 9.21643H6.29355V9.64523Z" fill="white"/>
<path d="M13.1203 13.0585H12.4931C12.4375 13.0588 12.3839 13.0374 12.3438 12.9987L11.9662 12.6318H10.987C10.9304 12.6318 10.8762 12.6093 10.8362 12.5693C10.7961 12.5293 10.7737 12.475 10.7737 12.4185V11.8659L10.4729 11.5651H9.92033C9.86375 11.5651 9.80949 11.5427 9.76948 11.5026C9.72948 11.4626 9.707 11.4084 9.707 11.3518V10.7737L9.62593 10.6435C9.3897 10.7279 9.14077 10.7712 8.88993 10.7715C8.42062 10.7721 7.96379 10.6204 7.58811 10.3391C7.21243 10.0578 6.9382 9.66218 6.80664 9.21168C6.67507 8.76119 6.69328 8.28016 6.85853 7.8409C7.02378 7.40164 7.32713 7.02788 7.723 6.7758C7.77847 6.73953 7.84033 6.7054 7.90007 6.6734C7.9598 6.6414 8.03447 6.6094 8.1006 6.58167C8.20747 6.54177 8.31732 6.51039 8.42913 6.4878C8.486 6.47444 8.54374 6.46517 8.60193 6.46007H8.65527H8.72353H8.75553C8.79996 6.45253 8.84488 6.44826 8.88993 6.44727C9.46243 6.44837 10.0114 6.67526 10.4176 7.07867C10.8238 7.48209 11.0545 8.02946 11.0595 8.60193C11.0664 8.8584 11.0222 9.11367 10.9294 9.35287L13.2761 11.6995C13.315 11.7404 13.3371 11.7945 13.3379 11.851V12.8515C13.3363 12.9077 13.3125 12.961 13.2717 12.9998C13.231 13.0385 13.1766 13.0596 13.1203 13.0585ZM12.5806 12.6318H12.907V11.9342L10.5241 9.55127C10.4945 9.52168 10.4743 9.48408 10.466 9.44312C10.4576 9.40215 10.4615 9.35964 10.4771 9.32087C10.5859 9.09876 10.6386 8.85339 10.6307 8.6062C10.6302 8.14412 10.4464 7.70112 10.1196 7.37438C9.79288 7.04764 9.34988 6.86383 8.8878 6.86327C8.86225 6.86106 8.83655 6.86106 8.811 6.86327H8.76193H8.747H8.70433H8.6574C8.61362 6.86653 8.57013 6.87295 8.52727 6.88247C8.43667 6.90079 8.34754 6.92574 8.2606 6.95713C8.21793 6.97633 8.1582 7.00193 8.1006 7.0318C8.043 7.06167 8.0046 7.08513 7.95767 7.115C7.58241 7.3511 7.31138 7.72149 7.19987 8.15059C7.08836 8.5797 7.14478 9.03518 7.35761 9.4241C7.57045 9.81303 7.92366 10.1061 8.34518 10.2435C8.76671 10.3809 9.22478 10.3523 9.62593 10.1635C9.67296 10.1414 9.72643 10.1373 9.77632 10.1518C9.8262 10.1663 9.86906 10.1986 9.89687 10.2425L10.1102 10.5774C10.1312 10.6114 10.1423 10.6505 10.1422 10.6905V11.1171H10.5689C10.5969 11.117 10.6248 11.1224 10.6508 11.133C10.6768 11.1436 10.7004 11.1592 10.7203 11.179L11.147 11.6057C11.1668 11.6256 11.1824 11.6492 11.193 11.6752C11.2036 11.7012 11.209 11.7291 11.2089 11.7571V12.1838H12.0622C12.1179 12.1835 12.1715 12.2049 12.2115 12.2435L12.5806 12.6318ZM8.52727 9.00513C8.42343 9.00557 8.32058 8.98501 8.22489 8.94469C8.12921 8.90436 8.04266 8.8451 7.97047 8.77047C7.89735 8.69721 7.83937 8.61026 7.79985 8.5146C7.76034 8.41893 7.74005 8.31642 7.74015 8.21291C7.74024 8.10941 7.76073 8.00693 7.80043 7.91134C7.84013 7.81575 7.89827 7.72892 7.97153 7.6558C8.11949 7.50813 8.32005 7.42528 8.52909 7.42548C8.63259 7.42558 8.73507 7.44606 8.83066 7.48576C8.92625 7.52546 9.01308 7.58361 9.0862 7.65687C9.16083 7.72906 9.22009 7.8156 9.26042 7.91129C9.30075 8.00698 9.32131 8.10983 9.32087 8.21367C9.31921 8.42233 9.23588 8.62204 9.08872 8.76999C8.94157 8.91794 8.74232 9.00235 8.53367 9.00513H8.52727ZM8.52727 7.883C8.48012 7.88265 8.43338 7.89171 8.38979 7.90966C8.3462 7.92761 8.30663 7.95409 8.2734 7.98753C8.20533 8.05536 8.16697 8.14744 8.16673 8.24353C8.16661 8.29115 8.17599 8.33831 8.1943 8.38227C8.21262 8.42622 8.23951 8.46609 8.2734 8.49953C8.30662 8.53385 8.3464 8.56115 8.39038 8.57979C8.43436 8.59842 8.48163 8.60803 8.5294 8.60803C8.57717 8.60803 8.62444 8.59842 8.66842 8.57979C8.7124 8.56115 8.75218 8.53385 8.7854 8.49953C8.85347 8.4317 8.89183 8.33963 8.89207 8.24353C8.89202 8.19626 8.88256 8.14946 8.86425 8.10588C8.84594 8.06229 8.81913 8.02279 8.7854 7.98967C8.71312 7.92439 8.61819 7.88993 8.52087 7.89367L8.52727 7.883Z" fill="white"/>
</g>
<defs>
<linearGradient id="paint0_linear_496_6997" x1="-3.31307" y1="19.3131" x2="19.3131" y2="-3.31307" gradientUnits="userSpaceOnUse">
<stop stop-color="#BD0816"/>
<stop offset="1" stop-color="#FF5252"/>
</linearGradient>
<clipPath id="clip0_496_6997">
<rect width="16" height="16" fill="white"/>
</clipPath>
</defs>
</svg>
