<svg width="17" height="17" viewBox="0 0 17 17" fill="none" xmlns="http://www.w3.org/2000/svg">
<g clip-path="url(#clip0_2814_2542)">
<path fill-rule="evenodd" clip-rule="evenodd" d="M8.90951 1.52791L8.607 5.25363C8.46392 5.23729 8.32084 5.22912 8.17367 5.22912C7.98971 5.22912 7.80984 5.24138 7.63406 5.26997L7.46236 3.46431C7.45828 3.40711 7.50324 3.35809 7.56048 3.35809H7.86708L7.71991 1.532C7.71582 1.4748 7.76079 1.42578 7.81393 1.42578H8.81549C8.87272 1.42578 8.91769 1.4748 8.90951 1.532V1.52791ZM6.38313 1.71175C6.36678 1.65864 6.30955 1.62596 6.2564 1.64638L5.31617 1.98954C5.26302 2.00997 5.23849 2.07125 5.26302 2.12027L6.02748 3.78704L5.73723 3.89325C5.68409 3.91368 5.65956 3.97496 5.68409 4.02398L6.46489 5.66215C6.74696 5.50691 7.05356 5.38844 7.37652 5.31491L6.38722 1.71175H6.38313ZM4.0775 2.74939L6.24005 5.79696C5.96616 5.97671 5.71679 6.18915 5.50421 6.43426L4.20832 5.15967C4.16744 5.11882 4.17153 5.05346 4.21241 5.01669L4.44951 4.8206L3.16179 3.51741C3.12091 3.47656 3.125 3.4112 3.16997 3.37443L3.93442 2.73305C3.97939 2.69628 4.04071 2.70445 4.07342 2.74939H4.0775ZM2.26243 4.51421C2.21747 4.48152 2.15206 4.49787 2.12344 4.54689L1.62471 5.41295C1.59609 5.46198 1.61653 5.52326 1.66559 5.54777L3.32531 6.33213L3.16997 6.59767C3.14135 6.64669 3.16179 6.71205 3.21494 6.73248L4.86649 7.48825C4.98504 7.18185 5.14447 6.89589 5.34069 6.63852L2.26243 4.51421ZM1.04012 6.86729C1.0483 6.8101 1.10553 6.77742 1.15867 6.78967L4.77655 7.73336C4.68253 8.03975 4.62938 8.36248 4.62121 8.69747L2.81023 8.5504C2.75299 8.54632 2.71211 8.49321 2.72438 8.43602L2.77752 8.13371L0.950187 7.96213C0.892955 7.95805 0.856163 7.90494 0.864339 7.84774L1.03604 6.86321L1.04012 6.86729ZM0.905219 9.31025C0.847987 9.31434 0.811195 9.36745 0.819371 9.42464L0.995155 10.4092C1.00333 10.4664 1.06056 10.4991 1.11371 10.4868L2.8879 10.0252L2.94104 10.3275C2.94922 10.3847 3.00645 10.4173 3.05959 10.4051L4.80925 9.92304C4.70705 9.62073 4.64165 9.298 4.62529 8.96709L0.901131 9.31025H0.905219ZM1.48571 11.9003C1.4571 11.8513 1.47754 11.79 1.52659 11.7655L4.90328 10.1641C5.03001 10.4664 5.2017 10.7483 5.4061 11.0015L3.92625 12.0555C3.88128 12.0882 3.81587 12.0759 3.78726 12.0269L3.63191 11.7573L2.12344 12.799C2.07847 12.8317 2.01307 12.8154 1.98445 12.7663L1.48163 11.9003H1.48571ZM5.5778 11.1976L2.94922 13.8571C2.90834 13.898 2.91242 13.9633 2.95739 14.0001L3.72594 14.6415C3.7709 14.6782 3.83222 14.6701 3.86493 14.6251L4.92781 13.1299L5.16491 13.3301C5.20988 13.3669 5.27529 13.3587 5.30799 13.3097L6.33816 11.8145C6.06018 11.6429 5.80264 11.4346 5.58189 11.1976H5.5778ZM5.05862 15.4667C5.00548 15.4463 4.98095 15.385 5.00548 15.336L6.563 11.937C6.84916 12.0841 7.15985 12.1944 7.4828 12.2557L7.02495 14.0123C7.01268 14.0654 6.95136 14.0981 6.89822 14.0777L6.60797 13.9715L6.1215 15.7404C6.10515 15.7935 6.04792 15.8262 5.99477 15.8058L5.05453 15.4626L5.05862 15.4667ZM7.74035 12.3006L7.43784 16.0264C7.43375 16.0835 7.47872 16.1326 7.53186 16.1326H8.53342C8.59065 16.1326 8.63562 16.0835 8.62744 16.0264L8.48028 14.2003H8.78687C8.84411 14.2003 8.88907 14.1512 8.88499 14.094L8.71329 12.2884C8.53751 12.317 8.35763 12.3292 8.17367 12.3292C8.02651 12.3292 7.88343 12.3211 7.74035 12.3006ZM11.346 2.21423C11.3705 2.16112 11.346 2.10393 11.2928 2.0835L10.3526 1.74034C10.2994 1.71992 10.2422 1.7526 10.2258 1.80571L9.73938 3.57461L9.44913 3.46839C9.39599 3.44796 9.33875 3.48065 9.3224 3.53375L8.86455 5.2904C9.19159 5.35576 9.49819 5.46606 9.78434 5.60905L11.346 2.21423ZM13.3981 3.69716L10.7696 6.35664C10.5488 6.1197 10.2953 5.91135 10.0133 5.73977L11.0434 4.24458C11.0762 4.19964 11.1416 4.18739 11.1865 4.22416L11.4236 4.42433L12.4865 2.92914C12.5192 2.8842 12.5846 2.87603 12.6255 2.9128L13.394 3.55418C13.439 3.59095 13.439 3.65631 13.4022 3.69716H13.3981ZM14.8208 5.78879C14.8739 5.76428 14.8903 5.703 14.8616 5.65398L14.3588 4.78792C14.3302 4.73889 14.2648 4.72664 14.2198 4.75523L12.7113 5.79696L12.556 5.53143C12.5274 5.4824 12.462 5.46606 12.417 5.50283L10.9372 6.55682C11.1416 6.8101 11.3092 7.09198 11.44 7.39429L14.8167 5.79288L14.8208 5.78879ZM15.3522 7.14509L15.5239 8.12962C15.5321 8.18682 15.4953 8.23584 15.438 8.24401L11.7139 8.59125C11.6975 8.25627 11.6321 7.93762 11.5299 7.63531L13.2796 7.15326C13.3327 7.13692 13.39 7.17368 13.3981 7.23088L13.4513 7.53318L15.2255 7.07155C15.2786 7.0593 15.3358 7.09198 15.344 7.14917L15.3522 7.14509ZM15.1846 10.7605C15.2377 10.7728 15.295 10.7401 15.3031 10.6829L15.4748 9.69835C15.483 9.64116 15.4462 9.59213 15.389 9.58396L13.5617 9.41238L13.6148 9.11008C13.623 9.05288 13.5862 9.00386 13.5289 8.99569L11.718 8.84862C11.7098 9.18361 11.6566 9.50634 11.5626 9.81274L15.1805 10.7564L15.1846 10.7605ZM14.2198 13.0074C14.1912 13.0564 14.1258 13.0687 14.0808 13.0401L11.0026 10.9157C11.1988 10.6584 11.3582 10.3724 11.4768 10.066L13.1283 10.8218C13.1815 10.8463 13.2019 10.9076 13.1733 10.9566L13.018 11.2221L14.6777 12.0065C14.7267 12.031 14.7472 12.0923 14.7186 12.1413L14.2198 13.0074ZM10.1032 11.7532L12.2658 14.8008C12.2985 14.8457 12.3639 14.8539 12.4048 14.8171L13.1692 14.1757C13.2142 14.139 13.2142 14.0736 13.1774 14.0328L11.8897 12.7296L12.1268 12.5335C12.1717 12.4967 12.1717 12.4314 12.1309 12.3905L10.835 11.1159C10.6183 11.361 10.373 11.5776 10.0991 11.7532H10.1032ZM10.0828 15.9038C10.0296 15.9242 9.97239 15.8915 9.95604 15.8384L8.96675 12.2353C9.2897 12.1617 9.5963 12.0433 9.87837 11.888L10.6592 13.5262C10.6837 13.5793 10.6592 13.6406 10.606 13.6569L10.3158 13.7631L11.0802 15.4299C11.1048 15.483 11.0802 15.5402 11.0271 15.5606L10.0869 15.9038H10.0828Z" fill="#007DC1"/>
</g>
<defs>
<clipPath id="clip0_2814_2542">
<rect width="16" height="16" fill="white" transform="translate(0.171875 0.781372)"/>
</clipPath>
</defs>
</svg>
