<svg width="17" height="17" viewBox="0 0 17 17" fill="none" xmlns="http://www.w3.org/2000/svg">
<g clip-path="url(#clip0_2814_2557)">
<path d="M1.26905 12.5163C1.35981 13.3202 1.72026 14.0697 2.29164 14.6426C2.86302 15.2154 3.6116 15.5778 4.41534 15.6705C5.6382 15.8077 6.89191 15.9243 8.17191 15.9243C9.45191 15.9243 10.7068 15.8077 11.9285 15.6705C12.7322 15.5778 13.4808 15.2154 14.0522 14.6426C14.6236 14.0697 14.984 13.3202 15.0748 12.5163C15.2051 11.3014 15.3148 10.0534 15.3148 8.78141C15.3148 7.50941 15.2051 6.26141 15.0748 5.04541C14.984 4.24144 14.6236 3.49193 14.0522 2.9191C13.4808 2.34628 12.7322 1.98392 11.9285 1.89112C10.7056 1.75626 9.45191 1.63855 8.17191 1.63855C6.89191 1.63855 5.63705 1.75512 4.41534 1.89226C3.6116 1.98506 2.86302 2.34742 2.29164 2.92025C1.72026 3.49308 1.35981 4.24258 1.26905 5.04655C1.13877 6.26026 1.02905 7.50826 1.02905 8.78141C1.02905 10.0545 1.13877 11.3014 1.26905 12.5163Z" stroke="#92A1B1" stroke-linecap="round" stroke-linejoin="round"/>
<path d="M15.1068 5.35284H1.23706L1.26906 5.04541C1.35982 4.24144 1.72027 3.49193 2.29165 2.9191C2.86302 2.34628 3.61161 1.98392 4.41535 1.89112C5.6382 1.75626 6.89192 1.63855 8.17192 1.63855C9.45192 1.63855 10.7068 1.75512 11.9285 1.89226C12.7322 1.98506 13.4808 2.34742 14.0522 2.92025C14.6236 3.49308 14.984 4.24258 15.0748 5.04655C15.0862 5.14826 15.0976 5.24998 15.1068 5.35284Z" stroke="#92A1B1" stroke-linecap="round" stroke-linejoin="round"/>
<path fill-rule="evenodd" clip-rule="evenodd" d="M8.48037 7.53489L8.35387 9.09284C8.29404 9.08601 8.23421 9.08259 8.17267 9.08259C8.09574 9.08259 8.02053 9.08771 7.94702 9.09967L7.87523 8.34462C7.87352 8.3207 7.89232 8.3002 7.91625 8.3002H8.04446L7.98292 7.5366C7.98121 7.51269 8.00002 7.49219 8.02224 7.49219H8.44105C8.46498 7.49219 8.48379 7.51269 8.48037 7.5366V7.53489ZM7.42394 7.61177C7.4171 7.58956 7.39317 7.57589 7.37094 7.58443L6.97777 7.72793C6.95555 7.73647 6.9453 7.76209 6.95555 7.78259L7.27522 8.47957L7.15385 8.52398C7.13162 8.53253 7.12137 8.55815 7.13162 8.57865L7.45813 9.26367C7.57608 9.19875 7.70428 9.14921 7.83933 9.11846L7.42565 7.61177H7.42394ZM6.45982 8.04567L7.36411 9.32004C7.24957 9.3952 7.1453 9.48403 7.05641 9.58653L6.51452 9.05355C6.49742 9.03647 6.49913 9.00913 6.51623 8.99376L6.61537 8.91176L6.0769 8.36682C6.05981 8.34974 6.06152 8.32241 6.08032 8.30703L6.39999 8.03883C6.41879 8.02346 6.44443 8.02688 6.45811 8.04567H6.45982ZM5.70083 8.78364C5.68202 8.76998 5.65467 8.77681 5.64271 8.79731L5.43416 9.15946C5.42219 9.17996 5.43074 9.20558 5.45125 9.21583L6.14528 9.54382L6.08032 9.65486C6.06836 9.67536 6.0769 9.70269 6.09913 9.71123L6.78974 10.0273C6.83931 9.89914 6.90598 9.77956 6.98803 9.67194L5.70083 8.78364ZM5.18971 9.76761C5.19313 9.74369 5.21706 9.73002 5.23928 9.73515L6.75213 10.1298C6.71281 10.2579 6.69059 10.3928 6.68717 10.5329L5.92989 10.4714C5.90596 10.4697 5.88887 10.4475 5.89399 10.4236L5.91622 10.2972L5.1521 10.2254C5.12817 10.2237 5.11278 10.2015 5.1162 10.1776L5.188 9.7659L5.18971 9.76761ZM5.1333 10.7892C5.10936 10.7909 5.09398 10.8131 5.0974 10.837L5.1709 11.2487C5.17432 11.2726 5.19825 11.2863 5.22048 11.2811L5.96237 11.0881L5.98459 11.2145C5.98801 11.2384 6.01194 11.2521 6.03417 11.247L6.7658 11.0454C6.72307 10.919 6.69572 10.784 6.68888 10.6457L5.13159 10.7892H5.1333ZM5.37604 11.8722C5.36407 11.8517 5.37262 11.8261 5.39313 11.8158L6.80512 11.1462C6.85811 11.2726 6.92991 11.3905 7.01538 11.4964L6.39657 11.9371C6.37776 11.9508 6.35041 11.9457 6.33845 11.9252L6.27349 11.8124L5.64271 12.248C5.6239 12.2617 5.59655 12.2549 5.58459 12.2344L5.37433 11.8722H5.37604ZM7.08718 11.5784L5.98801 12.6905C5.97092 12.7075 5.97263 12.7349 5.99143 12.7502L6.31281 13.0184C6.33161 13.0338 6.35725 13.0304 6.37093 13.0116L6.81538 12.3864L6.91453 12.4701C6.93333 12.4855 6.96068 12.4821 6.97436 12.4616L7.40513 11.8363C7.28889 11.7646 7.1812 11.6775 7.08889 11.5784H7.08718ZM6.87008 13.3635C6.84786 13.355 6.8376 13.3294 6.84786 13.3089L7.49915 11.8876C7.61881 11.9491 7.74873 11.9952 7.88377 12.0208L7.69232 12.7554C7.68719 12.7776 7.66155 12.7912 7.63933 12.7827L7.51796 12.7383L7.31453 13.478C7.3077 13.5002 7.28376 13.5138 7.26154 13.5053L6.86837 13.3618L6.87008 13.3635ZM7.99147 12.0396L7.86497 13.5976C7.86326 13.6215 7.88207 13.642 7.90429 13.642H8.3231C8.34703 13.642 8.36583 13.6215 8.36242 13.5976L8.30088 12.834H8.42908C8.45302 12.834 8.47182 12.8135 8.47011 12.7895L8.39831 12.0345C8.32481 12.0464 8.24959 12.0516 8.17267 12.0516C8.11113 12.0516 8.0513 12.0481 7.99147 12.0396ZM9.49919 7.82188C9.50945 7.79968 9.49919 7.77576 9.47697 7.76722L9.0838 7.62372C9.06157 7.61518 9.03764 7.62885 9.0308 7.65106L8.82738 8.39074L8.70601 8.34632C8.68379 8.33778 8.65986 8.35145 8.65302 8.37366L8.46156 9.10821C8.59832 9.13555 8.72652 9.18167 8.84619 9.24146L9.49919 7.82188ZM10.3573 8.44199L9.25816 9.55407C9.16585 9.45499 9.05986 9.36787 8.94191 9.29612L9.37269 8.6709C9.38637 8.6521 9.41372 8.64698 9.43252 8.66235L9.53167 8.74606L9.97612 8.12083C9.9898 8.10204 10.0171 8.09862 10.0342 8.114L10.3556 8.3822C10.3744 8.39757 10.3744 8.4249 10.359 8.44199H10.3573ZM10.9522 9.31662C10.9744 9.30637 10.9813 9.28075 10.9693 9.26025L10.759 8.8981C10.7471 8.8776 10.7197 8.87247 10.7009 8.88443L10.0701 9.32004L10.0052 9.209C9.99321 9.1885 9.96586 9.18167 9.94706 9.19704L9.32825 9.63778C9.41372 9.74369 9.4838 9.86156 9.53851 9.98797L10.9505 9.31833L10.9522 9.31662ZM11.1744 9.88377L11.2462 10.2955C11.2496 10.3194 11.2343 10.3399 11.2103 10.3433L9.65304 10.4885C9.6462 10.3484 9.61885 10.2152 9.57611 10.0888L10.3078 9.88719C10.33 9.88035 10.3539 9.89573 10.3573 9.91964L10.3795 10.0461L11.1214 9.85302C11.1437 9.84789 11.1676 9.86156 11.171 9.88548L11.1744 9.88377ZM11.1043 11.3956C11.1266 11.4007 11.1505 11.387 11.1539 11.3631L11.2257 10.9514C11.2291 10.9275 11.2138 10.907 11.1898 10.9036L10.4257 10.8319L10.4479 10.7054C10.4513 10.6815 10.436 10.661 10.412 10.6576L9.65475 10.5961C9.65133 10.7362 9.62911 10.8712 9.58979 10.9993L11.1026 11.3939L11.1043 11.3956ZM10.7009 12.3351C10.689 12.3556 10.6616 12.3608 10.6428 12.3488L9.3556 11.4605C9.43765 11.3529 9.50432 11.2333 9.55389 11.1052L10.2445 11.4212C10.2667 11.4315 10.2753 11.4571 10.2633 11.4776L10.1983 11.5886L10.8924 11.9166C10.9129 11.9269 10.9214 11.9525 10.9095 11.973L10.7009 12.3351ZM8.97952 11.8107L9.88381 13.0851C9.89749 13.1039 9.92484 13.1073 9.94193 13.0919L10.2616 12.8237C10.2804 12.8083 10.2804 12.781 10.265 12.7639L9.72654 12.219L9.82569 12.137C9.84449 12.1216 9.84449 12.0943 9.8274 12.0772L9.28551 11.5442C9.19491 11.6467 9.09234 11.7372 8.97781 11.8107H8.97952ZM8.97097 13.5463C8.94875 13.5548 8.92482 13.5412 8.91798 13.519L8.5043 12.0123C8.63934 11.9815 8.76755 11.932 8.8855 11.8671L9.212 12.5521C9.22226 12.5743 9.212 12.5999 9.18978 12.6068L9.06841 12.6512L9.38808 13.3481C9.39833 13.3704 9.38808 13.3943 9.36585 13.4028L8.97268 13.5463H8.97097Z" fill="#007DC1"/>
</g>
<defs>
<clipPath id="clip0_2814_2557">
<rect width="16" height="16" fill="white" transform="translate(0.171875 0.781372)"/>
</clipPath>
</defs>
</svg>
