<svg viewBox="0 0 17 17" fill="none" xmlns="http://www.w3.org/2000/svg">
<g clip-path="url(#clip0_2814_2550)">
<path d="M1.9353 13.2637L2.2473 12.8077C2.61416 12.3105 3.07587 11.8934 3.60616 11.5848C4.26584 11.1995 5.01591 10.996 5.77987 10.9951C6.54384 10.996 7.29391 11.1995 7.95359 11.5848C8.21244 11.7361 8.45453 11.9123 8.67675 12.1101" stroke="#92A1B1" stroke-linecap="round" stroke-linejoin="round"/>
<path d="M15.4692 10.4379C15.5563 9.89693 15.6004 9.32036 15.6004 8.70946C15.6004 3.95517 12.9261 1.28088 8.17186 1.28088C3.41757 1.28088 0.743286 3.95517 0.743286 8.70946C0.743286 13.4637 3.41757 16.138 8.17186 16.138C8.52453 16.138 8.86576 16.1233 9.19529 16.0941" stroke="#92A1B1" stroke-linecap="round" stroke-linejoin="round"/>
<path d="M5.93759 9.26256C7.39702 9.26256 8.21874 8.44084 8.21874 6.98142C8.21874 5.52199 7.39702 4.70142 5.93759 4.70142C4.47931 4.70142 3.65759 5.52199 3.65759 6.98142C3.65759 8.44084 4.47931 9.26256 5.93759 9.26256Z" stroke="#92A1B1" stroke-linecap="round" stroke-linejoin="round"/>
<path d="M11.8919 9.85236C12.5452 9.85236 13.0401 9.64819 13.3512 9.26524C13.6006 8.95819 13.7319 8.5362 13.7319 8.01236C13.7319 6.83522 13.069 6.17236 11.8919 6.17236C10.7147 6.17236 10.0519 6.83522 10.0519 8.01236C10.0519 8.5362 10.1831 8.95819 10.4326 9.26524C10.7437 9.64819 11.2386 9.85236 11.8919 9.85236Z" stroke="#92A1B1" stroke-linecap="round" stroke-linejoin="round"/>
<path fill-rule="evenodd" clip-rule="evenodd" d="M12.8534 10.8909L12.7477 12.1931C12.6977 12.1873 12.6477 12.1845 12.5962 12.1845C12.5319 12.1845 12.4691 12.1888 12.4076 12.1988L12.3476 11.5677C12.3462 11.5477 12.3619 11.5306 12.3819 11.5306H12.4891L12.4376 10.8923C12.4362 10.8724 12.4519 10.8552 12.4705 10.8552H12.8205C12.8405 10.8552 12.8563 10.8724 12.8534 10.8923V10.8909ZM11.9704 10.9552C11.9647 10.9366 11.9447 10.9252 11.9261 10.9323L11.5975 11.0523C11.579 11.0594 11.5704 11.0808 11.579 11.0979L11.8461 11.6805L11.7447 11.7176C11.7261 11.7247 11.7175 11.7462 11.7261 11.7633L11.999 12.3358C12.0976 12.2816 12.2047 12.2402 12.3176 12.2145L11.9719 10.9552H11.9704ZM11.1646 11.3178L11.9204 12.3829C11.8247 12.4458 11.7375 12.52 11.6633 12.6057L11.2103 12.1602C11.1961 12.1459 11.1975 12.1231 11.2118 12.1102L11.2946 12.0417L10.8446 11.5862C10.8303 11.572 10.8317 11.5491 10.8474 11.5363L11.1146 11.3121C11.1303 11.2993 11.1518 11.3021 11.1632 11.3178H11.1646ZM10.5303 11.9346C10.5145 11.9232 10.4917 11.9289 10.4817 11.946L10.3074 12.2487C10.2974 12.2659 10.3045 12.2873 10.3217 12.2959L10.9017 12.57L10.8474 12.6628C10.8374 12.6799 10.8446 12.7028 10.8632 12.7099L11.4404 12.974C11.4818 12.867 11.5375 12.767 11.6061 12.6771L10.5303 11.9346ZM10.1031 12.757C10.1059 12.737 10.1259 12.7256 10.1445 12.7299L11.4089 13.0597C11.3761 13.1668 11.3575 13.2796 11.3546 13.3967L10.7217 13.3453C10.7017 13.3438 10.6874 13.3253 10.6917 13.3053L10.7103 13.1996L10.0716 13.1397C10.0516 13.1382 10.0388 13.1197 10.0416 13.0997L10.1016 12.7556L10.1031 12.757ZM10.0559 13.6108C10.0359 13.6123 10.0231 13.6308 10.0259 13.6508L10.0873 13.9949C10.0902 14.0149 10.1102 14.0263 10.1288 14.022L10.7489 13.8607L10.7674 13.9664C10.7703 13.9863 10.7903 13.9978 10.8089 13.9935L11.4204 13.825C11.3846 13.7193 11.3618 13.6066 11.3561 13.4909L10.0545 13.6108H10.0559ZM10.2588 14.516C10.2488 14.4989 10.2559 14.4775 10.2731 14.4689L11.4532 13.9092C11.4975 14.0149 11.5575 14.1134 11.629 14.2019L11.1118 14.5703C11.096 14.5817 11.0732 14.5774 11.0632 14.5603L11.0089 14.4661L10.4817 14.8302C10.466 14.8416 10.4431 14.8359 10.4331 14.8187L10.2574 14.516H10.2588ZM11.689 14.2705L10.7703 15.2C10.756 15.2142 10.7574 15.2371 10.7731 15.2499L11.0417 15.4741C11.0575 15.4869 11.0789 15.4841 11.0903 15.4684L11.4618 14.9458L11.5447 15.0158C11.5604 15.0286 11.5832 15.0258 11.5947 15.0086L11.9547 14.4861C11.8576 14.4261 11.7676 14.3533 11.6904 14.2705H11.689ZM11.5075 15.7625C11.4889 15.7554 11.4804 15.7339 11.4889 15.7168L12.0333 14.5289C12.1333 14.5803 12.2419 14.6188 12.3548 14.6403L12.1947 15.2542C12.1905 15.2728 12.169 15.2842 12.1505 15.2771L12.049 15.2399L11.879 15.8582C11.8733 15.8767 11.8533 15.8881 11.8347 15.881L11.5061 15.7611L11.5075 15.7625ZM12.4448 14.656L12.3391 15.9581C12.3376 15.9781 12.3533 15.9952 12.3719 15.9952H12.722C12.742 15.9952 12.7577 15.9781 12.7548 15.9581L12.7034 15.3199H12.8105C12.8305 15.3199 12.8463 15.3028 12.8448 15.2828L12.7848 14.6517C12.7234 14.6617 12.6605 14.666 12.5962 14.666C12.5448 14.666 12.4948 14.6631 12.4448 14.656ZM13.7049 11.1308C13.7135 11.1122 13.7049 11.0922 13.6864 11.0851L13.3577 10.9652C13.3392 10.958 13.3192 10.9694 13.3135 10.988L13.1434 11.6062L13.042 11.5691C13.0234 11.562 13.0034 11.5734 12.9977 11.592L12.8377 12.2059C12.952 12.2287 13.0591 12.2673 13.1592 12.3173L13.7049 11.1308ZM14.4222 11.6491L13.5035 12.5786C13.4263 12.4957 13.3377 12.4229 13.2392 12.363L13.5992 11.8404C13.6106 11.8247 13.6335 11.8204 13.6492 11.8333L13.7321 11.9032L14.1036 11.3806C14.115 11.3649 14.1378 11.3621 14.1521 11.3749L14.4207 11.5991C14.4365 11.6119 14.4365 11.6348 14.4236 11.6491H14.4222ZM14.9194 12.3801C14.9379 12.3715 14.9437 12.3501 14.9337 12.333L14.7579 12.0303C14.7479 12.0132 14.7251 12.0089 14.7093 12.0189L14.1821 12.3829L14.1278 12.2901C14.1178 12.273 14.095 12.2673 14.0793 12.2801L13.5621 12.6485C13.6335 12.737 13.6921 12.8356 13.7378 12.9412L14.9179 12.3815L14.9194 12.3801ZM15.1051 12.8541L15.1651 13.1982C15.168 13.2182 15.1551 13.2353 15.1351 13.2382L13.8335 13.3595C13.8278 13.2425 13.8049 13.1311 13.7692 13.0254L14.3807 12.857C14.3993 12.8513 14.4193 12.8641 14.4222 12.8841L14.4407 12.9898L15.0608 12.8284C15.0794 12.8241 15.0994 12.8356 15.1023 12.8555L15.1051 12.8541ZM15.0465 14.1177C15.0651 14.122 15.0851 14.1106 15.088 14.0906L15.148 13.7465C15.1508 13.7265 15.138 13.7094 15.118 13.7065L14.4793 13.6465L14.4979 13.5409C14.5007 13.5209 14.4879 13.5038 14.4679 13.5009L13.835 13.4495C13.8321 13.5666 13.8135 13.6794 13.7807 13.7865L15.0451 14.1163L15.0465 14.1177ZM14.7093 14.903C14.6993 14.9201 14.6765 14.9244 14.6608 14.9144L13.5849 14.172C13.6535 14.082 13.7092 13.9821 13.7507 13.875L14.3279 14.1391C14.3464 14.1477 14.3536 14.1691 14.3436 14.1862L14.2893 14.279L14.8694 14.5532C14.8865 14.5617 14.8937 14.5832 14.8837 14.6003L14.7093 14.903ZM13.2706 14.4646L14.0264 15.5298C14.0378 15.5455 14.0607 15.5483 14.075 15.5355L14.3422 15.3113C14.3579 15.2985 14.3579 15.2756 14.345 15.2613L13.895 14.8059L13.9778 14.7374C13.9935 14.7245 13.9935 14.7017 13.9793 14.6874L13.5263 14.2419C13.4506 14.3276 13.3649 14.4033 13.2692 14.4646H13.2706ZM13.2635 15.9153C13.2449 15.9224 13.2249 15.911 13.2192 15.8924L12.8734 14.6331C12.9863 14.6074 13.0934 14.566 13.192 14.5118L13.4649 15.0843C13.4735 15.1029 13.4649 15.1243 13.4463 15.13L13.3449 15.1671L13.6121 15.7496C13.6206 15.7682 13.6121 15.7882 13.5935 15.7953L13.2649 15.9153H13.2635Z" fill="#007DC1"/>
</g>
<defs>
<clipPath id="clip0_2814_2550">
<rect width="16" height="16" fill="white" transform="translate(0.171875 0.709473)"/>
</clipPath>
</defs>
</svg>
