<?xml version="1.0" encoding="UTF-8"?>
<svg id="Layer_1" data-name="Layer 1" xmlns="http://www.w3.org/2000/svg" xmlns:xlink="http://www.w3.org/1999/xlink" viewBox="0 0 35 35">
  <defs>
    <style>
      .cls-1 {
        fill: none;
      }

      .cls-2 {
        fill: #fff;
      }

      .cls-3 {
        fill: #3b48cc;
      }

      .cls-4 {
        clip-path: url(#clippath-1);
      }
    </style>
    <clipPath id="clippath-1">
      <rect class="cls-1" x="0" width="35" height="35"/>
    </clipPath>
  </defs>
  <g class="cls-4">
    <path class="cls-3" d="m35,0H0v35h35V0Z"/>
  </g>
  <g>
    <path class="cls-2" d="m17.5,12.53c-3.85,0-7.93-1.12-7.93-3.18s4.09-3.18,7.93-3.18,7.93,1.12,7.93,3.18-4.09,3.18-7.93,3.18Zm0-5.43c-4.34,0-7,1.31-7,2.25s2.66,2.24,7,2.24,7-1.31,7-2.24-2.66-2.25-7-2.25h0Z"/>
    <g>
      <path class="cls-2" d="m17.5,29.5c-3.85,0-7.93-1.12-7.93-3.18V9.35h.93v16.97c0,.93,2.66,2.25,7,2.25s7-1.31,7-2.25V9.35h.93v16.97c0,2.07-4.09,3.18-7.93,3.18Z"/>
      <path class="cls-2" d="m17.5,29.5c-3.85,0-7.93-1.12-7.93-3.18V9.35h.93v16.97c0,.93,2.66,2.25,7,2.25s7-1.31,7-2.25V9.35h.93v16.97c0,2.07-4.09,3.18-7.93,3.18Z"/>
      <path class="cls-2" d="m16.18,18.75l-.21.91,2.83.64.21-.91-2.83-.64Z"/>
      <path class="cls-2" d="m21.2,15.96l-1.08,2.73.87.34,1.08-2.73-.87-.34Z"/>
      <path class="cls-2" d="m14.05,19.84l-.95,2.23.86.37.95-2.23-.86-.37Z"/>
      <path class="cls-2" d="m13.07,24.96c-.32,0-.64-.1-.91-.28-.27-.18-.48-.43-.6-.73-.12-.3-.16-.63-.09-.94.06-.32.22-.61.45-.84.23-.23.52-.38.84-.45.32-.06.65-.03.94.09.3.12.55.33.73.6.18.27.28.58.28.91,0,.43-.17.85-.48,1.15-.31.31-.72.48-1.15.48h0Zm0-2.33c-.14,0-.27.04-.39.12-.12.08-.2.19-.26.31-.05.13-.07.27-.04.4.03.14.09.26.19.36.1.1.22.16.36.19s.28.01.4-.04c.13-.05.24-.14.31-.26.08-.12.12-.25.12-.39,0-.19-.07-.36-.21-.49-.13-.13-.31-.21-.49-.21h0Z"/>
      <path class="cls-2" d="m14.93,20.58c-.32,0-.64-.1-.91-.28-.27-.18-.48-.43-.6-.73-.12-.3-.16-.63-.09-.94.06-.32.22-.61.45-.84.23-.23.52-.38.84-.45.32-.06.65-.03.94.09.3.12.55.33.73.6.18.27.28.58.28.91,0,.43-.17.85-.48,1.15-.31.31-.72.48-1.15.48Zm0-2.33c-.14,0-.27.04-.39.12-.12.08-.2.19-.26.31-.05.13-.07.27-.04.4.03.14.09.26.19.36s.22.16.36.19c.14.03.28.01.4-.04.13-.05.24-.14.31-.26.08-.12.12-.25.12-.39,0-.19-.07-.36-.21-.49-.13-.13-.31-.21-.49-.21h0Z"/>
      <path class="cls-2" d="m20.07,21.57c-.32,0-.64-.1-.91-.28-.27-.18-.48-.43-.6-.73-.12-.3-.16-.63-.09-.94.06-.32.22-.61.45-.84.23-.23.52-.38.84-.45.32-.06.65-.03.94.09.3.12.55.33.73.6.18.27.28.58.28.91,0,.43-.17.85-.48,1.15-.31.31-.72.48-1.15.48h0Zm0-2.33c-.14,0-.27.04-.39.12-.12.08-.2.19-.26.31-.05.13-.07.27-.04.4.03.14.09.26.19.36.1.1.22.16.36.19.14.03.28.01.4-.04.13-.05.24-.14.31-.26.08-.12.12-.25.12-.39,0-.19-.07-.36-.21-.5-.13-.13-.31-.2-.49-.2Z"/>
      <path class="cls-2" d="m21.93,16.67c-.32,0-.64-.1-.91-.28-.27-.18-.48-.43-.6-.73-.12-.3-.16-.63-.09-.94.06-.32.22-.61.45-.84.23-.23.52-.38.84-.45.32-.06.65-.03.94.09.3.12.55.33.73.6.18.27.28.58.28.91v.02c0,.43-.18.84-.49,1.14-.31.3-.72.47-1.15.47Zm0-2.33c-.14,0-.27.04-.39.12-.11.08-.2.18-.26.31-.05.13-.07.27-.04.4.03.14.09.26.19.36.1.1.22.17.35.2.13.03.27.02.4-.03.13-.05.24-.14.32-.25.08-.11.12-.24.13-.38,0-.09-.01-.19-.05-.28-.03-.09-.08-.17-.15-.24-.07-.07-.14-.12-.23-.16-.09-.04-.18-.06-.27-.06Z"/>
    </g>
  </g>
  <g>
    <rect class="cls-3" x="22.44" y="24.06" width="8.1" height="5.9"/>
    <rect class="cls-3" x="24.78" y="19.93" width="3.58" height="5.9"/>
    <g>
      <g>
        <path class="cls-2" d="m22.12,31.28c-.25,0-.48-.1-.66-.27-.17-.17-.27-.41-.27-.65v-6.76c0-.25.1-.48.27-.65s.41-.27.65-.27h1.06v-1.08c0-.89.33-1.73.96-2.37.61-.63,1.47-.99,2.35-1,.45,0,.88.09,1.28.26.41.18.77.42,1.07.74.61.65.95,1.49.94,2.38v1.06h1.08c.25,0,.48.1.65.27.18.18.27.41.27.66v6.76c0,.24-.1.48-.27.65s-.41.27-.65.27h-8.74Zm7.82-1.85v-4.91h-6.9v4.91h6.9Zm-1.99-6.76v-1.05c0-.41-.16-.81-.44-1.11-.13-.14-.29-.25-.46-.32-.17-.07-.36-.11-.55-.11v-.5.5c-.4,0-.77.17-1.05.45s-.43.66-.42,1.06v1.08h2.92Z"/>
        <path class="cls-3" d="m26.5,18.73c.37,0,.74.07,1.07.22.34.15.65.36.9.63.52.55.81,1.28.81,2.04v1.56h1.58c.11,0,.22.04.3.12.08.08.12.19.12.3v6.76c0,.11-.04.22-.12.3-.08.08-.19.12-.3.12h-8.74c-.11,0-.22-.04-.3-.12-.08-.08-.12-.19-.12-.3v-6.76c0-.11.04-.22.12-.3.08-.08.19-.12.3-.12h1.56v-1.58c0-.75.29-1.48.81-2.01.53-.54,1.25-.84,2-.85,0,0,0,0,0,0m-1.97,4.44h3.92v-1.55c0-.54-.2-1.06-.57-1.45-.18-.19-.39-.34-.63-.44-.24-.1-.49-.15-.74-.15,0,0,0,0,0,0-.53,0-1.03.23-1.4.6-.37.38-.57.89-.57,1.41v1.58m-1.98,6.76h7.9v-5.91h-7.9v5.91m3.95-12.2h0c-1.04.01-2,.42-2.71,1.15-.72.73-1.11,1.7-1.1,2.72v.57h-.56c-.38,0-.74.15-1.01.42-.27.27-.42.63-.42,1.01v6.76c0,.38.15.74.42,1.01.27.27.63.42,1.01.42h8.74c.38,0,.74-.15,1.01-.42.27-.27.42-.63.42-1.01v-6.76c0-.38-.15-.74-.42-1.01-.27-.27-.63-.42-1.01-.42h-.58v-.57c0-1.01-.38-1.98-1.08-2.72-.35-.37-.77-.66-1.24-.86-.47-.2-.96-.3-1.47-.3h0Zm-.97,4.44v-.58c0-.28.1-.53.28-.72.18-.19.43-.3.7-.3.11,0,.23.02.34.07.11.05.21.12.3.21.19.21.3.48.3.76v.55h-1.92Zm-1.98,2.85h5.9v3.91h-5.9v-3.91h0Z"/>
      </g>
      <g>
        <path class="cls-2" d="m25.57,29.44v-1.32s-.09-.05-.13-.08c-.32-.21-.56-.51-.71-.86-.15-.35-.19-.74-.11-1.11.08-.38.26-.72.52-.99.27-.27.61-.45.98-.53.12-.03.25-.04.38-.04.25,0,.5.05.73.15.35.15.65.39.86.71.21.32.32.69.32,1.07,0,.51-.2.99-.56,1.36-.12.12-.27.23-.43.31v1.33h-1.85Z"/>
        <path class="cls-3" d="m26.5,25.01c.19,0,.37.04.54.11.26.11.48.29.64.52.16.23.24.51.24.79,0,.38-.15.74-.41,1-.16.16-.36.26-.58.33v1.17h-.85v-1.15c-.12-.04-.25-.1-.36-.17-.23-.16-.42-.38-.53-.64-.11-.26-.14-.55-.08-.82.05-.28.19-.53.39-.73.2-.2.45-.33.73-.39.09-.02.19-.03.28-.03m0,2c.08,0,.15-.01.22-.04.1-.04.19-.12.26-.21.06-.09.1-.21.09-.32,0-.15-.06-.3-.17-.4-.11-.11-.25-.17-.4-.17,0,0,0,0,0,0-.11,0-.22.03-.32.09-.09.06-.17.15-.21.26-.04.1-.06.22-.03.33.02.11.08.21.16.29.08.08.18.13.29.16.04,0,.07.01.11.01m0-3c-.16,0-.32.02-.47.05-.47.09-.9.32-1.24.66-.34.34-.57.77-.66,1.24-.09.47-.04.96.14,1.4.17.41.45.77.81,1.03v.54s0,1,0,1h2.85v-1s0-.55,0-.55c.1-.07.2-.15.29-.24.46-.46.71-1.06.71-1.71,0-.48-.14-.95-.41-1.35-.27-.4-.64-.71-1.09-.89-.29-.12-.61-.18-.92-.18h0Z"/>
      </g>
    </g>
  </g>
</svg>