<svg viewBox="0 0 100 100" fill="none" xmlns="http://www.w3.org/2000/svg">
<g clip-path="url(#clip0_531_4397)">
<path d="M100 0H0V100H100V0Z" fill="url(#paint0_linear_531_4397)"/>
<path d="M49.5239 32.6744C54.7721 32.6744 60.0215 32.6889 65.2697 32.6621C66.3871 32.6566 67.3185 33.3332 67.3074 34.6998C67.2551 41.3202 67.2818 47.9417 67.2785 54.5621C67.2785 55.922 66.7276 56.4707 65.3677 56.4707C60.8428 56.4707 56.3168 56.4785 51.7919 56.454C51.2232 56.4507 51.063 56.6076 51.0774 57.1673C51.1142 58.5762 51.0874 59.9862 51.0874 61.3951C51.0874 61.9048 51.3364 62.1604 51.8342 62.1619C56.3034 62.1619 60.7738 62.173 65.243 62.1485C66.5039 62.1418 67.373 62.8719 67.2929 64.1672C67.2172 65.3869 67.2818 66.6144 67.2718 67.8386C67.2696 68.1468 67.3341 68.3571 67.6646 68.4707C70.0461 69.2953 71.3894 70.9946 71.6242 73.4763C71.8545 75.9179 70.962 77.92 68.8142 79.1953C65.5869 81.1116 61.0475 79.764 59.9336 75.692C59.1167 72.7084 60.5813 69.6714 63.4591 68.5597C64.0879 68.3171 64.1814 68.0255 64.1569 67.4847C64.1324 66.9293 64.1313 66.3707 64.1569 65.8165C64.1758 65.4225 64.0256 65.3023 63.6439 65.3068C62.3273 65.3224 61.0108 65.3101 59.6932 65.3101C57.0413 65.3101 54.3893 65.3213 51.7374 65.2979C51.2332 65.2934 51.0496 65.4348 51.0574 65.95C51.0808 67.5448 51.073 69.1395 51.0574 70.7342C51.0541 71.1182 51.1687 71.2962 51.5626 71.4398C55.8449 72.9978 56.6373 78.3217 53.7561 81.2474C52.3539 82.6708 50.5844 83.235 48.5512 82.9111C46.6571 82.6096 45.2872 81.6213 44.3012 80.0043C43.0259 77.9155 43.3497 74.8106 45.0446 73.0134C45.7557 72.2588 46.5837 71.7002 47.5652 71.3841C47.8713 71.2862 47.977 71.1382 47.9748 70.831C47.9659 69.1807 47.9636 67.5303 47.9748 65.8788C47.977 65.4849 47.8457 65.3012 47.4306 65.3023C43.3876 65.3079 39.3445 65.3068 35.3015 65.3001C34.9476 65.3001 34.7985 65.4403 34.8052 65.7976C34.8174 66.502 34.7785 67.2087 34.8274 67.9109C34.8408 68.1068 35.0545 68.4006 35.237 68.4573C37.959 69.3031 39.8609 72.3245 39.063 75.514C38.4665 77.8988 36.9396 79.449 34.6015 79.8964C31.4388 80.5018 28.71 79.1975 27.6016 75.9435C26.5589 72.8809 28.1725 69.4778 31.3275 68.4529C31.49 68.4006 31.6547 68.0723 31.6602 67.8675C31.6914 66.7001 31.7003 65.5305 31.6691 64.3631C31.628 62.8552 32.4192 62.144 33.8926 62.1552C38.3252 62.1886 42.7577 62.1652 47.1902 62.163C47.7088 62.163 47.9685 61.8955 47.9692 61.3606C47.9692 59.9884 47.9692 58.6163 47.9681 57.243C47.9681 56.7252 47.6999 56.4659 47.1635 56.4651C42.6386 56.4629 38.1126 56.434 33.5877 56.4774C32.3858 56.4885 31.6758 55.8297 31.6747 54.5176C31.668 47.8972 31.6669 41.2757 31.6669 34.6553C31.6669 33.3811 32.3725 32.6877 33.6667 32.6877C38.9528 32.6855 44.2378 32.6877 49.5239 32.6877V32.6755V32.6744ZM37.8132 35.9084C37.9156 36.0285 37.9624 36.1042 38.028 36.1588C41.7249 39.1913 45.423 42.2205 49.1199 45.253C49.3892 45.4734 49.5895 45.4578 49.8778 45.2197C53.4701 42.2561 57.0757 39.3093 60.6836 36.3646C60.8049 36.2656 60.9841 36.2367 61.1355 36.1743L60.9474 35.9084H37.8121H37.8132ZM61.3224 53.3191L61.3925 53.2178C61.3191 53.1677 61.239 53.1254 61.1722 53.0676C58.7261 50.9231 56.2789 48.7797 53.8407 46.6263C53.5513 46.3704 53.3343 46.4216 53.0694 46.6441C52.2693 47.3163 51.4569 47.9729 50.6512 48.6384C49.8844 49.2705 49.1077 49.2827 48.3387 48.6562C47.5441 48.0085 46.7451 47.3653 45.9739 46.6909C45.6211 46.3826 45.3829 46.3993 45.0324 46.712C43.155 48.3869 41.2553 50.035 39.3635 51.6921C38.7792 52.204 38.1927 52.7137 37.4994 53.3191H61.3247H61.3224ZM34.9899 37.7234C34.9443 37.7513 34.8987 37.7791 34.853 37.8069V51.4038C35.05 51.2647 35.188 51.1857 35.306 51.0822C37.7442 48.9566 40.177 46.8244 42.6208 44.7055C42.9569 44.4151 42.9647 44.2303 42.6108 43.9443C40.4541 42.2016 38.3118 40.441 36.1651 38.6861C35.7723 38.3656 35.3816 38.0439 34.9888 37.7223L34.9899 37.7234ZM64.1035 51.4439V37.6411C61.3447 39.8968 58.6772 42.0769 55.9484 44.3082C58.6849 46.7031 61.3591 49.0435 64.1035 51.4439ZM30.4361 74.0628C30.2792 75.5585 31.658 76.964 33.2539 76.9329C34.932 76.8995 36.1373 75.7655 36.1495 74.1151C36.1618 72.4391 34.9053 71.2194 33.2717 71.1894C31.8695 71.1638 30.3293 72.3545 30.4361 74.0628ZM52.3505 77.0831C52.3817 75.4383 51.1932 74.2164 49.5417 74.1952C47.9036 74.173 46.6327 75.3515 46.6115 76.9262C46.587 78.6967 47.8624 79.8519 49.4048 79.9264C50.9194 79.9999 52.385 78.7323 52.3505 77.0831ZM65.6759 76.8872C67.1994 77.0453 68.566 75.7221 68.5482 74.0839C68.5282 72.2177 67.1382 71.1849 65.696 71.2139C64.0645 71.2461 62.8782 72.2566 62.8337 74.0917C62.797 75.5874 63.9699 76.9941 65.6748 76.8883L65.6759 76.8872Z" fill="black"/>
<path d="M25.6743 68.8592C24.9576 69.3766 24.2488 69.8696 23.5621 70.3927C23.1693 70.692 23.0146 70.3782 22.8833 70.1412C21.9017 68.3617 20.8601 66.609 19.9887 64.775C19.0172 62.7295 18.4074 60.5483 17.9166 58.3304C17.4403 56.1815 17.1498 54.0225 17.0352 51.8246C16.9139 49.5176 17.1164 47.2463 17.4848 44.9749C18.2226 40.4211 19.9197 36.2412 22.4782 32.4297C25.1257 28.4857 28.4799 25.2562 32.5585 22.7712C35.0613 21.2465 37.6977 20.0591 40.4999 19.2489C42.5353 18.6602 44.6074 18.2062 46.7397 18.1305C48.2543 18.0771 49.7778 17.9324 51.2824 18.037C53.1197 18.1661 54.9737 18.3776 56.7654 18.7927C62.5701 20.137 67.6648 22.8735 71.9727 27.0022C74.8171 29.7276 77.0974 32.8681 78.8034 36.4382C79.6814 38.2744 80.4059 40.1596 80.9301 42.1127C81.767 45.2342 82.1731 48.4248 81.9784 51.6588C81.8671 53.4983 81.7102 55.3524 81.3585 57.1574C80.7832 60.1188 79.9886 63.0333 78.563 65.7242C77.7562 67.2477 76.8949 68.7434 76.0546 70.2491C75.8911 70.5429 75.6852 70.6153 75.3847 70.3893C74.8127 69.9564 74.2206 69.5491 73.6375 69.1296C73.3537 68.9259 73.2925 68.7367 73.5207 68.3984C74.9718 66.2562 76.1192 63.9526 76.9394 61.5009C77.3812 60.18 77.7885 58.8356 78.0489 57.4701C78.4028 55.6106 78.6743 53.7276 78.8412 51.8424C78.9447 50.6717 78.8001 49.4776 78.7522 48.2946C78.6476 45.7328 78.0667 43.2556 77.232 40.8529C76.1993 37.8816 74.7081 35.1373 72.7717 32.6422C71.4875 30.9874 70.0663 29.4628 68.466 28.114C66.0856 26.1064 63.4749 24.4605 60.5647 23.3343C59.1959 22.8045 57.8026 22.3138 56.3848 21.9432C54.493 21.4502 52.5455 21.172 50.5891 21.1864C48.666 21.1998 46.723 21.2254 44.8267 21.5047C43.1106 21.7573 41.4291 22.3038 39.7643 22.8212C36.8397 23.7316 34.1933 25.2239 31.7739 27.0701C28.0759 29.8912 25.1546 33.3867 23.1047 37.5833C22.0854 39.6688 21.3275 41.8378 20.8122 44.1069C20.2714 46.4851 20.0355 48.8855 20.1045 51.3093C20.1824 54.067 20.6164 56.7757 21.3676 59.4399C22.2901 62.7139 23.6511 65.7743 25.5564 68.5932C25.6042 68.6633 25.6276 68.749 25.6743 68.8558V68.8592Z" fill="black"/>
</g>
<defs>
<linearGradient id="paint0_linear_531_4397" x1="-20.7067" y1="120.707" x2="120.707" y2="-20.7067" gradientUnits="userSpaceOnUse">
<stop stop-color="#BD0816"/>
<stop offset="1" stop-color="#FF5252"/>
</linearGradient>
<clipPath id="clip0_531_4397">
<rect width="100" height="100" fill="white"/>
</clipPath>
</defs>
</svg>
