<svg width="225" height="30" viewBox="0 0 225 30" fill="none" xmlns="http://www.w3.org/2000/svg">
<path d="M17.9253 5.06957C13.444 5.36045 1.06425 9.50694 6.1598 17.0015C8.39596 19.7604 11.8563 20.6389 13.7423 23.7866C14.8596 26.2576 13.9663 28.3442 12.162 30.0078C8.20455 29.9796 2.30327 22.8086 0.739288 19.0777C-0.92411 15.1093 0.739288 1.69481 0.739288 1.69481C0.739288 1.69481 5.37484 0 12.1872 0C18.2502 0 23.6336 1.69481 23.6336 1.69481C23.6336 1.69481 25.0463 13.088 23.966 17.981C17.9075 14.4222 10.3606 12.4127 13.4826 8.52152C14.2839 7.38472 15.4027 6.99144 16.5571 6.41266C16.9563 6.21231 18.918 5.76857 17.9253 5.06957Z" fill="black"/>
<g clip-path="url(#clip0_203_83)">
<path d="M36.1823 22.44C35.2623 22.0375 34.5339 21.4817 33.9972 20.7341C33.4605 19.9866 33.1922 19.1241 33.173 18.1082H36.719C36.7573 18.7791 37.0065 19.3157 37.4474 19.7183C37.8882 20.1208 38.4824 20.3124 39.2299 20.3124C39.9774 20.3124 40.61 20.1208 41.0508 19.7566C41.4917 19.3924 41.7217 18.8941 41.7217 18.2999C41.7217 17.8207 41.5683 17.4182 41.2808 17.0923C40.9741 16.7857 40.61 16.5365 40.15 16.3448C39.7091 16.1723 39.0766 15.9615 38.2907 15.7506C37.2173 15.4439 36.3548 15.1181 35.684 14.8114C35.0131 14.5047 34.4381 14.0447 33.9589 13.4122C33.4605 12.7988 33.2114 11.9746 33.2114 10.9204C33.2114 9.94291 33.4605 9.09954 33.9397 8.37118C34.4189 7.64282 35.1089 7.08697 35.9906 6.70362C36.8723 6.32027 37.8882 6.1286 39.0191 6.1286C40.725 6.1286 42.105 6.55028 43.1784 7.37448C44.2518 8.19868 44.8268 9.34872 44.9418 10.8438H41.3C41.2617 10.2688 41.0317 9.80873 40.5716 9.44455C40.1308 9.08037 39.5174 8.8887 38.7891 8.8887C38.1374 8.8887 37.6199 9.06121 37.2365 9.38705C36.8532 9.7129 36.6615 10.1921 36.6615 10.8246C36.6615 11.2655 36.8148 11.6296 37.1023 11.9171C37.3899 12.2047 37.754 12.4538 38.1949 12.6263C38.6357 12.7988 39.2299 13.0097 40.0349 13.2589C41.1083 13.5655 41.99 13.8914 42.6609 14.1981C43.3317 14.5047 43.9259 14.9839 44.4051 15.6164C44.8843 16.249 45.1335 17.0732 45.1335 18.1082C45.1335 18.9899 44.9035 19.8141 44.4434 20.5616C43.9834 21.3091 43.3126 21.9225 42.4309 22.3634C41.5492 22.8042 40.495 23.0342 39.2874 23.0342C38.1374 23.0342 37.1023 22.8425 36.1823 22.44Z" fill="#16161A"/>
<path d="M51.8612 12.4921V18.8365C51.8612 19.2774 51.9763 19.6032 52.1871 19.7949C52.3979 19.9865 52.7621 20.0824 53.2605 20.0824H54.7939V22.8808H52.7046C49.9062 22.8808 48.5261 21.5199 48.5261 18.8173V12.5113H46.9736V9.78952H48.5261V6.55023H51.8612V9.78952H54.7939V12.5113H51.8612V12.4921Z" fill="#16161A"/>
<path d="M62.1541 10.1729C62.8441 9.77041 63.63 9.57874 64.5117 9.57874V13.048H63.63C62.595 13.048 61.8091 13.2972 61.2724 13.7764C60.7357 14.2747 60.4865 15.1181 60.4865 16.3256V22.8617H57.1706V9.77041H60.4865V11.8021C60.9082 11.1121 61.4641 10.5563 62.1541 10.1729Z" fill="#16161A"/>
<path d="M78.8105 17.3032H69.2268C69.3035 18.2424 69.6293 18.9899 70.2235 19.5266C70.7985 20.0633 71.5269 20.3316 72.3703 20.3316C73.597 20.3316 74.4787 19.7949 74.9962 18.7407H78.5613C78.178 20.0058 77.4496 21.0408 76.3762 21.8458C75.3029 22.6509 73.9803 23.0726 72.4278 23.0726C71.1627 23.0726 70.0318 22.785 69.0351 22.2292C68.0384 21.6733 67.2526 20.8683 66.6967 19.8524C66.1409 18.8366 65.8534 17.6482 65.8534 16.3065C65.8534 14.9648 66.1217 13.7572 66.6776 12.7414C67.2334 11.7255 68.0001 10.9205 68.9968 10.3838C69.9935 9.82791 71.1244 9.55957 72.4278 9.55957C73.7311 9.55957 74.7854 9.82791 75.7821 10.3646C76.7596 10.9013 77.5263 11.668 78.0821 12.6455C78.6188 13.6231 78.9063 14.7539 78.9063 16.0381C78.9063 16.5173 78.868 16.939 78.8105 17.3224V17.3032ZM75.4754 15.0798C75.4754 14.2364 75.1495 13.5464 74.5553 13.0289C73.9612 12.5113 73.2136 12.2622 72.3511 12.2622C71.5269 12.2622 70.8369 12.5113 70.281 13.0097C69.7252 13.508 69.3802 14.1981 69.246 15.0798H75.4754Z" fill="#16161A"/>
<path d="M81.264 12.7414C81.8007 11.7255 82.5099 10.9205 83.4107 10.3838C84.3116 9.82791 85.3275 9.55957 86.4583 9.55957C87.4359 9.55957 88.2984 9.75124 89.0268 10.1538C89.7551 10.5563 90.3493 11.0355 90.7902 11.6488V9.78958H94.1253V22.9001H90.7902V20.9833C90.3685 21.5967 89.7743 22.1142 89.0268 22.5167C88.2792 22.9192 87.4167 23.1109 86.4392 23.1109C85.3275 23.1109 84.3308 22.8234 83.4299 22.2675C82.529 21.6925 81.8007 20.9066 81.2831 19.8716C80.7465 18.8366 80.4973 17.6482 80.4973 16.3065C80.4973 14.9648 80.7656 13.8147 81.2831 12.7797L81.264 12.7414ZM90.311 14.2364C90.0043 13.6614 89.5634 13.2205 89.0268 12.9139C88.4901 12.6072 87.9151 12.4538 87.3017 12.4538C86.6883 12.4538 86.1133 12.6072 85.5958 12.8947C85.0783 13.2014 84.6566 13.6231 84.3308 14.1981C84.0049 14.7731 83.8516 15.4631 83.8516 16.249C83.8516 17.0348 84.0049 17.7249 84.3308 18.3191C84.6566 18.9132 85.0783 19.3733 85.615 19.6799C86.1517 19.9866 86.7075 20.1591 87.3017 20.1591C87.8959 20.1591 88.4901 20.0058 89.0268 19.6991C89.5634 19.3924 89.9851 18.9516 90.311 18.3766C90.6176 17.8015 90.7902 17.1115 90.7902 16.3065C90.7902 15.5015 90.6368 14.8114 90.311 14.2364Z" fill="#16161A"/>
<path d="M117.529 11.0546C118.506 12.0322 119.004 13.4122 119.004 15.1756V22.8617H115.688V15.6165C115.688 14.6006 115.42 13.8147 114.903 13.2589C114.385 12.7222 113.676 12.4347 112.775 12.4347C111.874 12.4347 111.165 12.703 110.628 13.2589C110.092 13.7956 109.842 14.5814 109.842 15.6165V22.8617H106.526V15.6165C106.526 14.6006 106.258 13.8147 105.741 13.2589C105.223 12.7222 104.514 12.4347 103.613 12.4347C102.712 12.4347 101.984 12.703 101.447 13.2589C100.91 13.7956 100.661 14.5814 100.661 15.6165V22.8617H97.3453V9.77041H100.661V11.3613C101.083 10.8054 101.639 10.3838 102.31 10.0579C102.981 9.75124 103.709 9.57874 104.514 9.57874C105.53 9.57874 106.45 9.78958 107.255 10.2304C108.06 10.6713 108.673 11.2846 109.114 12.0897C109.536 11.3421 110.149 10.7288 110.973 10.2688C111.778 9.80874 112.66 9.57874 113.618 9.57874C115.228 9.57874 116.532 10.0771 117.509 11.0546H117.529Z" fill="#16161A"/>
<path d="M122.129 22.4784C121.745 22.1142 121.554 21.6542 121.554 21.0983C121.554 20.5425 121.745 20.0824 122.129 19.7183C122.512 19.3541 123.01 19.1624 123.605 19.1624C124.199 19.1624 124.678 19.3541 125.042 19.7183C125.426 20.0824 125.617 20.5425 125.617 21.0983C125.617 21.6542 125.426 22.1142 125.042 22.4784C124.659 22.8425 124.18 23.0342 123.605 23.0342C123.03 23.0342 122.512 22.8425 122.129 22.4784Z" fill="#16161A"/>
<path d="M130.888 22.44C129.968 22.0375 129.24 21.4817 128.703 20.7341C128.166 19.9866 127.898 19.1241 127.879 18.1082H131.425C131.463 18.7791 131.712 19.3157 132.153 19.7183C132.594 20.1208 133.188 20.3124 133.936 20.3124C134.683 20.3124 135.316 20.1208 135.757 19.7566C136.198 19.3924 136.428 18.8941 136.428 18.2999C136.428 17.8207 136.274 17.4182 135.987 17.0923C135.68 16.7857 135.316 16.5365 134.856 16.3448C134.415 16.1723 133.782 15.9615 132.997 15.7506C131.923 15.4439 131.061 15.1181 130.39 14.8114C129.719 14.5047 129.144 14.0447 128.665 13.4122C128.186 12.7988 127.936 11.9555 127.936 10.9204C127.936 9.94291 128.186 9.09954 128.665 8.37118C129.144 7.64282 129.834 7.08697 130.716 6.70362C131.597 6.32027 132.613 6.1286 133.744 6.1286C135.45 6.1286 136.83 6.55028 137.903 7.37448C138.977 8.19868 139.552 9.34872 139.667 10.8438H136.025C135.987 10.2688 135.757 9.80873 135.297 9.44455C134.856 9.08037 134.242 8.8887 133.514 8.8887C132.862 8.8887 132.345 9.06121 131.962 9.38705C131.578 9.7129 131.387 10.1921 131.387 10.8246C131.387 11.2655 131.54 11.6296 131.827 11.9171C132.115 12.2047 132.479 12.4538 132.92 12.6263C133.361 12.7988 133.955 13.0097 134.76 13.2589C135.833 13.5655 136.715 13.8914 137.386 14.1981C138.057 14.5047 138.651 14.9839 139.13 15.6164C139.609 16.249 139.859 17.0732 139.859 18.1082C139.859 18.9899 139.628 19.8141 139.168 20.5616C138.708 21.3091 138.038 21.9225 137.156 22.3634C136.274 22.8042 135.22 23.0342 134.012 23.0342C132.862 23.0342 131.827 22.8425 130.907 22.44H130.888Z" fill="#16161A"/>
<path d="M154.79 17.3032H145.206C145.283 18.2424 145.609 18.9899 146.203 19.5266C146.778 20.0633 147.506 20.3316 148.35 20.3316C149.576 20.3316 150.458 19.7949 150.976 18.7407H154.541C154.157 20.0058 153.429 21.0408 152.356 21.8458C151.282 22.6509 149.96 23.0726 148.407 23.0726C147.142 23.0726 146.011 22.785 145.015 22.2292C144.018 21.6733 143.232 20.8683 142.676 19.8524C142.12 18.8366 141.833 17.6482 141.833 16.3065C141.833 14.9648 142.101 13.7572 142.657 12.7414C143.213 11.7255 143.98 10.9205 144.976 10.3838C145.973 9.82791 147.104 9.55957 148.407 9.55957C149.711 9.55957 150.765 9.82791 151.761 10.3646C152.739 10.9013 153.506 11.668 154.062 12.6455C154.598 13.6231 154.886 14.7539 154.886 16.0381C154.886 16.5173 154.847 16.939 154.79 17.3224V17.3032ZM151.455 15.0798C151.455 14.2364 151.129 13.5464 150.535 13.0289C149.941 12.5113 149.193 12.2622 148.331 12.2622C147.506 12.2622 146.816 12.5113 146.26 13.0097C145.705 13.508 145.36 14.1981 145.225 15.0798H151.455Z" fill="#16161A"/>
<path d="M157.263 12.7605C157.818 11.7446 158.585 10.9588 159.563 10.4029C160.54 9.84708 161.652 9.55957 162.917 9.55957C164.546 9.55957 165.888 9.96208 166.942 10.7863C168.015 11.5913 168.725 12.7414 169.089 14.1981H165.524C165.332 13.6231 165.006 13.1822 164.565 12.8564C164.124 12.5305 163.569 12.3772 162.898 12.3772C161.959 12.3772 161.211 12.7222 160.655 13.4122C160.099 14.1022 159.831 15.0798 159.831 16.3256C159.831 17.5715 160.099 18.5299 160.655 19.2199C161.211 19.9099 161.959 20.255 162.898 20.255C164.239 20.255 165.121 19.6608 165.524 18.4532H169.089C168.725 19.8716 168.015 21.0025 166.942 21.8267C165.869 22.67 164.527 23.0726 162.917 23.0726C161.652 23.0726 160.54 22.785 159.563 22.2292C158.585 21.6733 157.818 20.8875 157.263 19.8716C156.707 18.8557 156.438 17.6674 156.438 16.3065C156.438 14.9456 156.707 13.7572 157.263 12.7414V12.7605Z" fill="#16161A"/>
<path d="M183.905 9.77051V22.881H180.57V21.2326C180.148 21.8076 179.592 22.2485 178.902 22.5743C178.212 22.9001 177.465 23.0535 176.66 23.0535C175.644 23.0535 174.724 22.8426 173.938 22.4018C173.152 21.9609 172.539 21.3284 172.079 20.4851C171.638 19.6417 171.408 18.645 171.408 17.4758V9.77051H174.724V16.9774C174.724 18.0125 174.992 18.8175 175.51 19.3734C176.027 19.9292 176.737 20.2167 177.637 20.2167C178.538 20.2167 179.267 19.9292 179.784 19.3734C180.302 18.8175 180.57 18.0125 180.57 16.9774V9.77051H183.905Z" fill="#16161A"/>
<path d="M192.147 10.1729C192.837 9.77041 193.623 9.57874 194.505 9.57874V13.048H193.623C192.588 13.048 191.802 13.2972 191.265 13.7764C190.729 14.2747 190.479 15.1181 190.479 16.3256V22.8617H187.164V9.77041H190.479V11.8021C190.901 11.1121 191.457 10.5563 192.147 10.1729Z" fill="#16161A"/>
<path d="M196.939 7.64286C196.556 7.27868 196.364 6.81866 196.364 6.26281C196.364 5.70695 196.556 5.24694 196.939 4.88276C197.322 4.51858 197.801 4.3269 198.396 4.3269C198.99 4.3269 199.469 4.51858 199.852 4.88276C200.236 5.24694 200.427 5.70695 200.427 6.26281C200.427 6.81866 200.236 7.27868 199.852 7.64286C199.469 8.00704 198.99 8.19871 198.396 8.19871C197.801 8.19871 197.322 8.00704 196.939 7.64286ZM200.025 9.75127V22.8617H196.709V9.77043H200.025V9.75127Z" fill="#16161A"/>
<path d="M207.136 12.4921V18.8365C207.136 19.2774 207.251 19.6032 207.462 19.7949C207.673 19.9865 208.037 20.0824 208.535 20.0824H210.069V22.8808H207.979C205.181 22.8808 203.801 21.5199 203.801 18.8173V12.5113H202.248V9.78952H203.801V6.55023H207.136V9.78952H210.069V12.5113H207.136V12.4921Z" fill="#16161A"/>
<path d="M225 9.77051L216.892 29.072H213.365L216.202 22.536L210.95 9.77051H214.669L218.042 18.9325L221.473 9.77051H225Z" fill="#16161A"/>
</g>
<defs>
<clipPath id="clip0_203_83">
<rect width="191.827" height="24.7451" fill="white" transform="translate(33.1731 4.3269)"/>
</clipPath>
</defs>
</svg>
