<svg width="155" height="31" viewBox="0 0 155 31" fill="none" xmlns="http://www.w3.org/2000/svg">
	<g clip-path="url(#clip0_351_591)">
		<path fill-rule="evenodd" clip-rule="evenodd" d="M29.7878 6.42404C31.0956 6.03696 32.3079 5.67811 33.3999 5.10838C35.907 3.80166 36.7825 0 34.3998 0H1.39946C-0.983268 0 -0.107808 3.80166 2.39927 5.10838C3.73514 5.80596 9.80455 6.57197 12.0915 6.69213L11.5891 8.32594L6.4741 24.9511C5.74651 27.3159 10.1457 27.8015 11.8126 24.8443C12.1174 24.3042 12.4677 23.6393 12.8632 22.8884C14.153 20.4402 15.9247 17.0769 18.1777 14.1369C19.1456 12.8703 20.2025 11.6854 21.3485 10.6824C22.5164 9.6627 23.659 8.90838 24.7647 8.32428C26.5457 7.38367 28.234 6.88393 29.7878 6.42404ZM27.5124 10.6825H31.3133C33.6961 10.6825 31.846 16.7071 29.4599 16.7071H21.9925C19.8131 16.7071 24.6978 10.6825 27.5124 10.6825Z" fill="url(#paint0_linear_351_591)" />
		<path d="M54.1038 26.5181C52.7646 26.5181 51.6757 26.2628 50.8389 25.7521C50.0004 25.2414 49.3904 24.5171 49.009 23.5776C48.6259 22.6397 48.4343 21.5282 48.4343 20.2448V10.8358H45.6349C45.3963 10.8358 45.198 10.759 45.0434 10.6038C44.8871 10.4503 44.8098 10.2534 44.8098 10.0164V8.80481C44.8098 8.56783 44.8871 8.37091 45.0434 8.21737C45.198 8.06384 45.3963 7.9854 45.6349 7.9854H48.4343V0.866041C48.4343 0.629063 48.5116 0.432138 48.6679 0.278602C48.8225 0.125067 49.0208 0.0466309 49.2594 0.0466309H50.9464C51.185 0.0466309 51.3833 0.123398 51.5379 0.278602C51.6925 0.433806 51.7715 0.629063 51.7715 0.866041V7.9854H63.4011C63.6398 7.9854 63.838 8.06217 63.9926 8.21737C64.1472 8.37258 64.2262 8.56783 64.2262 8.80481V10.0164C64.2262 10.2534 64.1489 10.4503 63.9926 10.6038C63.8364 10.759 63.6398 10.8358 63.4011 10.8358H51.7715V19.9945C51.7715 21.111 51.963 21.9905 52.3462 22.6313C52.7293 23.2722 53.4098 23.5943 54.3911 23.5943H56.5806C56.8192 23.5943 57.0175 23.671 57.1721 23.8262C57.3267 23.9814 57.4057 24.1767 57.4057 24.4137V25.697C57.4057 25.934 57.3284 26.1309 57.1721 26.2845C57.0158 26.4397 56.8192 26.5164 56.5806 26.5164H54.1038V26.5181Z" fill="#464646" />
		<path d="M65.1789 26.5185C64.9403 26.5185 64.742 26.4418 64.5874 26.2866C64.4312 26.133 64.3539 25.9361 64.3539 25.6991V10.8379H61.304C61.0654 10.8379 60.8672 10.7612 60.7126 10.606C60.5563 10.4524 60.479 10.2555 60.479 10.0185V8.80693C60.479 8.56995 60.5563 8.37303 60.7126 8.21949C60.8672 8.06596 61.0654 7.98752 61.304 7.98752H64.3539V6.20518C64.3539 4.99359 64.5572 3.93052 64.9638 3.01599C65.3705 2.10145 66.0225 1.39386 66.9198 0.894866C67.8171 0.395877 69.0185 0.147217 70.5258 0.147217H75.3904C75.629 0.147217 75.8205 0.223984 75.9651 0.379188C76.1079 0.534392 76.1801 0.729649 76.1801 0.966627V2.17822C76.1801 2.4152 76.1079 2.61212 75.9651 2.76566C75.8222 2.92086 75.629 2.99763 75.3904 2.99763H70.598C69.4739 2.99763 68.7077 3.28968 68.301 3.87044C67.8944 4.45288 67.691 5.29064 67.691 6.38375V7.98752H72.3204C72.559 7.98752 72.7506 8.06429 72.8951 8.21949C73.0379 8.3747 73.1102 8.56995 73.1102 8.80693V10.0185C73.1102 10.2555 73.0379 10.4524 72.8951 10.606C72.7522 10.7612 72.559 10.8379 72.3204 10.8379H67.691V25.6991C67.691 25.9361 67.6137 26.133 67.4575 26.2866C67.3012 26.4418 67.1046 26.5185 66.866 26.5185H65.1789Z" fill="#464646" />
		<path d="M80.1676 26.5181C79.8887 26.5181 79.6736 26.4364 79.5224 26.2728C79.3711 26.1093 79.2955 25.9023 79.2955 25.6503V1.04466C79.2955 0.769297 79.3711 0.549007 79.5224 0.385459C79.6736 0.221911 79.8887 0.140137 80.1676 0.140137H89.4263C92.2846 0.140137 94.548 0.806012 96.2183 2.13776C97.8885 3.46951 98.722 5.44211 98.722 8.05387C98.722 9.98808 98.2347 11.5652 97.2618 12.7834C96.2872 14.0017 94.9664 14.8495 93.2962 15.3268L99.1387 25.3499C99.2143 25.5001 99.253 25.6387 99.253 25.7638C99.253 25.9657 99.1707 26.141 99.006 26.2912C98.8413 26.4414 98.6581 26.5165 98.4565 26.5165H96.635C96.2048 26.5165 95.8889 26.403 95.6856 26.1777C95.4823 25.9524 95.3059 25.7254 95.1546 25.5001L89.6532 15.9276H83.0125V25.6503C83.0125 25.9023 82.9301 26.1093 82.7654 26.2728C82.6008 26.4364 82.379 26.5181 82.1017 26.5181H80.1659H80.1676ZM83.0141 3.3043V12.725H89.2751C91.1722 12.725 92.5887 12.3295 93.5247 11.5385C94.4606 10.7474 94.9278 9.57253 94.9278 8.01549C94.9278 6.45844 94.4657 5.31527 93.5432 4.51088C92.619 3.70649 91.1974 3.3043 89.2751 3.3043" fill="#464646" />
		<path d="M107.638 26.8955C106.373 26.8955 105.222 26.6435 104.185 26.1412C103.148 25.6388 102.313 24.9613 101.681 24.1068C101.049 23.2524 100.732 22.2861 100.732 21.2047C100.732 19.4707 101.439 18.0906 102.857 17.0592C104.274 16.0295 106.121 15.3503 108.397 15.0249L114.052 14.2338V13.1407C114.052 11.9342 113.704 10.9929 113.008 10.3137C112.313 9.63614 111.18 9.29569 109.612 9.29569C108.475 9.29569 107.557 9.52099 106.862 9.97325C106.166 10.4255 105.679 11.0029 105.401 11.7072C105.25 12.0844 104.985 12.2729 104.605 12.2729H102.898C102.619 12.2729 102.41 12.1912 102.271 12.0276C102.131 11.8641 102.063 11.6688 102.063 11.4435C102.063 11.0664 102.207 10.6024 102.499 10.05C102.79 9.49762 103.239 8.95691 103.847 8.42955C104.454 7.90219 105.232 7.45661 106.181 7.09113C107.13 6.72732 108.287 6.54541 109.653 6.54541C111.17 6.54541 112.447 6.74067 113.486 7.12951C114.522 7.52002 115.339 8.04071 115.932 8.69323C116.527 9.34743 116.957 10.0867 117.223 10.9162C117.488 11.7456 117.621 12.5867 117.621 13.4411V25.6505C117.621 25.9025 117.539 26.1095 117.374 26.273C117.209 26.4366 117.001 26.5183 116.747 26.5183H115.001C114.722 26.5183 114.507 26.4366 114.356 26.273C114.205 26.1095 114.129 25.9025 114.129 25.6505V24.0301C113.8 24.4823 113.358 24.9279 112.802 25.3685C112.245 25.8091 111.55 26.1729 110.715 26.4616C109.879 26.7503 108.856 26.8955 107.641 26.8955H107.638ZM108.434 24.0684C109.471 24.0684 110.421 23.8482 111.281 23.4092C112.141 22.9703 112.817 22.2844 113.311 21.3549C113.805 20.4253 114.05 19.2571 114.05 17.8503V16.7955L109.649 17.4364C107.853 17.6884 106.5 18.1089 105.59 18.6981C104.679 19.2888 104.223 20.0365 104.223 20.941C104.223 21.6453 104.432 22.2294 104.85 22.6933C105.267 23.1589 105.8 23.5027 106.443 23.7297C107.088 23.955 107.752 24.0684 108.434 24.0684Z" fill="#464646" />
		<path d="M122.132 3.26783C121.879 3.26783 121.67 3.18606 121.506 3.02251C121.341 2.85896 121.259 2.65202 121.259 2.40002V0.866342C121.259 0.616013 121.341 0.409075 121.506 0.243858C121.67 0.0803093 121.879 -0.00146484 122.132 -0.00146484H124.524C124.776 -0.00146484 124.986 0.0803093 125.15 0.243858C125.315 0.407406 125.397 0.614345 125.397 0.866342V2.40002C125.397 2.65202 125.315 2.85896 125.15 3.02251C124.986 3.18606 124.777 3.26783 124.524 3.26783H122.132ZM122.437 26.5184C122.183 26.5184 121.974 26.4366 121.81 26.2731C121.645 26.1095 121.563 25.9026 121.563 25.6506V7.79044C121.563 7.54011 121.645 7.33318 121.81 7.16796C121.974 7.00441 122.183 6.92264 122.437 6.92264H124.258C124.51 6.92264 124.713 7.00441 124.865 7.16796C125.016 7.33151 125.092 7.53845 125.092 7.79044V25.6523C125.092 25.9043 125.016 26.1112 124.865 26.2747C124.713 26.4383 124.51 26.5201 124.258 26.5201H122.437V26.5184Z" fill="#464646" />
		<path d="M130.139 26.5185C129.886 26.5185 129.677 26.4367 129.513 26.2732C129.348 26.1096 129.266 25.9027 129.266 25.6507V0.963266C129.266 0.712937 129.348 0.505999 129.513 0.340781C129.677 0.177233 129.886 0.095459 130.139 0.095459H131.922C132.2 0.095459 132.416 0.177233 132.568 0.340781C132.719 0.50433 132.794 0.711268 132.794 0.963266V25.6524C132.794 25.9044 132.719 26.1113 132.568 26.2749C132.416 26.4384 132.201 26.5202 131.922 26.5202H130.139V26.5185Z" fill="#464646" />
		<path d="M143.76 26.8955C142.344 26.8955 141.129 26.7203 140.117 26.3681C139.106 26.016 138.282 25.5904 137.651 25.0864C137.019 24.5841 136.543 24.0818 136.227 23.5795C135.912 23.0771 135.74 22.6749 135.715 22.3729C135.69 22.0975 135.777 21.8822 135.98 21.732C136.182 21.5818 136.385 21.5067 136.587 21.5067H138.257C138.409 21.5067 138.53 21.5251 138.619 21.5635C138.708 21.6019 138.827 21.7087 138.98 21.8839C139.308 22.236 139.676 22.5882 140.08 22.9386C140.485 23.2908 140.984 23.5795 141.579 23.8048C142.174 24.0301 142.914 24.1435 143.799 24.1435C145.09 24.1435 146.152 23.8982 146.987 23.4092C147.822 22.9186 148.239 22.1976 148.239 21.2431C148.239 20.6156 148.067 20.1132 147.726 19.7361C147.385 19.3589 146.777 19.0201 145.905 18.7181C145.032 18.416 143.836 18.1023 142.319 17.7752C140.801 17.423 139.6 16.9908 138.714 16.4751C137.829 15.9611 137.197 15.3453 136.817 14.6294C136.437 13.9134 136.248 13.1024 136.248 12.1995C136.248 11.2967 136.525 10.3721 137.083 9.5043C137.639 8.63816 138.454 7.92723 139.529 7.37483C140.605 6.82244 141.951 6.54541 143.571 6.54541C144.886 6.54541 146.012 6.70896 146.948 7.03605C147.884 7.36315 148.655 7.77035 149.262 8.261C149.868 8.75164 150.324 9.23561 150.628 9.71124C150.932 10.1885 151.095 10.5907 151.122 10.9178C151.147 11.1698 151.072 11.3768 150.895 11.5403C150.717 11.7039 150.515 11.7856 150.289 11.7856H148.696C148.517 11.7856 148.373 11.7472 148.259 11.6721C148.144 11.5971 148.037 11.5086 147.936 11.4085C147.682 11.083 147.387 10.7559 147.044 10.4288C146.703 10.1034 146.259 9.83306 145.716 9.61945C145.172 9.40584 144.458 9.29903 143.572 9.29903C142.307 9.29903 141.359 9.56271 140.726 10.0901C140.094 10.6174 139.776 11.2833 139.776 12.0877C139.776 12.565 139.916 12.9922 140.193 13.3694C140.47 13.7465 141.003 14.0853 141.786 14.3874C142.569 14.6894 143.734 15.0149 145.276 15.367C146.946 15.6941 148.26 16.133 149.222 16.6854C150.183 17.2378 150.865 17.8786 151.27 18.6079C151.675 19.3372 151.876 20.1783 151.876 21.1329C151.876 22.1876 151.566 23.1556 150.947 24.0351C150.327 24.9146 149.416 25.6121 148.215 26.1261C147.014 26.6402 145.526 26.8988 143.757 26.8988L143.76 26.8955Z" fill="#464646" />
	</g>
	<defs>
		<linearGradient id="paint0_linear_351_591" x1="26.9357" y1="-0.223626" x2="26.9357" y2="27.3827" gradientUnits="userSpaceOnUse">
			<stop stop-color="#5C18FF" />
			<stop offset="0.49" stop-color="#FF00FF" />
			<stop offset="1" stop-color="#FF0062" />
		</linearGradient>
		<clipPath id="clip0_351_591">
			<rect width="151.88" height="26.8954" fill="white" />
		</clipPath>
	</defs>
</svg>
