<svg xmlns="http://www.w3.org/2000/svg" xmlns:xlink="http://www.w3.org/1999/xlink" viewBox="0 0 16 16" version="1.1">
<defs>
<linearGradient id="linear0" gradientUnits="userSpaceOnUse" x1="0" y1="1" x2="1" y2="0" gradientTransform="matrix(16,0,0,16,0,0)">
<stop offset="0" style="stop-color:rgb(74.117647%,3.137255%,8.627451%);stop-opacity:1;"/>
<stop offset="1" style="stop-color:rgb(100%,32.156863%,32.156863%);stop-opacity:1;"/>
</linearGradient>
</defs>
<g id="surface1">
<rect x="0" y="0" width="16" height="16" style="fill:url(#linear0);stroke:none;"/>
<path style=" stroke:none;fill-rule:evenodd;fill:rgb(100%,100%,100%);fill-opacity:1;" d="M 3.859375 8.667969 L 3.332031 8.667969 L 3.332031 8 L 3.855469 8 C 3.914062 7.167969 4.1875 6.375 4.679688 5.695312 L 5.21875 6.085938 C 4.8125 6.652344 4.578125 7.308594 4.523438 8 L 5.332031 8 L 5.332031 8.667969 L 4.527344 8.667969 C 4.585938 9.347656 4.816406 9.992188 5.21875 10.550781 L 4.679688 10.941406 C 4.195312 10.269531 3.921875 9.488281 3.859375 8.667969 Z M 10.933594 11.949219 C 10.265625 12.433594 9.484375 12.703125 8.667969 12.769531 L 8.667969 13.332031 L 8 13.332031 L 8 12.773438 C 7.164062 12.714844 6.371094 12.441406 5.6875 11.949219 L 6.078125 11.410156 C 6.644531 11.820312 7.316406 12.039062 8 12.09375 L 8 11.332031 L 8.667969 11.332031 L 8.667969 12.089844 C 9.335938 12.03125 9.988281 11.808594 10.542969 11.410156 Z M 5.6875 4.6875 C 6.367188 4.195312 7.175781 3.933594 8 3.878906 L 8 3.332031 L 8.667969 3.332031 L 8.667969 3.882812 C 9.472656 3.941406 10.265625 4.203125 10.933594 4.683594 L 10.542969 5.226562 C 9.988281 4.824219 9.335938 4.605469 8.667969 4.542969 L 8.667969 5.332031 L 8 5.332031 L 8 4.542969 C 7.316406 4.597656 6.644531 4.816406 6.078125 5.226562 Z M 13.332031 8 L 13.332031 8.667969 L 12.761719 8.667969 C 12.699219 9.488281 12.429688 10.269531 11.941406 10.941406 L 11.402344 10.546875 C 11.804688 9.992188 12.035156 9.347656 12.097656 8.667969 L 11.332031 8.667969 L 11.332031 8 L 12.097656 8 C 12.042969 7.308594 11.8125 6.652344 11.402344 6.085938 L 11.941406 5.695312 C 12.433594 6.375 12.707031 7.167969 12.765625 8 Z M 10.714844 5.445312 L 12.03125 4.125 L 12.503906 4.597656 L 11.183594 5.914062 Z M 5.90625 11.191406 L 4.589844 12.511719 L 4.117188 12.039062 L 5.4375 10.71875 Z M 6.050781 6.519531 L 3.550781 4.023438 L 4.023438 3.554688 L 6.519531 6.050781 Z M 10.816406 10.34375 L 13.070312 12.597656 L 12.597656 13.070312 L 10.34375 10.816406 Z M 7.128906 8.488281 C 7.128906 8.488281 7.164062 8.429688 7.164062 8.429688 C 7.355469 8.132812 7.398438 7.777344 7.378906 7.457031 C 7.425781 7.523438 7.46875 7.589844 7.503906 7.652344 C 7.566406 7.765625 7.695312 7.835938 7.820312 7.824219 C 7.953125 7.816406 8.066406 7.726562 8.109375 7.605469 C 8.234375 7.246094 8.269531 6.929688 8.25 6.65625 C 8.425781 7.082031 8.363281 7.648438 8.089844 8.152344 C 7.726562 8.820312 7.710938 9.515625 7.773438 10.007812 C 7.652344 9.945312 7.539062 9.875 7.4375 9.804688 C 7.011719 9.511719 6.878906 8.929688 7.128906 8.488281 Z M 9.175781 8.664062 C 9.292969 8.730469 9.441406 8.722656 9.550781 8.632812 C 9.578125 8.613281 9.726562 8.484375 9.863281 8.210938 C 9.910156 8.441406 9.910156 8.769531 9.792969 9.222656 C 9.625 9.871094 8.890625 10.109375 8.484375 10.195312 C 8.402344 9.828125 8.320312 9.125 8.675781 8.472656 C 8.851562 8.148438 8.949219 7.808594 8.988281 7.476562 C 9.042969 7.714844 9.066406 7.988281 9.011719 8.320312 C 8.988281 8.457031 9.054688 8.59375 9.175781 8.664062 Z M 6.550781 8.160156 C 6.128906 8.898438 6.351562 9.863281 7.058594 10.351562 C 7.355469 10.5625 7.714844 10.742188 8.128906 10.886719 C 8.164062 10.902344 8.203125 10.90625 8.238281 10.90625 C 8.246094 10.90625 8.253906 10.902344 8.261719 10.902344 L 8.261719 10.90625 C 8.335938 10.902344 10.085938 10.75 10.4375 9.390625 C 10.882812 7.667969 9.949219 7.128906 9.90625 7.109375 C 9.808594 7.054688 9.691406 7.054688 9.59375 7.105469 C 9.589844 7.105469 9.589844 7.105469 9.585938 7.109375 C 9.328125 6.320312 8.734375 5.867188 8.316406 5.683594 C 8.089844 5.511719 7.816406 5.394531 7.507812 5.339844 C 7.355469 5.3125 7.210938 5.390625 7.148438 5.523438 C 7.085938 5.660156 7.121094 5.824219 7.234375 5.921875 C 7.25 5.9375 7.539062 6.191406 7.582031 6.679688 C 7.390625 6.511719 7.152344 6.375 6.882812 6.375 C 6.773438 6.375 6.671875 6.429688 6.609375 6.523438 C 6.546875 6.613281 6.535156 6.730469 6.574219 6.832031 C 6.652344 7.039062 6.832031 7.710938 6.601562 8.070312 Z M 6.550781 8.160156 "/>
</g>
</svg>
